<svg width="361" height="230" viewBox="0 0 361 230" fill="none" xmlns="http://www.w3.org/2000/svg">
<path d="M360.898 4.54328V225.457C360.898 226.053 360.806 226.644 360.627 227.195C360.448 227.747 360.186 228.247 359.856 228.669C359.525 229.091 359.132 229.426 358.7 229.654C358.268 229.882 357.806 230 357.338 230H4.45399C3.98666 230 3.5239 229.882 3.0922 229.654C2.6605 229.426 2.26832 229.091 1.93809 228.669C1.60786 228.247 1.34607 227.746 1.16767 227.195C0.989281 226.644 0.897792 226.053 0.898441 225.457V4.54328C0.897792 3.94695 0.989281 3.3563 1.16767 2.80512C1.34607 2.25394 1.60786 1.75305 1.93809 1.33108C2.26832 0.909114 2.6605 0.574351 3.0922 0.345952C3.5239 0.117553 3.98666 -5.75168e-07 4.45399 0H357.338C358.282 0 359.188 0.478663 359.856 1.3307C360.523 2.18273 360.898 3.33833 360.898 4.54328Z" fill="#E6E6E6"/>
<path d="M360.898 2.97762V13H0.898438V2.97762C0.898438 2.1879 1.14869 1.43053 1.59415 0.872123C2.0396 0.313711 2.64377 0 3.27374 0H358.523C359.153 0 359.757 0.313711 360.203 0.872123C360.648 1.43053 360.898 2.1879 360.898 2.97762Z" fill="white"/>
<path d="M11.0491 9.45225C12.7892 9.45225 14.1998 8.04164 14.1998 6.30156C14.1998 4.56149 12.7892 3.15088 11.0491 3.15088C9.30905 3.15088 7.89844 4.56149 7.89844 6.30156C7.89844 8.04164 9.30905 9.45225 11.0491 9.45225Z" fill="#F50057"/>
<path d="M19.8714 9.45225C21.6115 9.45225 23.0221 8.04164 23.0221 6.30156C23.0221 4.56149 21.6115 3.15088 19.8714 3.15088C18.1313 3.15088 16.7207 4.56149 16.7207 6.30156C16.7207 8.04164 18.1313 9.45225 19.8714 9.45225Z" fill="#F50057"/>
<path d="M28.6937 9.45225C30.4337 9.45225 31.8443 8.04164 31.8443 6.30156C31.8443 4.56149 30.4337 3.15088 28.6937 3.15088C26.9536 3.15088 25.543 4.56149 25.543 6.30156C25.543 8.04164 26.9536 9.45225 28.6937 9.45225Z" fill="#F50057"/>
<path opacity="0.2" d="M337.429 161.296V199.218L25.3851 199.388L25.1016 123.582C28.3972 133.293 36.5323 135.038 50.8553 117.911C85.8594 76.1079 133.441 65.1058 170.273 63.9526C195.478 63.1586 220.627 68.3636 244.629 78.7041C254.597 83.0079 293.994 87.6394 319.993 89.7063C324.712 90.0783 329.118 92.2127 332.334 95.6851C335.551 99.1574 337.343 103.713 337.353 108.447L337.429 161.296Z" fill="#F50057"/>
<path opacity="0.2" d="M337.429 124.212V199.576H25.1016V183.192C34.0306 180.943 67.4279 172.291 83.4397 148.396C102.596 119.788 128.633 112.264 148.779 111.476C162.585 110.928 176.328 114.476 189.448 121.559C204.205 129.524 232.656 139.133 254.27 111.237C278.177 80.3918 314.902 105.812 324.215 115.156C327.542 118.458 337.429 124.212 337.429 124.212Z" fill="#F50057"/>
<path d="M25.1016 44.2866V198.393H337.429" stroke="#F50057" stroke-width="2" stroke-miterlimit="10"/>
<path d="M64.4531 198.392V104.445" stroke="#F50057" stroke-miterlimit="10"/>
<path d="M102.362 198.393V79.3159" stroke="#F50057" stroke-miterlimit="10"/>
<path d="M140.271 198.392V67.3613" stroke="#F50057" stroke-miterlimit="10"/>
<path d="M178.181 198.392V63.6558" stroke="#F50057" stroke-miterlimit="10"/>
<path d="M216.09 198.392V67.7773" stroke="#F50057" stroke-miterlimit="10"/>
<path d="M253.998 198.393V83.021" stroke="#F50057" stroke-miterlimit="10"/>
<path d="M291.907 198.392V90.8467" stroke="#F50057" stroke-miterlimit="10"/>
<path d="M64.2454 110.217C68.1153 110.217 71.2525 107.08 71.2525 103.21C71.2525 99.3403 68.1153 96.2031 64.2454 96.2031C60.3755 96.2031 57.2383 99.3403 57.2383 103.21C57.2383 107.08 60.3755 110.217 64.2454 110.217Z" fill="#F50057"/>
<path d="M102.156 86.3228C106.025 86.3228 109.163 83.1856 109.163 79.3157C109.163 75.4458 106.025 72.3086 102.156 72.3086C98.2856 72.3086 95.1484 75.4458 95.1484 79.3157C95.1484 83.1856 98.2856 86.3228 102.156 86.3228Z" fill="#F50057"/>
<path d="M140.064 74.7847C143.934 74.7847 147.071 71.6476 147.071 67.7776C147.071 63.9077 143.934 60.7705 140.064 60.7705C136.194 60.7705 133.057 63.9077 133.057 67.7776C133.057 71.6476 136.194 74.7847 140.064 74.7847Z" fill="#F50057"/>
<path d="M177.966 70.6627C181.836 70.6627 184.973 67.5255 184.973 63.6556C184.973 59.7856 181.836 56.6484 177.966 56.6484C174.096 56.6484 170.959 59.7856 170.959 63.6556C170.959 67.5255 174.096 70.6627 177.966 70.6627Z" fill="#F50057"/>
<path d="M215.874 74.7847C219.744 74.7847 222.881 71.6476 222.881 67.7776C222.881 63.9077 219.744 60.7705 215.874 60.7705C212.004 60.7705 208.867 63.9077 208.867 67.7776C208.867 71.6476 212.004 74.7847 215.874 74.7847Z" fill="#F50057"/>
<path d="M253.784 90.4371C257.654 90.4371 260.792 87.2999 260.792 83.43C260.792 79.56 257.654 76.4229 253.784 76.4229C249.915 76.4229 246.777 79.56 246.777 83.43C246.777 87.2999 249.915 90.4371 253.784 90.4371Z" fill="#F50057"/>
<path d="M291.694 98.6798C295.564 98.6798 298.701 95.5426 298.701 91.6727C298.701 87.8027 295.564 84.6655 291.694 84.6655C287.824 84.6655 284.687 87.8027 284.687 91.6727C284.687 95.5426 287.824 98.6798 291.694 98.6798Z" fill="#F50057"/>
</svg>
