<svg width="361" height="230" viewBox="0 0 361 230" fill="none" xmlns="http://www.w3.org/2000/svg">
<path d="M53.6094 34.0494C54.9708 34.0494 56.0743 32.949 56.0743 31.5916C56.0743 30.2342 54.9708 29.1338 53.6094 29.1338C52.2481 29.1338 51.1445 30.2342 51.1445 31.5916C51.1445 32.949 52.2481 34.0494 53.6094 34.0494Z" fill="white"/>
<path d="M62.9649 34.0494C64.3262 34.0494 65.4298 32.949 65.4298 31.5916C65.4298 30.2342 64.3262 29.1338 62.9649 29.1338C61.6036 29.1338 60.5 30.2342 60.5 31.5916C60.5 32.949 61.6036 34.0494 62.9649 34.0494Z" fill="white"/>
<path d="M72.3194 34.0494C73.6807 34.0494 74.7843 32.949 74.7843 31.5916C74.7843 30.2342 73.6807 29.1338 72.3194 29.1338C70.9581 29.1338 69.8545 30.2342 69.8545 31.5916C69.8545 32.949 70.9581 34.0494 72.3194 34.0494Z" fill="white"/>
<path d="M360.63 37.3652H47.6201V39.0999H360.63V37.3652Z" fill="white"/>
<path d="M360.898 0.203003H1.05176V230H360.898V0.203003Z" fill="#E6E6E6"/>
<path d="M360.745 0H0.898438V15.2435H360.745V0Z" fill="white"/>
<path d="M350.906 27.5386H11.6387V115.139H350.906V27.5386Z" fill="white"/>
<path d="M351.121 129.535H11.8535V217.135H351.121V129.535Z" fill="white"/>
<path d="M309.816 46.9175H126.204V55.0772H309.816V46.9175Z" fill="#E6E6E6"/>
<path d="M191.67 67.3165H126.204V75.4763H191.67V67.3165Z" fill="#E6E6E6"/>
<path d="M256.625 87.7153H126.204V95.8751H256.625V87.7153Z" fill="#E6E6E6"/>
<path d="M113.887 71.3794C113.897 77.3163 112.163 83.1261 108.901 88.0924C108.217 89.1396 107.468 90.1428 106.658 91.096C104.758 93.3404 102.545 95.3013 100.086 96.9188C99.4174 97.3606 98.7301 97.7745 98.024 98.1606C94.3492 100.187 90.2932 101.433 86.1116 101.819C85.1611 101.911 84.1947 101.955 83.2198 101.955C80.5482 101.958 77.8877 101.611 75.3065 100.923C73.8434 100.54 72.4121 100.045 71.0255 99.4415C70.3167 99.1363 69.624 98.8043 68.9473 98.4457C67.3197 97.5935 65.7737 96.5949 64.3282 95.4624C63.6557 94.9404 63.0073 94.3902 62.383 93.8118C58.6468 90.3612 55.8312 86.037 54.1906 81.2297C52.5499 76.4225 52.1358 71.2835 52.9856 66.2767C53.8355 61.2699 55.9225 56.5529 59.0582 52.5517C62.194 48.5505 66.2798 45.391 70.9467 43.3585C75.6137 41.326 80.7148 40.4844 85.7896 40.9097C90.8644 41.3351 95.753 43.014 100.014 45.7948C104.275 48.5757 107.775 52.3709 110.197 56.838C112.619 61.305 113.887 66.3031 113.886 71.3811L113.887 71.3794Z" fill="#E6E6E6"/>
<path d="M75.7881 74.1414C75.7881 74.1414 78.5797 81.875 76.4108 86.2035C74.242 90.532 79.8228 95.4821 79.8228 95.4821C79.8228 95.4821 94.4017 88.059 92.5403 84.3475C90.6789 80.6359 87.5776 75.6876 88.1975 72.5947L75.7881 74.1414Z" fill="#FFB8B8"/>
<path d="M81.2169 77.0796C86.6988 77.0796 91.1428 72.6485 91.1428 67.1824C91.1428 61.7163 86.6988 57.2852 81.2169 57.2852C75.735 57.2852 71.291 61.7163 71.291 67.1824C71.291 72.6485 75.735 77.0796 81.2169 77.0796Z" fill="#FFB8B8"/>
<path d="M75.3064 100.922C73.8433 100.538 72.412 100.043 71.0254 99.4399L71.2915 91.9265L74.0825 85.7386C74.7099 86.2286 75.3814 86.66 76.0882 87.0273C76.2581 87.1199 76.4279 87.2079 76.6159 87.2965C79.2336 88.5576 83.5101 89.6674 87.6553 86.574C89.1784 85.3917 90.4712 83.9408 91.4693 82.2935L99.2094 86.6666L99.6158 91.4049L100.087 96.9183C99.4184 97.3601 98.7312 97.7741 98.025 98.1602C94.3502 100.187 90.2942 101.432 86.1126 101.818C85.1621 101.911 84.1957 101.955 83.2209 101.955C80.5487 101.957 77.8879 101.61 75.3064 100.922Z" fill="#575A89"/>
<path d="M77.2117 81.1094V81.1212L76.8211 85.1607L76.6156 87.2968L76.3138 90.4732L75.3072 100.922C73.8441 100.539 72.4128 100.043 71.0262 99.4401C70.3174 99.1349 69.6247 98.803 68.948 98.4444C67.3205 97.5921 65.7744 96.5936 64.3289 95.461L63.2256 90.3806L63.3099 90.3241L77.2117 81.1094Z" fill="#575A89"/>
<path d="M98.0237 98.1587C94.3489 100.185 90.2929 101.431 86.1113 101.817C86.3378 98.0582 86.6673 94.428 87.0415 91.1957C87.2345 89.5372 87.4378 87.9871 87.6535 86.5737C88.326 82.0323 89.0506 78.9479 89.5703 78.5308L93.0016 80.7887L106.96 85.7359L106.658 91.093C104.758 93.3374 102.544 95.2983 100.086 96.9157C99.4171 97.359 98.7299 97.7734 98.0237 98.1587Z" fill="#575A89"/>
<path d="M64.328 95.4605C63.6555 94.9385 63.0071 94.3883 62.3828 93.8099L62.9144 90.3806L63.3107 90.3242L65.0866 90.0713L68.9487 98.4438C67.3212 97.5916 65.7751 96.593 64.3297 95.4605H64.328Z" fill="#575A89"/>
<path d="M108.901 88.0919C108.218 89.1392 107.469 90.1424 106.658 91.0956C104.758 93.34 102.545 95.3009 100.086 96.9183C99.4179 97.3601 98.7306 97.7741 98.0245 98.1602L97.6582 96.5661L99.6153 91.4061L101.999 85.1216L106.961 85.7425C107.649 86.4912 108.296 87.2754 108.901 88.0919V88.0919Z" fill="#575A89"/>
<path d="M90.6816 58.2311C89.1809 55.801 86.832 54.0102 84.0868 53.2031L82.0703 54.812L82.8543 52.9356C82.1949 52.8359 81.5275 52.7981 80.861 52.8227L79.0466 55.149L79.7978 52.9023C78.2233 53.0974 76.7064 53.6157 75.3427 54.4245C73.9791 55.2334 72.7984 56.3151 71.8749 57.6017C69.5657 60.922 69.1756 65.5396 71.4475 68.8859C72.0702 66.9751 72.8277 65.1822 73.4516 63.2714C73.9417 63.3381 74.4384 63.3406 74.9292 63.2788L75.6878 61.5136L75.8995 63.2037C78.2506 62.9993 81.7385 62.5511 83.9673 62.1402L83.7505 60.8419L85.0475 61.9195C85.7303 61.7625 86.1362 61.6203 86.1022 61.5119C87.7598 64.1769 89.4027 65.8788 91.0603 68.5438C91.6882 64.7865 92.7989 61.6604 90.6816 58.2311Z" fill="#2F2E41"/>
<path d="M90.132 68.2124C90.5031 68.2124 90.8039 67.6125 90.8039 66.8723C90.8039 66.1322 90.5031 65.5322 90.132 65.5322C89.7608 65.5322 89.46 66.1322 89.46 66.8723C89.46 67.6125 89.7608 68.2124 90.132 68.2124Z" fill="#FFB8B8"/>
<path d="M112.395 172.887C112.405 178.828 110.671 184.641 107.406 189.611C106.722 190.659 105.972 191.663 105.161 192.617C103.26 194.863 101.045 196.825 98.5847 198.444C97.9155 198.886 97.2277 199.3 96.5211 199.685C92.8437 201.714 88.7848 202.96 84.6003 203.346C83.6492 203.439 82.6822 203.483 81.7068 203.483C79.0332 203.485 76.3708 203.138 73.7878 202.45C72.3237 202.067 70.8915 201.571 69.504 200.967C68.7948 200.662 68.1017 200.33 67.4246 199.971C65.7959 199.118 64.2487 198.119 62.8022 196.985C62.1293 196.463 61.4805 195.913 60.8558 195.334C57.1185 191.881 54.3024 187.554 52.6617 182.744C51.021 177.934 50.6073 172.792 51.4581 167.783C52.3089 162.774 54.3974 158.055 57.5349 154.052C60.6724 150.049 64.7603 146.888 69.4296 144.854C74.0989 142.821 79.2025 141.978 84.2798 142.404C89.3572 142.829 94.2484 144.508 98.512 147.29C102.776 150.072 106.277 153.869 108.701 158.338C111.125 162.806 112.395 167.807 112.395 172.887V172.887Z" fill="#F50057"/>
<path d="M83.59 158.604H79.8281V187.162H83.59V158.604Z" fill="white"/>
<path d="M96.0293 174.759V171.008H67.3879V174.759H96.0293Z" fill="white"/>
<path d="M305.213 148.913H121.602V157.073H305.213V148.913Z" fill="#E6E6E6"/>
<path d="M187.068 169.312H121.602V177.472H187.068V169.312Z" fill="#E6E6E6"/>
<path d="M252.023 189.711H121.602V197.871H252.023V189.711Z" fill="#E6E6E6"/>
<path d="M24.6978 10.1042C26.0945 10.1042 27.2267 8.97526 27.2267 7.58262C27.2267 6.18999 26.0945 5.06104 24.6978 5.06104C23.3012 5.06104 22.1689 6.18999 22.1689 7.58262C22.1689 8.97526 23.3012 10.1042 24.6978 10.1042Z" fill="#EE224D"/>
<path d="M34.2974 10.1042C35.6941 10.1042 36.8263 8.97526 36.8263 7.58262C36.8263 6.18999 35.6941 5.06104 34.2974 5.06104C32.9008 5.06104 31.7686 6.18999 31.7686 7.58262C31.7686 8.97526 32.9008 10.1042 34.2974 10.1042Z" fill="#EE224D"/>
<path d="M15.0738 10.1042C16.4705 10.1042 17.6027 8.97526 17.6027 7.58262C17.6027 6.18999 16.4705 5.06104 15.0738 5.06104C13.6771 5.06104 12.5449 6.18999 12.5449 7.58262C12.5449 8.97526 13.6771 10.1042 15.0738 10.1042Z" fill="#EE224D"/>
</svg>
