<svg width="360" height="230" viewBox="0 0 360 230" fill="none" xmlns="http://www.w3.org/2000/svg">
<rect width="360" height="230" rx="6" fill="#E6E6E6"/>
<path d="M354.87 0H5.02852C3.69533 0.00126638 2.41716 0.455211 1.47445 1.26225C0.531739 2.06928 0.00147928 3.16349 0 4.30481V225.695C0.00147928 226.837 0.531739 227.931 1.47445 228.738C2.41716 229.545 3.69533 229.999 5.02852 230H354.87C356.203 229.999 357.481 229.545 358.424 228.738C359.367 227.931 359.897 226.837 359.899 225.695V4.30481C359.897 3.16349 359.367 2.06928 358.424 1.26225C357.481 0.455211 356.203 0.00126638 354.87 0V0ZM358.462 225.695C358.461 226.511 358.083 227.292 357.409 227.869C356.736 228.446 355.822 228.77 354.87 228.77H5.02852C4.07603 228.77 3.16266 228.446 2.48915 227.869C1.81564 227.292 1.4371 226.511 1.43672 225.695V4.30481C1.4371 3.48941 1.81564 2.70749 2.48915 2.13091C3.16266 1.55433 4.07603 1.23027 5.02852 1.22995H354.87C355.822 1.23027 356.736 1.55433 357.409 2.13091C358.083 2.70749 358.461 3.48941 358.462 4.30481V225.695Z" fill="white"/>
<path d="M359.18 21.6367H0.717773V22.8667H359.18V21.6367Z" fill="white"/>
<path d="M12.8984 16C15.1076 16 16.8984 14.2091 16.8984 12C16.8984 9.79086 15.1076 8 12.8984 8C10.6893 8 8.89844 9.79086 8.89844 12C8.89844 14.2091 10.6893 16 12.8984 16Z" fill="#EE224D"/>
<path d="M25.29 16C27.4992 16 29.29 14.2091 29.29 12C29.29 9.79086 27.4992 8 25.29 8C23.0809 8 21.29 9.79086 21.29 12C21.29 14.2091 23.0809 16 25.29 16Z" fill="#EE224D"/>
<path d="M37.6816 16C39.8908 16 41.6816 14.2091 41.6816 12C41.6816 9.79086 39.8908 8 37.6816 8C35.4725 8 33.6816 9.79086 33.6816 12C33.6816 14.2091 35.4725 16 37.6816 16Z" fill="#EE224D"/>
<path d="M216.818 195.837C216.627 195.837 216.445 195.772 216.31 195.657C216.175 195.541 216.1 195.385 216.1 195.222V170.008C216.1 169.845 216.175 169.689 216.31 169.573C216.445 169.458 216.627 169.393 216.818 169.393C217.008 169.393 217.191 169.458 217.326 169.573C217.461 169.689 217.536 169.845 217.536 170.008V195.222C217.536 195.385 217.461 195.541 217.326 195.657C217.191 195.772 217.008 195.837 216.818 195.837V195.837Z" fill="white"/>
<path d="M215.833 160.168C215.706 160.168 215.582 160.139 215.472 160.085L174.659 139.727C174.494 139.644 174.375 139.51 174.326 139.352C174.278 139.194 174.305 139.027 174.4 138.886C174.496 138.745 174.653 138.643 174.837 138.601C175.021 138.559 175.217 138.582 175.382 138.664L216.196 159.022C216.332 159.09 216.439 159.194 216.498 159.32C216.558 159.445 216.569 159.583 216.527 159.714C216.486 159.844 216.396 159.96 216.27 160.042C216.145 160.124 215.991 160.168 215.833 160.168V160.168Z" fill="white"/>
<path d="M134.206 160.169C134.048 160.169 133.895 160.125 133.769 160.042C133.644 159.96 133.553 159.845 133.512 159.714C133.471 159.584 133.481 159.445 133.541 159.32C133.601 159.195 133.708 159.09 133.844 159.022L174.658 138.664C174.822 138.583 175.018 138.561 175.201 138.603C175.385 138.645 175.542 138.747 175.637 138.888C175.733 139.028 175.76 139.195 175.712 139.353C175.664 139.51 175.545 139.645 175.381 139.727L134.567 160.085C134.458 160.14 134.333 160.169 134.206 160.169V160.169Z" fill="white"/>
<path d="M258.216 190.917C258.089 190.917 257.965 190.888 257.855 190.834L217.041 170.476C216.877 170.393 216.758 170.259 216.709 170.101C216.661 169.943 216.687 169.776 216.783 169.635C216.879 169.494 217.036 169.392 217.22 169.35C217.404 169.308 217.6 169.331 217.765 169.413L258.578 189.771C258.715 189.839 258.821 189.943 258.881 190.069C258.941 190.194 258.951 190.332 258.91 190.463C258.869 190.593 258.779 190.709 258.653 190.791C258.528 190.873 258.374 190.917 258.216 190.917V190.917Z" fill="white"/>
<path d="M176.59 190.917C176.432 190.917 176.279 190.873 176.153 190.79C176.028 190.708 175.937 190.593 175.896 190.462C175.855 190.332 175.865 190.193 175.925 190.068C175.985 189.943 176.091 189.839 176.228 189.77L217.041 169.412C217.206 169.331 217.402 169.309 217.585 169.351C217.769 169.393 217.926 169.495 218.021 169.636C218.117 169.776 218.144 169.943 218.096 170.101C218.047 170.258 217.928 170.393 217.765 170.475L176.951 190.833C176.841 190.888 176.717 190.917 176.59 190.917V190.917Z" fill="white"/>
<path d="M175.153 128.805C174.963 128.805 174.78 128.74 174.646 128.625C174.511 128.51 174.435 128.354 174.435 128.191L174.368 105.814C174.368 105.733 174.386 105.653 174.422 105.579C174.458 105.504 174.511 105.436 174.577 105.379C174.644 105.322 174.723 105.276 174.81 105.245C174.897 105.214 174.99 105.198 175.085 105.198H175.087C175.277 105.198 175.459 105.262 175.594 105.377C175.729 105.492 175.804 105.648 175.805 105.811L175.871 128.188C175.872 128.269 175.853 128.349 175.817 128.424C175.781 128.499 175.729 128.566 175.662 128.624C175.596 128.681 175.517 128.726 175.43 128.757C175.342 128.789 175.249 128.805 175.155 128.805L175.153 128.805Z" fill="white"/>
<path d="M184.443 140.437H165.729C164.872 140.436 164.05 140.145 163.444 139.626C162.838 139.107 162.497 138.404 162.496 137.67V129.441C162.497 128.707 162.838 128.004 163.444 127.485C164.05 126.966 164.872 126.674 165.729 126.673H184.443C185.3 126.674 186.122 126.966 186.728 127.485C187.334 128.004 187.675 128.707 187.676 129.441V137.67C187.675 138.404 187.334 139.107 186.728 139.626C186.122 140.145 185.3 140.436 184.443 140.437V140.437Z" fill="#A8A8A8"/>
<path d="M153.468 98.6064H113.647C113.457 98.6064 113.274 98.5416 113.139 98.4263C113.004 98.311 112.929 98.1545 112.929 97.9914C112.929 97.8283 113.004 97.6719 113.139 97.5566C113.274 97.4413 113.457 97.3765 113.647 97.3765H153.468C153.659 97.3765 153.842 97.4413 153.976 97.5566C154.111 97.6719 154.187 97.8283 154.187 97.9914C154.187 98.1545 154.111 98.311 153.976 98.4263C153.842 98.5416 153.659 98.6064 153.468 98.6064Z" fill="white"/>
<path d="M175.087 89.823C174.896 89.823 174.713 89.7582 174.579 89.6429C174.444 89.5276 174.368 89.3711 174.368 89.208V67.9221C174.368 67.759 174.444 67.6026 174.579 67.4873C174.713 67.3719 174.896 67.3071 175.087 67.3071C175.277 67.3071 175.46 67.3719 175.594 67.4873C175.729 67.6026 175.805 67.759 175.805 67.9221V89.208C175.805 89.3711 175.729 89.5276 175.594 89.6429C175.46 89.7582 175.277 89.823 175.087 89.823V89.823Z" fill="white"/>
<path d="M98.155 98.6076C98.0263 98.6076 97.9001 98.578 97.7894 98.5217L59.1309 78.9065C58.9675 78.8231 58.8494 78.6877 58.8025 78.5299C58.7556 78.372 58.7837 78.2047 58.8807 78.0647C58.9777 77.9246 59.1356 77.8231 59.3198 77.7826C59.504 77.742 59.6995 77.7657 59.8634 77.8483L98.522 97.4635C98.6575 97.5323 98.7628 97.6372 98.8218 97.7623C98.8808 97.8873 98.8901 98.0254 98.8484 98.1554C98.8067 98.2854 98.7162 98.4001 98.591 98.4818C98.4657 98.5635 98.3125 98.6077 98.155 98.6076V98.6076Z" fill="white"/>
<path d="M59.4973 118.222C59.3398 118.222 59.1867 118.178 59.0614 118.096C58.9361 118.014 58.8457 117.9 58.804 117.769C58.7623 117.639 58.7716 117.501 58.8306 117.376C58.8896 117.251 58.9949 117.146 59.1304 117.078L97.789 97.4624C97.9529 97.3792 98.1487 97.3552 98.3333 97.3956C98.5179 97.4361 98.6761 97.5376 98.7733 97.6779C98.8704 97.8183 98.8985 97.9859 98.8513 98.1439C98.8041 98.3019 98.6855 98.4374 98.5215 98.5206L59.8629 118.136C59.7523 118.192 59.626 118.222 59.4973 118.222V118.222Z" fill="white"/>
<path d="M110.775 108.527H101.162C100.305 108.526 99.4836 108.234 98.8775 107.715C98.2715 107.196 97.9306 106.493 97.9297 105.759V89.7381C97.9306 89.0044 98.2715 88.301 98.8775 87.7822C99.4836 87.2633 100.305 86.9715 101.162 86.9707H110.775C111.632 86.9715 112.454 87.2633 113.06 87.7822C113.666 88.301 114.007 89.0044 114.008 89.7381V105.759C114.007 106.493 113.666 107.196 113.06 107.715C112.454 108.234 111.632 108.526 110.775 108.527V108.527Z" fill="#A8A8A8"/>
<path d="M184.443 69.5772H165.729C164.872 69.5764 164.05 69.2846 163.444 68.7658C162.838 68.247 162.497 67.5435 162.496 66.8098V58.5804C162.497 57.8467 162.838 57.1433 163.444 56.6245C164.05 56.1057 164.872 55.8138 165.729 55.813H184.443C185.3 55.8138 186.122 56.1057 186.728 56.6245C187.334 57.1433 187.675 57.8467 187.676 58.5804V66.8098C187.675 67.5435 187.334 68.247 186.728 68.7658C186.122 69.2846 185.3 69.5764 184.443 69.5772V69.5772Z" fill="#A8A8A8"/>
<path d="M56.8971 89.4621H47.2844C46.4273 89.4613 45.6056 89.1695 44.9996 88.6507C44.3936 88.1319 44.0527 87.4285 44.0518 86.6948V70.6736C44.0527 69.9399 44.3936 69.2365 44.9996 68.7177C45.6056 68.1989 46.4273 67.9071 47.2844 67.9062H56.8971C57.7541 67.9071 58.5758 68.1989 59.1818 68.7177C59.7879 69.2365 60.1288 69.9399 60.1297 70.6736V86.6948C60.1288 87.4285 59.7879 88.1319 59.1818 88.6507C58.5758 89.1695 57.7541 89.4613 56.8971 89.4621V89.4621Z" fill="#A8A8A8"/>
<path d="M56.8971 128.205H47.2844C46.4273 128.204 45.6056 127.913 44.9996 127.394C44.3936 126.875 44.0527 126.172 44.0518 125.438V109.417C44.0527 108.683 44.3936 107.98 44.9996 107.461C45.6056 106.942 46.4273 106.65 47.2844 106.649H56.8971C57.7541 106.65 58.5758 106.942 59.1818 107.461C59.7879 107.98 60.1288 108.683 60.1297 109.417V125.438C60.1288 126.172 59.7879 126.875 59.1818 127.394C58.5758 127.913 57.7541 128.204 56.8971 128.205Z" fill="#A8A8A8"/>
<path d="M236.525 98.6064H196.704C196.513 98.6064 196.33 98.5416 196.196 98.4263C196.061 98.311 195.985 98.1545 195.985 97.9914C195.985 97.8283 196.061 97.6719 196.196 97.5566C196.33 97.4413 196.513 97.3765 196.704 97.3765H236.525C236.716 97.3765 236.898 97.4413 237.033 97.5566C237.168 97.6719 237.243 97.8283 237.243 97.9914C237.243 98.1545 237.168 98.311 237.033 98.4263C236.898 98.5416 236.716 98.6064 236.525 98.6064Z" fill="white"/>
<path d="M252.018 98.6069C251.86 98.607 251.707 98.5628 251.582 98.4811C251.457 98.3994 251.366 98.2847 251.324 98.1547C251.283 98.0247 251.292 97.8865 251.351 97.7615C251.41 97.6365 251.516 97.5315 251.651 97.4628L290.31 77.8476C290.391 77.8064 290.481 77.7794 290.574 77.7679C290.667 77.7565 290.762 77.7609 290.854 77.7809C290.945 77.8009 291.031 77.8362 291.107 77.8846C291.182 77.933 291.246 77.9937 291.294 78.0632C291.342 78.1327 291.373 78.2096 291.387 78.2896C291.4 78.3695 291.395 78.4509 291.372 78.5292C291.348 78.6074 291.307 78.6809 291.251 78.7456C291.194 78.8102 291.123 78.8646 291.042 78.9058L252.383 98.521C252.273 98.5773 252.147 98.6069 252.018 98.6069V98.6069Z" fill="white"/>
<path d="M290.675 118.222C290.546 118.222 290.42 118.192 290.31 118.136L251.651 98.5205C251.487 98.4374 251.368 98.3019 251.321 98.1439C251.274 97.9859 251.302 97.8183 251.399 97.678C251.496 97.5376 251.655 97.4361 251.839 97.3957C252.024 97.3552 252.219 97.3792 252.383 97.4624L291.042 117.078C291.177 117.146 291.283 117.251 291.342 117.376C291.401 117.501 291.41 117.639 291.369 117.769C291.327 117.9 291.236 118.014 291.111 118.096C290.986 118.178 290.833 118.222 290.675 118.222V118.222Z" fill="white"/>
<path d="M249.011 108.527H239.399C238.542 108.526 237.72 108.234 237.114 107.715C236.508 107.196 236.167 106.493 236.166 105.759V89.7381C236.167 89.0044 236.508 88.301 237.114 87.7822C237.72 87.2634 238.542 86.9715 239.399 86.9707H249.011C249.868 86.9715 250.69 87.2634 251.296 87.7822C251.902 88.301 252.243 89.0044 252.244 89.7381V105.759C252.243 106.493 251.902 107.196 251.296 107.715C250.69 108.234 249.868 108.526 249.011 108.527Z" fill="#A8A8A8"/>
<path d="M302.887 89.4621H293.275C292.418 89.4613 291.596 89.1695 290.99 88.6507C290.384 88.1319 290.043 87.4285 290.042 86.6948V70.6736C290.043 69.9399 290.384 69.2365 290.99 68.7177C291.596 68.1989 292.418 67.9071 293.275 67.9062H302.887C303.744 67.9071 304.566 68.1989 305.172 68.7177C305.778 69.2365 306.119 69.9399 306.12 70.6736V86.6948C306.119 87.4285 305.778 88.1319 305.172 88.6507C304.566 89.1695 303.744 89.4613 302.887 89.4621V89.4621Z" fill="#A8A8A8"/>
<path d="M302.887 128.205H293.275C292.418 128.204 291.596 127.913 290.99 127.394C290.384 126.875 290.043 126.172 290.042 125.438V109.417C290.043 108.683 290.384 107.98 290.99 107.461C291.596 106.942 292.418 106.65 293.275 106.649H302.887C303.744 106.65 304.566 106.942 305.172 107.461C305.778 107.98 306.119 108.683 306.12 109.417V125.438C306.119 126.172 305.778 126.875 305.172 127.394C304.566 127.913 303.744 128.204 302.887 128.205V128.205Z" fill="#A8A8A8"/>
<path d="M142.778 171.801H124.064C123.207 171.8 122.385 171.508 121.779 170.99C121.173 170.471 120.832 169.767 120.831 169.034V160.804C120.832 160.071 121.173 159.367 121.779 158.849C122.385 158.33 123.207 158.038 124.064 158.037H142.778C143.635 158.038 144.457 158.33 145.063 158.849C145.669 159.367 146.01 160.071 146.011 160.804V169.034C146.01 169.767 145.669 170.471 145.063 170.99C144.457 171.508 143.635 171.8 142.778 171.801Z" fill="#A8A8A8"/>
<path d="M225.976 171.801H207.261C206.404 171.8 205.582 171.508 204.976 170.99C204.37 170.471 204.029 169.767 204.028 169.034V160.804C204.029 160.071 204.37 159.367 204.976 158.849C205.582 158.33 206.404 158.038 207.261 158.037H225.976C226.833 158.038 227.654 158.33 228.26 158.849C228.866 159.367 229.207 160.071 229.208 160.804V169.034C229.207 169.767 228.866 170.471 228.26 170.99C227.654 171.508 226.833 171.8 225.976 171.801Z" fill="#A8A8A8"/>
<path d="M187.902 201.935H169.188C168.331 201.934 167.509 201.642 166.903 201.123C166.297 200.605 165.956 199.901 165.955 199.167V190.938C165.956 190.205 166.297 189.501 166.903 188.982C167.509 188.464 168.331 188.172 169.188 188.171H187.902C188.759 188.172 189.581 188.464 190.187 188.982C190.793 189.501 191.134 190.205 191.135 190.938V199.167C191.134 199.901 190.793 200.605 190.187 201.123C189.581 201.642 188.759 201.934 187.902 201.935Z" fill="#A8A8A8"/>
<path d="M267.641 201.935H248.926C248.069 201.934 247.247 201.642 246.641 201.123C246.035 200.605 245.694 199.901 245.693 199.167V190.938C245.694 190.205 246.035 189.501 246.641 188.982C247.247 188.464 248.069 188.172 248.926 188.171H267.641C268.498 188.172 269.319 188.464 269.925 188.982C270.531 189.501 270.872 190.205 270.873 190.938V199.167C270.872 199.901 270.531 200.605 269.925 201.123C269.319 201.642 268.498 201.934 267.641 201.935V201.935Z" fill="#A8A8A8"/>
<path d="M225.976 201.935H207.261C206.404 201.934 205.582 201.642 204.976 201.123C204.37 200.605 204.029 199.901 204.028 199.167V190.938C204.029 190.205 204.37 189.501 204.976 188.982C205.582 188.464 206.404 188.172 207.261 188.171H225.976C226.833 188.172 227.654 188.464 228.26 188.982C228.866 189.501 229.207 190.205 229.208 190.938V199.167C229.207 199.901 228.866 200.605 228.26 201.123C227.654 201.642 226.833 201.934 225.976 201.935Z" fill="#A8A8A8"/>
<path d="M197.836 108.69H152.336C151.479 108.689 150.657 108.397 150.051 107.879C149.445 107.36 149.104 106.656 149.104 105.923V90.0613C149.104 89.3276 149.445 88.6242 150.051 88.1054C150.657 87.5866 151.479 87.2948 152.336 87.2939H197.836C198.693 87.2948 199.515 87.5866 200.121 88.1054C200.727 88.6242 201.068 89.3276 201.069 90.0613V105.923C201.068 106.656 200.727 107.36 200.121 107.879C199.515 108.397 198.693 108.689 197.836 108.69V108.69Z" fill="#EE224D"/>
</svg>
