<svg width="362" height="230" viewBox="0 0 362 230" fill="none" xmlns="http://www.w3.org/2000/svg">
<path d="M361.899 0.203979H1.05273V230H361.899V0.203979Z" fill="#E6E6E6"/>
<path d="M351.58 29.0255H11.3711V216.405H351.58V29.0255Z" fill="white"/>
<path d="M361.744 0H0.898438V15.2434H361.744V0Z" fill="white"/>
<path d="M12.2905 10.6184C13.8597 10.6184 15.1318 9.35349 15.1318 7.79315C15.1318 6.2328 13.8597 4.9679 12.2905 4.9679C10.7213 4.9679 9.44922 6.2328 9.44922 7.79315C9.44922 9.35349 10.7213 10.6184 12.2905 10.6184Z" fill="#EE224D"/>
<path d="M23.0757 10.6184C24.6449 10.6184 25.917 9.35349 25.917 7.79315C25.917 6.2328 24.6449 4.9679 23.0757 4.9679C21.5065 4.9679 20.2344 6.2328 20.2344 7.79315C20.2344 9.35349 21.5065 10.6184 23.0757 10.6184Z" fill="#EE224D"/>
<path d="M33.8608 10.6184C35.4301 10.6184 36.7021 9.35349 36.7021 7.79315C36.7021 6.2328 35.4301 4.9679 33.8608 4.9679C32.2916 4.9679 31.0195 6.2328 31.0195 7.79315C31.0195 9.35349 32.2916 10.6184 33.8608 10.6184Z" fill="#EE224D"/>
<path d="M232.85 57.7937H40.3164V165.482H232.85V57.7937Z" fill="#F50057"/>
<path d="M333.034 57.7937H259.715V98.8028H333.034V57.7937Z" fill="#E6E6E6"/>
<path d="M333.034 111.777H259.715V152.786H333.034V111.777Z" fill="#E6E6E6"/>
<path d="M333.034 165.76H259.715V206.769H333.034V165.76Z" fill="#E6E6E6"/>
<path d="M172.963 183.569H40.3164V192.474H172.963V183.569Z" fill="#E6E6E6"/>
<path d="M161.768 111.638L119.791 87.5397V135.736L161.768 111.638L119.791 87.5397V135.736L161.768 111.638Z" fill="white"/>
</svg>
