<svg width="370" height="212" viewBox="0 0 370 212" fill="none" xmlns="http://www.w3.org/2000/svg">
<path d="M369.387 0H0.898438V210.27H369.387V0Z" fill="white"/>
<path d="M362.21 7.12061H8.03906V203.262H362.21V7.12061Z" fill="#F9F9F9"/>
<path d="M120.886 23.2529H51.6152V98.3915H120.886V23.2529Z" fill="#E6E6E6"/>
<path d="M219.758 23.2529H150.487V98.3915H219.758V23.2529Z" fill="#E6E6E6"/>
<path d="M318.631 23.2529H249.36V98.3915H318.631V23.2529Z" fill="#E6E6E6"/>
<path d="M120.886 111.992H51.6152V187.131H120.886V111.992Z" fill="#E6E6E6"/>
<path d="M219.758 111.992H150.487V187.131H219.758V111.992Z" fill="#E6E6E6"/>
<path d="M318.631 111.992H249.36V187.131H318.631V111.992Z" fill="#E6E6E6"/>
<path d="M78.5219 68.687C84.9889 68.687 90.2314 63.4455 90.2314 56.9797C90.2314 50.514 84.9889 45.2725 78.5219 45.2725C72.055 45.2725 66.8125 50.514 66.8125 56.9797C66.8125 63.4455 72.055 68.687 78.5219 68.687Z" fill="#FFB9B9"/>
<path d="M73.9492 65.9437C73.9492 65.9437 75.4129 72.8949 75.4129 73.6266C75.4129 74.3583 82.3654 77.651 82.3654 77.651L88.586 76.5534L90.7816 69.9681C90.7816 69.9681 87.1223 64.4803 87.1223 62.2852L73.9492 65.9437Z" fill="#FFB9B9"/>
<path d="M68.3681 47.5477C68.3681 47.5477 72.0858 39.4942 79.2114 41.3527C86.337 43.2112 90.3645 45.9989 90.6744 48.7867C90.9842 51.5744 90.5195 55.7561 90.5195 55.7561C90.5195 55.7561 89.7449 50.0257 84.788 51.2647C79.831 52.5037 72.0858 51.5744 72.0858 51.5744L70.8466 62.7255C70.8466 62.7255 69.4525 60.7121 67.9034 61.9511C66.3544 63.1901 63.4112 50.0257 68.3681 47.5477Z" fill="#2F2E41"/>
<path d="M115.662 95.578L112.737 82.4051C111.27 78.0141 107.614 74.3588 107.614 74.3588L89.5687 68.0137H89.5641C89.529 69.6085 88.9913 71.1516 88.0276 72.423C87.064 73.6944 85.7236 74.6293 84.1974 75.0944C78.7065 76.9198 74.9263 70.7678 74.9263 70.7678L59.6724 82.4051C59.6724 82.4051 54.9173 86.4328 55.2852 94.1159L54.7793 98.3919H117.069L115.662 95.578Z" fill="#F50057"/>
<path d="M177.131 74.5217C185.908 74.5217 193.024 66.9695 193.024 57.6534C193.024 48.3373 185.908 40.7852 177.131 40.7852C168.353 40.7852 161.237 48.3373 161.237 57.6534C161.237 66.9695 168.353 74.5217 177.131 74.5217Z" fill="#2F2E41"/>
<path d="M191.232 83.1799C195.85 83.1799 199.593 79.4372 199.593 74.8204C199.593 70.2036 195.85 66.4609 191.232 66.4609C186.614 66.4609 182.871 70.2036 182.871 74.8204C182.871 79.4372 186.614 83.1799 191.232 83.1799Z" fill="#2F2E41"/>
<path d="M185.41 63.624L189.889 75.2673L178.542 80.0445L177.546 77.7864L174.062 69.8937L185.41 63.624Z" fill="#FFB9B9"/>
<path d="M176.451 71.2374C181.975 71.2374 186.454 66.7596 186.454 61.2359C186.454 55.7122 181.975 51.2344 176.451 51.2344C170.926 51.2344 166.447 55.7122 166.447 61.2359C166.447 66.7596 170.926 71.2374 176.451 71.2374Z" fill="#FFB9B9"/>
<path d="M168.274 60.139C174.562 55.9443 176.442 54.9415 183.648 56.5618L184.081 46.0498L165.457 49.9559L168.274 60.139Z" fill="#2F2E41"/>
<path d="M208.698 83.9224L208.422 83.9546C208.416 83.9447 208.408 83.9354 208.399 83.927C207.305 82.8327 202.081 80.8418 198.186 79.4625H198.181C195.707 78.5843 193.771 77.9544 193.771 77.9544L189.062 73.1128C187.875 74.4462 185.369 75.4761 182.987 76.2026C181.163 76.7545 179.308 77.1967 177.432 77.5268H177.427L176.452 80.6395C176.452 80.6395 165.401 89.0031 164.509 89.8951H164.505V89.9043C164.433 90.0059 164.404 90.1309 164.422 90.2537V90.2767C163.864 92.9461 163.578 95.665 163.566 98.392H211.688V95.5689C211.688 91.6882 208.698 83.9224 208.698 83.9224Z" fill="#575A89"/>
<path d="M297.187 98.3919H273.393L272.083 85.4673L272.005 84.681L271.844 83.1223L271.186 76.6072L270.363 83.6051L268.625 98.3919H264.302L264.463 93.7894L264.624 89.1226L264.693 87.2421L265.58 61.6594C265.512 57.6054 266.795 53.6439 269.227 50.3992C270.577 48.6418 272.319 47.224 274.315 46.2589C276.31 45.2938 278.503 44.808 280.719 44.8404C282.98 44.833 285.213 45.3493 287.241 46.3489C289.269 47.3484 291.038 48.804 292.409 50.6015C294.923 53.8788 296.268 57.9022 296.231 62.0319L296.64 77.5176L297.187 98.3919Z" fill="#2F2E41"/>
<path d="M280.72 70.814C286.5 70.814 291.186 66.1291 291.186 60.3501C291.186 54.5711 286.5 49.8862 280.72 49.8862C274.94 49.8862 270.254 54.5711 270.254 60.3501C270.254 66.1291 274.94 70.814 280.72 70.814Z" fill="#FBBEBE"/>
<path d="M275.486 67.8241C275.486 67.8241 278.476 77.9142 275.486 80.9039C272.496 83.8936 271.748 85.0147 271.748 85.0147L280.345 96.5997L295.296 78.288C295.296 78.288 284.83 75.2983 287.447 67.0767L275.486 67.8241Z" fill="#FBBEBE"/>
<path d="M307.774 98.3917H298.945L298.797 96.879L298.664 95.4813L302.729 94.9709L307.632 94.3594L307.687 95.9272L307.774 98.3917Z" fill="#FBBEBE"/>
<path d="M308.379 95.8528C308.379 95.8528 306.884 86.5101 305.763 82.773C304.641 79.0359 303.52 79.0359 303.52 79.0359H303.52L303.52 79.035C302.2 77.7154 299.027 77.4809 296.64 77.5177C294.966 77.5361 293.679 77.6832 293.679 77.6832L280.347 91.7435L273.633 82.819V82.8144C273.028 82.8614 272.429 82.9645 271.844 83.1225C271.34 83.2508 270.846 83.412 270.363 83.6053C268.284 84.4937 266.367 85.7229 264.693 87.2422H264.688C263.723 88.1112 263.152 88.7503 263.152 88.7503C261.674 91.8239 260.559 95.0598 259.832 98.3921H302.554L302.651 96.4701V96.4665L308.379 95.8528Z" fill="#F50057"/>
<path d="M271.935 58.6679C278.694 55.0244 281.471 55.1787 289.876 58.6679L292.119 53.205C292.118 52.1764 291.708 51.1902 290.981 50.4628C290.253 49.7355 289.267 49.3264 288.238 49.3252H273.199C272.17 49.3264 271.184 49.7355 270.456 50.4628C269.729 51.1902 269.32 52.1764 269.318 53.205L271.935 58.6679Z" fill="#2F2E41"/>
<path d="M85.3346 130.179C84.7777 130.133 84.2201 130.258 83.7356 130.536C83.276 130.928 82.9069 131.415 82.654 131.964C81.4839 134.018 79.8997 135.807 78.0019 137.218C76.6196 138.23 74.8622 139.492 75.0987 141.359C75.2235 141.976 75.4513 142.567 75.7725 143.107C77.0477 145.681 80.5275 147.67 80.1852 150.607C81.4522 148.486 79.7576 147.438 81.0245 145.317C81.6279 144.307 82.676 143.167 83.5869 143.801C83.8919 144.014 84.0922 144.395 84.4098 144.581C85.1676 145.026 85.9738 144.176 86.6445 143.574C88.9576 141.498 92.247 142.041 95.1254 142.688C96.4843 142.994 97.9768 143.394 98.7802 144.693C99.8363 146.4 97.7767 148.244 97.2563 150.174C97.2138 150.339 97.2118 150.511 97.2505 150.676C97.2891 150.842 97.3673 150.996 97.4782 151.124C97.5892 151.253 97.7296 151.353 97.8876 151.415C98.0456 151.478 98.2163 151.501 98.3853 151.483C99.249 151.398 100.272 151.328 100.323 150.949C101.41 150.988 102.741 150.865 103.207 149.734C103.349 149.286 103.424 148.82 103.43 148.35C103.601 146.45 104.408 144.716 104.942 142.908C105.476 141.099 105.709 138.979 104.807 137.376C104.485 136.842 104.087 136.359 103.625 135.94C98.5076 130.988 91.7789 130.172 85.3346 130.179Z" fill="#2F2E41"/>
<path d="M81.2991 154.316C81.2991 154.316 82.4121 163.589 78.3311 164.331C74.25 165.073 82.0411 177.685 82.0411 177.685L100.591 179.911L96.1394 165.073C96.1394 165.073 93.1713 163.96 95.0264 156.542C96.8814 149.123 81.2991 154.316 81.2991 154.316Z" fill="#FFB9B9"/>
<path d="M89.6458 160.436C95.7929 160.436 100.776 155.454 100.776 149.308C100.776 143.162 95.7929 138.18 89.6458 138.18C83.4988 138.18 78.5156 143.162 78.5156 149.308C78.5156 155.454 83.4988 160.436 89.6458 160.436Z" fill="#FFB9B9"/>
<path d="M70.4883 187.131C72.4565 179.392 75.1744 168.969 75.1744 168.969C75.1744 168.969 76.2321 169.185 77.8968 169.429C80.3286 169.791 82.7792 170.013 85.2364 170.095C88.382 170.183 91.693 169.976 94.2545 169.088C95.2202 168.779 96.1222 168.297 96.9172 167.668C97.2521 167.398 97.5519 167.088 97.8094 166.744C102.261 160.808 104.114 183.434 104.114 183.434L104.459 187.131L70.4883 187.131Z" fill="#F50057"/>
<path d="M106.051 211.04C105.904 211.04 105.757 211.044 105.609 211.054L105.821 210.658C105.895 210.782 105.968 210.911 106.051 211.04Z" fill="#FFB8B8"/>
<path d="M85.8773 133.09C85.4287 133.057 84.9793 133.144 84.5757 133.343C84.2107 133.609 83.9099 133.954 83.6952 134.352C82.7057 135.84 81.4157 137.105 79.9082 138.065C78.783 138.781 77.3524 139.673 77.5449 140.992C77.6494 141.435 77.8354 141.854 78.0934 142.228C79.135 144.066 79.5497 146.192 79.2747 148.286L82.3687 143.79C82.8599 143.076 83.7131 142.27 84.4547 142.719C84.703 142.869 84.866 143.138 85.1245 143.27C85.7414 143.584 86.3976 142.983 86.9437 142.558C88.8266 141.09 91.5044 141.475 93.8475 141.932C94.9537 142.148 96.1687 142.431 96.8226 143.349C97.9093 144.874 96.7746 147.078 97.4088 148.84C97.5863 148.715 97.7371 148.557 97.8522 148.373C97.9672 148.189 98.0443 147.985 98.0787 147.771C98.9633 147.798 100.047 147.711 100.426 146.911C100.541 146.598 100.603 146.267 100.608 145.934C100.747 144.59 101.404 143.365 101.839 142.087C102.274 140.809 102.463 139.31 101.729 138.177C101.46 137.793 101.136 137.451 100.767 137.162C96.6008 133.662 91.1233 133.085 85.8773 133.09Z" fill="#2F2E41"/>
<path d="M84.8224 169.337C82.2839 166.436 80.7755 162.206 80.7065 162.017V162.013C80.7065 162.013 76.6596 159.695 75.5468 161.921C74.4339 164.146 64.0453 169.71 62.9324 169.71C62.9235 169.714 62.9143 169.717 62.9048 169.719C62.4634 169.866 56.9357 171.875 55.5147 179.356C55.1287 181.93 54.9228 184.528 54.8984 187.131H85.1535C85.4662 183.853 85.7007 180.786 85.7927 178.138C85.9261 174.445 85.7973 171.576 85.2363 170.096C85.1466 169.82 85.0062 169.562 84.8224 169.337V169.337Z" fill="#2F2E41"/>
<path d="M110.838 171.425C110.82 171.337 110.806 171.264 110.792 171.195C110.743 170.998 110.659 170.811 110.544 170.643C110.541 170.639 110.54 170.634 110.539 170.629C108.396 167.31 94.6137 162.739 94.6137 162.739L94.0986 164.519C94.0986 164.519 94.163 166.275 94.255 169.089C94.347 171.724 94.4573 175.282 94.5631 179.19C94.6367 181.742 94.7011 184.446 94.7609 187.131H115.377C114.222 181.799 112.705 176.551 110.838 171.425Z" fill="#2F2E41"/>
<path d="M303.727 187.13L305.304 179.424L306.771 178.804L306.78 178.808C306.913 178.859 308.509 179.535 308.509 182.096C308.509 182.611 308.431 184.464 308.302 187.13H303.727Z" fill="#575A89"/>
<path d="M287.159 160.215C294.233 160.215 299.969 154.481 299.969 147.407C299.969 140.334 294.233 134.6 287.159 134.6C280.084 134.6 274.349 140.334 274.349 147.407C274.349 154.481 280.084 160.215 287.159 160.215Z" fill="#FFB8B8"/>
<path d="M295.165 154.878L294.097 176.757L277.551 167.152L279.686 154.878H295.165Z" fill="#FFB8B8"/>
<path d="M299.969 177.825L298.884 187.131H290.197L280.77 169.02L278.112 163.921L276.838 163.089L278.314 162.753L279.478 163.594L292.497 173.025L294.584 166.758L294.64 166.597L295.164 165.02L299.969 177.825Z" fill="#F50057"/>
<path d="M279.42 134.866C279.42 134.866 281.021 126.861 290.095 128.462L289.027 128.996C289.027 128.996 297.567 127.929 296.5 132.731C296.5 132.731 303.439 137.001 301.837 141.804C300.896 144.587 300.182 147.443 299.702 150.342L298.101 148.741C298.101 148.741 296.5 138.068 286.892 139.135C279.687 139.936 276.751 143.338 276.001 145.789C275.655 146.942 275.214 148.064 274.682 149.143L274.082 149.275C274.082 149.275 270.88 137.534 279.42 134.866Z" fill="#2F2E41"/>
<path d="M306.78 178.809L306.771 178.805L299.969 172.487V168.22L294.718 164.082L294.639 166.597L294.097 183.697L285.364 171.687L279.477 163.595L278.42 162.146L278.677 160.79L275.417 164.482L263.616 173.333L262.605 174.092C261.444 175.253 260.374 176.501 259.404 177.825C259.087 178.299 257.643 182.069 255.762 187.131H308.302C308.431 184.465 308.509 182.612 308.509 182.097C308.509 179.536 306.913 178.86 306.78 178.809Z" fill="#2F2E41"/>
<path d="M184.069 133.338C175.388 133.338 168.352 141.146 168.352 150.778V163.015H172.116L174.295 158.481L173.75 163.015H197.946L199.927 158.893L199.431 163.015H202.156V153.407C202.156 142.323 194.058 133.338 184.069 133.338Z" fill="#2F2E41"/>
<path d="M171.385 187.131H161.162L161.065 178.795C161.061 178.707 161.061 178.625 161.061 178.537L163.107 176.234L163.144 176.192L170.957 181.14L171.385 187.131Z" fill="#D0CDE1"/>
<path d="M182.677 161.305C188.857 161.305 193.867 156.296 193.867 150.118C193.867 143.939 188.857 138.931 182.677 138.931C176.498 138.931 171.488 143.939 171.488 150.118C171.488 156.296 176.498 161.305 182.677 161.305Z" fill="#FBBEBE"/>
<path d="M176.264 156.83C176.264 156.83 179.546 173.835 178.054 175.625C176.562 177.415 193.868 172.343 193.868 172.343C193.868 172.343 188.199 160.709 191.183 154.146L176.264 156.83Z" fill="#FBBEBE"/>
<path d="M206.62 168.33H206.615C206.352 167.773 205.896 167.329 205.332 167.08C203.139 166.155 201.249 165.447 199.694 164.909C196.945 163.966 193.946 164.059 191.26 165.171C190.998 165.277 190.741 165.392 190.488 165.521C190.488 165.521 179.547 167.604 178.246 167.342C178.149 167.323 178.048 167.309 177.952 167.3C177.755 167.272 177.557 167.255 177.358 167.25C174.813 167.131 172.288 167.758 170.092 169.052C166.501 171.135 161.175 174.827 161.065 178.422L160.964 178.537L161.065 187.131H209.085C209.182 178.896 209.237 172.707 209.237 172.289C209.237 170.988 206.62 168.33 206.62 168.33Z" fill="#F50057"/>
<path d="M188.537 138.143C187.781 137.127 186.801 136.3 185.673 135.724C184.545 135.149 183.3 134.841 182.033 134.824H181.725C175.775 134.824 170.952 140.207 170.952 146.847V146.847H172.946L173.268 144.397L173.74 146.847H185.563L186.554 144.774L186.306 146.847H188.632C189.718 152.236 188.158 157.626 183.954 163.015H187.916L189.897 158.87L189.402 163.015H196.955L198.441 153.48C198.441 146.339 194.291 140.284 188.537 138.143Z" fill="#2F2E41"/>
<path d="M190.709 139.147C193.96 139.147 196.596 136.511 196.596 133.261C196.596 130.01 193.96 127.375 190.709 127.375C187.458 127.375 184.822 130.01 184.822 133.261C184.822 136.511 187.458 139.147 190.709 139.147Z" fill="#2F2E41"/>
</svg>
