<svg width="60" height="60" viewBox="0 0 60 60" fill="none" xmlns="http://www.w3.org/2000/svg">
<path d="M49.3359 19.3359C49.3359 8.67416 40.6618 0 30 0C19.3382 0 10.6641 8.67416 10.6641 19.3359C10.6641 28.1703 16.6196 35.6396 24.7266 37.9408V45.9375H19.4531C18.7422 45.9375 18.1013 46.366 17.829 47.0229C17.5571 47.6793 17.7077 48.4355 18.2103 48.9381L28.7572 59.485C29.1 59.8283 29.55 60 30 60C30.45 60 30.9 59.8283 31.2428 59.485L41.7897 48.9381C42.2923 48.4355 42.4429 47.6793 42.171 47.0224C41.8987 46.3655 41.2578 45.9375 40.5469 45.9375H35.2734V37.9408C43.3804 35.6396 49.3359 28.1703 49.3359 19.3359V19.3359ZM14.1797 19.3359C14.1797 10.6128 21.2769 3.51562 30 3.51562C38.7231 3.51562 45.8203 10.6128 45.8203 19.3359C45.8203 28.0591 38.7231 35.1562 30 35.1562C21.2769 35.1562 14.1797 28.0591 14.1797 19.3359ZM33.5156 49.4531H36.3029L30 55.7561L23.6971 49.4531H26.4844C27.4553 49.4531 28.2422 48.6662 28.2422 47.6953V38.5913C28.8213 38.6435 29.4072 38.6719 30 38.6719C30.5928 38.6719 31.1787 38.6435 31.7578 38.5913V47.6953C31.7578 48.6662 32.5447 49.4531 33.5156 49.4531Z" fill="white"/>
<path d="M31.7576 29.8828V27.3143C33.8134 26.5938 35.292 24.6355 35.292 22.3366C35.292 19.4289 32.9263 17.0631 30.0186 17.0631C29.0495 17.0631 28.2607 16.2749 28.2607 15.3053C28.2607 14.3362 29.0495 13.5475 30.0186 13.5475C30.9881 13.5475 31.7764 14.3362 31.7764 15.3053C31.7764 16.2762 32.5637 17.0631 33.5342 17.0631C34.5051 17.0631 35.292 16.2762 35.292 15.3053C35.292 13.0069 33.8134 11.0486 31.7576 10.3281V8.78906C31.7576 7.81815 30.9707 7.03125 29.9998 7.03125C29.0289 7.03125 28.242 7.81815 28.242 8.78906V10.3409C26.2058 11.0715 24.7451 13.0206 24.7451 15.3053C24.7451 18.213 27.1108 20.5788 30.0186 20.5788C30.9881 20.5788 31.7764 21.3675 31.7764 22.3366C31.7764 23.3061 30.9881 24.0944 30.0186 24.0944C29.0495 24.0944 28.2607 23.3061 28.2607 22.3366C28.2607 21.3657 27.4738 20.5788 26.5029 20.5788C25.5325 20.5788 24.7451 21.3657 24.7451 22.3366C24.7451 24.6213 26.2058 26.5704 28.242 27.3015V29.8828C28.242 30.8537 29.0289 31.6406 29.9998 31.6406C30.9707 31.6406 31.7576 30.8537 31.7576 29.8828Z" fill="white"/>
</svg>
