<svg width="60" height="60" viewBox="0 0 60 60" fill="none" xmlns="http://www.w3.org/2000/svg">
<path d="M54 0C50.691 0 48 2.691 48 6C48 8.967 50.167 11.431 53 11.91V14H41C40.448 14 40 14.448 40 15V18H31V11.91C33.833 11.432 36 8.968 36 6C36 2.691 33.309 0 30 0C26.691 0 24 2.691 24 6C24 8.967 26.167 11.431 29 11.91V18H20V15C20 14.448 19.552 14 19 14H7V11.91C9.833 11.432 12 8.968 12 6C12 2.691 9.309 0 6 0C2.691 0 0 2.691 0 6C0 8.967 2.167 11.431 5 11.91V15C5 15.552 5.448 16 6 16H18V18H13C12.448 18 12 18.448 12 19V25C12 25.36 12.193 25.692 12.506 25.87L26 33.537V40C26 40.369 26.203 40.708 26.528 40.882C26.676 40.961 26.838 41 27 41C27.194 41 27.387 40.943 27.555 40.832L33.555 36.832C33.833 36.646 34 36.334 34 36V33.537L47.494 25.87C47.807 25.692 48 25.36 48 25V19C48 18.448 47.552 18 47 18H42V16H54C54.552 16 55 15.552 55 15V11.91C57.833 11.432 60 8.968 60 6C60 2.691 57.309 0 54 0ZM2 6C2 3.794 3.794 2 6 2C8.206 2 10 3.794 10 6C10 8.206 8.206 10 6 10C3.794 10 2 8.206 2 6ZM26 6C26 3.794 27.794 2 30 2C32.206 2 34 3.794 34 6C34 8.206 32.206 10 30 10C27.794 10 26 8.206 26 6ZM46 20V24.418L32.506 32.085C32.193 32.263 32 32.595 32 32.955V35.465L28 38.132V32.955C28 32.595 27.807 32.263 27.494 32.085L14 24.418V20H46ZM54 10C51.794 10 50 8.206 50 6C50 3.794 51.794 2 54 2C56.206 2 58 3.794 58 6C58 8.206 56.206 10 54 10Z" fill="white"/>
<path d="M30 42C25.038 42 21 46.038 21 51C21 55.962 25.038 60 30 60C34.962 60 39 55.962 39 51C39 46.038 34.962 42 30 42ZM29 54C28.449 54 28 53.551 28 53H26C26 54.654 27.346 56 29 56V57.92C25.613 57.432 23 54.519 23 51C23 47.481 25.613 44.568 29 44.08V46C27.346 46 26 47.346 26 49C26 50.654 27.346 52 29 52H31C31.551 52 32 52.449 32 53C32 53.551 31.551 54 31 54H29ZM31 57.92V56C32.654 56 34 54.654 34 53C34 51.346 32.654 50 31 50H29C28.449 50 28 49.551 28 49C28 48.449 28.449 48 29 48H31C31.551 48 32 48.449 32 49H34C34 47.346 32.654 46 31 46V44.08C34.387 44.568 37 47.481 37 51C37 54.519 34.387 57.432 31 57.92Z" fill="white"/>
</svg>
