<svg width="60" height="60" viewBox="0 0 60 60" fill="none" xmlns="http://www.w3.org/2000/svg">
<path d="M56.4844 1.875H3.51562C1.57711 1.875 0 3.45211 0 5.39062V40.5469C0 42.4854 1.57711 44.0625 3.51562 44.0625H21.9727V51.0938H18.8672C17.8964 51.0938 17.1094 51.8808 17.1094 52.8516C17.1094 53.8223 17.8964 54.6094 18.8672 54.6094H31.8001C32.0843 56.5943 33.789 58.125 35.8438 58.125H48.7656C51.0185 58.125 52.8516 56.285 52.8516 54.0234V44.0625H56.4844C58.4229 44.0625 60 42.4854 60 40.5469V5.39062C60 3.45211 58.4229 1.875 56.4844 1.875ZM56.4844 5.39062V33.5156H52.8516V27.0703C52.8516 24.8087 51.0185 22.9688 48.7656 22.9688H35.8438C33.5909 22.9688 31.7578 24.8087 31.7578 27.0703V33.5156H3.51562V5.39062H56.4844ZM49.3359 30H35.2734V27.0703C35.2734 26.7472 35.5294 26.4844 35.8438 26.4844H48.7656C49.0801 26.4844 49.3359 26.7472 49.3359 27.0703V30ZM35.2734 33.5156H49.3359V47.5781H35.2734V33.5156ZM3.51562 37.0312H31.7578V40.5469H3.51562V37.0312ZM25.4883 44.0625H31.7578V51.0938H25.4883V44.0625ZM48.7656 54.6094H35.8438C35.5293 54.6094 35.2734 54.3465 35.2734 54.0234V51.0938H49.3359V54.0234C49.3359 54.3465 49.08 54.6094 48.7656 54.6094V54.6094ZM52.8516 40.5469V37.0312H56.4844V40.5469H52.8516Z" fill="white"/>
</svg>
