<svg width="159" height="158" viewBox="0 0 159 158" fill="none" xmlns="http://www.w3.org/2000/svg">
<path d="M131.683 91.9904L64.1826 130.962C54.1826 136.735 41.6826 129.518 41.6826 117.971L41.6826 40.0288C41.6826 28.4818 54.1826 21.265 64.1826 27.0385L131.683 66.0096C141.683 71.7831 141.683 86.2169 131.683 91.9904Z" stroke="#EE224D" stroke-width="4"/>
<path d="M99.1188 68.8724C98.6434 67.1052 97.2501 65.7121 95.4832 65.2363C92.2553 64.3531 79.3432 64.3531 79.3432 64.3531C79.3432 64.3531 66.4317 64.3531 63.2038 65.2028C61.4708 65.6782 60.0436 67.1054 59.5682 68.8724C58.7188 72.1 58.7188 78.7939 58.7188 78.7939C58.7188 78.7939 58.7188 85.5214 59.5682 88.7153C60.0441 90.4823 61.4369 91.8753 63.204 92.3512C66.4657 93.2346 79.3438 93.2346 79.3438 93.2346C79.3438 93.2346 92.2553 93.2346 95.4832 92.3849C97.2504 91.9093 98.6434 90.5163 99.1193 88.7493C99.9685 85.5214 99.9685 78.8278 99.9685 78.8278C99.9685 78.8278 100.002 72.1 99.1188 68.8724V68.8724ZM75.2323 84.9778V72.6099L85.9693 78.7939L75.2323 84.9778Z" fill="#EE224D"/>
</svg>
