<svg width="159" height="158" viewBox="0 0 159 158" fill="none" xmlns="http://www.w3.org/2000/svg">
<path d="M92.173 26.5L131.144 94C136.918 104 129.701 116.5 118.154 116.5L40.2115 116.5C28.6645 116.5 21.4476 104 27.2211 94L66.1922 26.5C71.9657 16.5 86.3995 16.5 92.173 26.5Z" stroke="#EE224D" stroke-width="4"/>
<g clip-path="url(#clip0)">
<path d="M86.5105 64.4884H90.5273V57.4925C89.8343 57.3971 87.451 57.1826 84.6753 57.1826C78.8838 57.1826 74.9165 60.8255 74.9165 67.5208V73.6826H68.5255V81.5036H74.9165V101.183H82.7522V81.5054H88.8847L89.8582 73.6844H82.7503V68.2963C82.7522 66.0358 83.3608 64.4884 86.5105 64.4884V64.4884Z" fill="#EE224D"/>
</g>
<defs>
<clipPath id="clip0">
<rect width="44" height="44" fill="white" transform="translate(57.1826 57.1826)"/>
</clipPath>
</defs>
</svg>
