<svg width="158" height="158" viewBox="0 0 158 158" fill="none" xmlns="http://www.w3.org/2000/svg">
<path d="M26.5 66.0096L94 27.0385C104 21.265 116.5 28.4818 116.5 40.0288L116.5 117.971C116.5 129.518 104 136.735 94 130.962L26.5 91.9904C16.5 86.2169 16.5 71.7831 26.5 66.0096Z" stroke="#EE224D" stroke-width="4"/>
<path d="M87.25 57H70.75C63.1573 57 57 63.1573 57 70.75V87.25C57 94.8427 63.1573 101 70.75 101H87.25C94.8427 101 101 94.8427 101 87.25V70.75C101 63.1573 94.8427 57 87.25 57ZM96.875 87.25C96.875 92.5575 92.5575 96.875 87.25 96.875H70.75C65.4425 96.875 61.125 92.5575 61.125 87.25V70.75C61.125 65.4425 65.4425 61.125 70.75 61.125H87.25C92.5575 61.125 96.875 65.4425 96.875 70.75V87.25Z" fill="#EE224D"/>
<path d="M79 68C72.9252 68 68 72.9252 68 79C68 85.0748 72.9252 90 79 90C85.0748 90 90 85.0748 90 79C90 72.9252 85.0748 68 79 68ZM79 85.875C75.2105 85.875 72.125 82.7895 72.125 79C72.125 75.2078 75.2105 72.125 79 72.125C82.7895 72.125 85.875 75.2078 85.875 79C85.875 82.7895 82.7895 85.875 79 85.875Z" fill="#EE224D"/>
<path d="M90.8251 68.6407C91.6346 68.6407 92.2909 67.9845 92.2909 67.175C92.2909 66.3655 91.6346 65.7092 90.8251 65.7092C90.0156 65.7092 89.3594 66.3655 89.3594 67.175C89.3594 67.9845 90.0156 68.6407 90.8251 68.6407Z" fill="#EE224D"/>
</svg>
