<svg width="578" height="379" viewBox="0 0 578 379" fill="none" xmlns="http://www.w3.org/2000/svg">
<g opacity="0.5">
<path opacity="0.5" d="M86.694 183.568C134.233 183.568 172.772 143.546 172.772 94.1754C172.772 44.805 134.233 4.78247 86.694 4.78247C39.1547 4.78247 0.616455 44.805 0.616455 94.1754C0.616455 143.546 39.1547 183.568 86.694 183.568Z" fill="url(#paint0_linear)"/>
</g>
<path d="M86.6938 181.192C133.228 181.192 170.952 142.016 170.952 93.6892C170.952 45.3626 133.228 6.18616 86.6938 6.18616C40.1595 6.18616 2.43604 45.3626 2.43604 93.6892C2.43604 142.016 40.1595 181.192 86.6938 181.192Z" fill="#D2D2D2"/>
<path d="M86.9317 181.439C103.397 181.467 119.506 176.461 133.25 167.046C130.145 149.428 118.328 148.417 118.328 148.417H53.1811C53.1811 148.417 42.0398 149.366 38.5488 165.58C52.7132 175.927 69.6143 181.467 86.9317 181.439V181.439Z" fill="#EE224D"/>
<path d="M86.0479 130.553C106.677 130.553 123.401 113.185 123.401 91.7609C123.401 70.3368 106.677 52.9691 86.0479 52.9691C65.4183 52.9691 48.6948 70.3368 48.6948 91.7609C48.6948 113.185 65.4183 130.553 86.0479 130.553Z" fill="#333333"/>
<path opacity="0.1" d="M72.9236 126.943H98.9868V148.595C98.9868 152.183 97.6142 155.624 95.171 158.162C92.7278 160.699 89.4141 162.124 85.9589 162.124C82.5037 162.124 79.19 160.699 76.7468 158.162C74.3036 155.624 72.931 152.183 72.931 148.595V126.943H72.9236Z" fill="black"/>
<path d="M75.4117 125.94H96.4984C97.1583 125.94 97.7912 126.212 98.2578 126.697C98.7245 127.181 98.9866 127.839 98.9866 128.524V147.592C98.9866 151.18 97.6141 154.621 95.1709 157.159C92.7277 159.696 89.414 161.121 85.9588 161.121C82.5036 161.121 79.1899 159.696 76.7467 157.159C74.3035 154.621 72.9309 151.18 72.9309 147.592V128.524C72.9309 127.84 73.192 127.184 73.6571 126.699C74.1221 126.215 74.7531 125.942 75.4117 125.94Z" fill="#FDB797"/>
<path opacity="0.1" d="M72.9753 137.163C81.3749 140.423 90.6212 140.451 99.0385 137.24V133.916H72.9753V137.163Z" fill="black"/>
<path d="M86.0479 138.976C106.677 138.976 123.401 121.608 123.401 100.184C123.401 78.7601 106.677 61.3925 86.0479 61.3925C65.4183 61.3925 48.6948 78.7601 48.6948 100.184C48.6948 121.608 65.4183 138.976 86.0479 138.976Z" fill="#FDB797"/>
<path d="M63.4163 84.1862C63.8545 82.5123 64.4041 80.6688 65.8525 79.7971C66.9963 79.1029 68.415 79.2109 69.7371 79.2803C80.0614 79.8666 90.2965 77.4213 100.338 74.8682C106.08 73.4103 112.223 71.6362 115.936 66.8306C119.65 62.025 114.807 46.9218 109.155 45.14C105.441 43.9598 101.133 46.1582 97.6126 44.4304C96.0454 43.659 94.8941 42.2166 93.5423 41.0904C90.7718 38.7763 87.214 37.8429 83.7677 36.9636C79.742 35.93 75.3894 34.9195 71.5643 36.5779C68.5933 37.8584 66.4244 40.5658 63.6094 42.1703C58.2542 45.2557 51.7254 43.821 45.5902 43.8056C43.5179 43.8056 41.0446 44.2375 40.2201 46.2122C39.6631 47.5544 40.1087 49.0816 40.1681 50.5395C40.3464 55.1677 36.6698 58.7699 33.5873 62.1099C30.5049 65.4499 27.5933 70.2169 29.5394 74.3668C30.2821 75.9481 31.6413 77.1437 32.4138 78.7095C33.7433 81.4247 33.0749 84.703 33.5576 87.7036C34.041 89.9804 34.8603 92.166 35.9864 94.183C38.2741 98.8111 49.7645 123.726 55.0455 117.393C57.6005 114.308 58.0165 105.391 59.0489 101.38C60.475 95.6151 61.9308 89.8839 63.4163 84.1862Z" fill="#333333"/>
<path d="M59.4722 105.537C61.392 105.537 62.9482 102.509 62.9482 98.7726C62.9482 95.0364 61.392 92.0077 59.4722 92.0077C57.5524 92.0077 55.9961 95.0364 55.9961 98.7726C55.9961 102.509 57.5524 105.537 59.4722 105.537Z" fill="#FDB797"/>
<g opacity="0.5">
<path opacity="0.5" d="M286.019 378.128C333.559 378.128 372.097 338.105 372.097 288.735C372.097 239.365 333.559 199.342 286.019 199.342C238.48 199.342 199.942 239.365 199.942 288.735C199.942 338.105 238.48 378.128 286.019 378.128Z" fill="url(#paint1_linear)"/>
</g>
<path d="M286.183 375.667C332.717 375.667 370.44 336.491 370.44 288.164C370.44 239.838 332.717 200.661 286.183 200.661C239.648 200.661 201.925 239.838 201.925 288.164C201.925 336.491 239.648 375.667 286.183 375.667Z" fill="#D2D2D2"/>
<path d="M286.257 376.015C302.712 376.037 318.809 371.031 332.545 361.621C329.44 344.003 317.623 342.993 317.623 342.993H252.499C252.499 342.993 241.357 343.941 237.866 360.155C252.033 370.504 268.937 376.044 286.257 376.015V376.015Z" fill="#EE224D"/>
<path d="M285.365 328.561C307.829 328.561 326.039 309.649 326.039 286.321C326.039 262.993 307.829 244.081 285.365 244.081C262.902 244.081 244.692 262.993 244.692 286.321C244.692 309.649 262.902 328.561 285.365 328.561Z" fill="#F55F44"/>
<path opacity="0.1" d="M272.241 321.503H298.304V343.155C298.304 346.743 296.932 350.184 294.488 352.721C292.045 355.259 288.732 356.684 285.276 356.684C281.821 356.684 278.507 355.259 276.064 352.721C273.621 350.184 272.248 346.743 272.248 343.155V321.503H272.241Z" fill="black"/>
<path d="M274.729 320.5H295.816C296.143 320.5 296.466 320.566 296.768 320.696C297.07 320.826 297.344 321.017 297.575 321.256C297.806 321.496 297.99 321.781 298.115 322.095C298.24 322.408 298.304 322.744 298.304 323.084V342.152C298.304 343.928 297.967 345.688 297.312 347.329C296.658 348.971 295.698 350.462 294.488 351.719C293.279 352.975 291.842 353.972 290.262 354.652C288.681 355.331 286.987 355.681 285.276 355.681V355.681C283.565 355.681 281.871 355.331 280.291 354.652C278.71 353.972 277.274 352.975 276.064 351.719C274.854 350.462 273.895 348.971 273.24 347.329C272.585 345.688 272.248 343.928 272.248 342.152V323.084C272.248 322.398 272.51 321.741 272.977 321.256C273.444 320.772 274.077 320.5 274.737 320.5H274.729Z" fill="#FDA57D"/>
<path opacity="0.1" d="M272.293 331.723C280.693 334.983 289.939 335.011 298.356 331.8V328.476H272.293V331.723Z" fill="black"/>
<path d="M285.365 333.536C305.995 333.536 322.718 316.168 322.718 294.744C322.718 273.32 305.995 255.952 285.365 255.952C264.736 255.952 248.012 273.32 248.012 294.744C248.012 316.168 264.736 333.536 285.365 333.536Z" fill="#FDA57D"/>
<path d="M285.314 258.969C293.616 258.969 300.347 251.979 300.347 243.356C300.347 234.734 293.616 227.744 285.314 227.744C277.011 227.744 270.28 234.734 270.28 243.356C270.28 251.979 277.011 258.969 285.314 258.969Z" fill="#F55F44"/>
<path d="M285.314 238.234C290.765 238.234 295.185 233.645 295.185 227.983C295.185 222.321 290.765 217.732 285.314 217.732C279.862 217.732 275.442 222.321 275.442 227.983C275.442 233.645 279.862 238.234 285.314 238.234Z" fill="#F55F44"/>
<path d="M278.792 251.918C275.265 250.275 272.483 247.284 271.024 243.567C269.564 239.849 269.54 235.691 270.956 231.955C270.852 232.171 270.748 232.395 270.651 232.619C269.843 234.49 269.398 236.508 269.341 238.557C269.284 240.607 269.616 242.648 270.318 244.565C271.021 246.481 272.08 248.235 273.435 249.726C274.79 251.218 276.415 252.417 278.216 253.257C280.018 254.096 281.961 254.558 283.935 254.618C285.908 254.677 287.874 254.332 289.719 253.603C291.565 252.873 293.253 251.773 294.69 250.366C296.126 248.959 297.281 247.271 298.089 245.4C298.185 245.177 298.274 244.953 298.364 244.721C296.618 248.305 293.611 251.052 289.966 252.392C286.321 253.732 282.319 253.563 278.792 251.918Z" fill="#F55F44"/>
<path opacity="0.1" d="M258.768 259.462C258.768 259.462 274.507 292.631 318.931 273.347L308.591 256.508L290.268 249.674L258.768 259.462Z" fill="black"/>
<path d="M258.768 258.968C258.768 258.968 274.507 292.137 318.931 272.853L308.591 256.014L290.268 249.18L258.768 258.968Z" fill="#F55F44"/>
<path d="M270.896 246.889C280.582 246.098 290.312 246.098 299.998 246.889C299.998 246.889 278.502 248.964 270.896 246.889Z" fill="#333333"/>
<path d="M287.572 217.107C286.825 217.078 286.077 217.138 285.343 217.284H285.915C288.346 217.365 290.663 218.376 292.42 220.122C294.177 221.869 295.251 224.228 295.435 226.747C295.619 229.266 294.901 231.766 293.418 233.768C291.935 235.77 289.792 237.133 287.401 237.594C290.017 237.619 292.535 236.563 294.402 234.659C296.268 232.756 297.33 230.16 297.354 227.443C297.377 224.726 296.361 222.111 294.528 220.173C292.694 218.234 290.195 217.131 287.579 217.107H287.572Z" fill="#F55F44"/>
<path d="M248.005 301.47C249.925 301.47 251.481 298.442 251.481 294.705C251.481 290.969 249.925 287.941 248.005 287.941C246.085 287.941 244.529 290.969 244.529 294.705C244.529 298.442 246.085 301.47 248.005 301.47Z" fill="#FDA57D"/>
<path d="M322.719 301.47C324.639 301.47 326.195 298.442 326.195 294.705C326.195 290.969 324.639 287.941 322.719 287.941C320.799 287.941 319.243 290.969 319.243 294.705C319.243 298.442 320.799 301.47 322.719 301.47Z" fill="#FDA57D"/>
<path d="M256.413 259.948L263.699 256.045L265.341 262.301L260.877 265.455L256.413 259.948Z" fill="#F55F44"/>
<g opacity="0.5">
<path opacity="0.5" d="M285.937 179.179C333.477 179.179 372.015 139.157 372.015 89.7862C372.015 40.4159 333.477 0.393311 285.937 0.393311C238.398 0.393311 199.86 40.4159 199.86 89.7862C199.86 139.157 238.398 179.179 285.937 179.179Z" fill="url(#paint2_linear)"/>
</g>
<path d="M285.937 176.803C332.472 176.803 370.195 137.627 370.195 89.3003C370.195 40.9737 332.472 1.79724 285.937 1.79724C239.403 1.79724 201.679 40.9737 201.679 89.3003C201.679 137.627 239.403 176.803 285.937 176.803Z" fill="#D2D2D2"/>
<path d="M253.071 90.0792C253.071 90.0792 243.519 138.953 238.305 136.245C238.305 136.245 288.589 181.354 332.991 136.245C332.991 136.245 325.17 101.804 313.88 90.0792H253.071Z" fill="#333333"/>
<path d="M286.175 177.065C302.64 177.094 318.749 172.088 332.493 162.672C329.388 145.054 317.571 144.043 317.571 144.043H252.417C252.417 144.043 241.276 144.992 237.785 161.206C251.951 171.555 268.855 177.095 286.175 177.065V177.065Z" fill="#EE224D"/>
<path d="M285.284 126.163C305.913 126.163 322.637 108.796 322.637 87.3718C322.637 65.9478 305.913 48.5802 285.284 48.5802C264.654 48.5802 247.931 65.9478 247.931 87.3718C247.931 108.796 264.654 126.163 285.284 126.163Z" fill="#333333"/>
<path opacity="0.1" d="M272.159 122.553H298.222V144.206C298.222 147.79 296.853 151.228 294.415 153.764C291.976 156.301 288.668 157.729 285.217 157.735C281.762 157.735 278.448 156.31 276.005 153.772C273.561 151.235 272.189 147.794 272.189 144.206V122.553H272.159Z" fill="black"/>
<path d="M274.648 121.551H295.734C296.394 121.551 297.027 121.823 297.494 122.308C297.96 122.792 298.223 123.449 298.223 124.135V143.203C298.223 146.787 296.853 150.225 294.415 152.762C291.976 155.298 288.668 156.726 285.217 156.732C281.762 156.732 278.448 155.307 276.005 152.77C273.562 150.232 272.189 146.791 272.189 143.203V124.127C272.191 123.448 272.45 122.798 272.91 122.316C273.37 121.834 273.994 121.559 274.648 121.551Z" fill="#FDB797"/>
<path opacity="0.1" d="M272.211 132.774C280.611 136.034 289.857 136.062 298.274 132.851V129.527H272.211V132.774Z" fill="black"/>
<path d="M285.284 134.579C305.913 134.579 322.637 117.211 322.637 95.7874C322.637 74.3634 305.913 56.9957 285.284 56.9957C264.654 56.9957 247.931 74.3634 247.931 95.7874C247.931 117.211 264.654 134.579 285.284 134.579Z" fill="#FDB797"/>
<path d="M249.58 81.0546H320.81C320.81 81.0546 314.727 51.1875 287.802 53.0928C260.877 54.9981 249.58 81.0546 249.58 81.0546Z" fill="#333333"/>
<path d="M248.703 100.902C250.623 100.902 252.179 97.8729 252.179 94.1367C252.179 90.4006 250.623 87.3718 248.703 87.3718C246.783 87.3718 245.227 90.4006 245.227 94.1367C245.227 97.8729 246.783 100.902 248.703 100.902Z" fill="#FDB797"/>
<path d="M321.671 100.902C323.591 100.902 325.147 97.8729 325.147 94.1367C325.147 90.4006 323.591 87.3718 321.671 87.3718C319.751 87.3718 318.195 90.4006 318.195 94.1367C318.195 97.8729 319.751 100.902 321.671 100.902Z" fill="#FDB797"/>
<path opacity="0.1" d="M249.58 82.0573H320.81C320.81 82.0573 314.727 52.1901 287.802 54.0954C260.877 56.0006 249.58 82.0573 249.58 82.0573Z" fill="black"/>
<g opacity="0.5">
<path opacity="0.5" d="M491.13 178.786C538.67 178.786 577.208 138.763 577.208 89.3928C577.208 40.0225 538.67 0 491.13 0C443.591 0 405.053 40.0225 405.053 89.3928C405.053 138.763 443.591 178.786 491.13 178.786Z" fill="url(#paint3_linear)"/>
</g>
<path d="M491.294 176.317C537.828 176.317 575.552 137.141 575.552 88.8143C575.552 40.4877 537.828 1.31128 491.294 1.31128C444.759 1.31128 407.036 40.4877 407.036 88.8143C407.036 137.141 444.759 176.317 491.294 176.317Z" fill="#D2D2D2"/>
<path d="M491.368 176.672C507.833 176.7 523.942 171.694 537.686 162.279C534.574 144.653 522.764 143.643 522.764 143.643H457.617C457.617 143.643 446.476 144.591 442.985 160.805C457.148 171.155 474.05 176.698 491.368 176.672V176.672Z" fill="#EE224D"/>
<path d="M490.484 129.21C512.947 129.21 531.157 110.299 531.157 86.9708C531.157 63.6425 512.947 44.7312 490.484 44.7312C468.021 44.7312 449.811 63.6425 449.811 86.9708C449.811 110.299 468.021 129.21 490.484 129.21Z" fill="#72351C"/>
<path opacity="0.1" d="M477.352 122.152H503.415V143.804C503.418 145.583 503.083 147.345 502.43 148.989C501.777 150.633 500.817 152.127 499.607 153.386C498.397 154.645 496.96 155.644 495.378 156.325C493.796 157.006 492.1 157.357 490.387 157.357V157.357C486.932 157.357 483.618 155.932 481.175 153.394C478.732 150.857 477.359 147.416 477.359 143.828V122.152H477.352Z" fill="black"/>
<path d="M479.818 121.15H500.905C501.565 121.15 502.198 121.422 502.664 121.907C503.131 122.391 503.393 123.048 503.393 123.734V142.802C503.393 146.39 502.02 149.831 499.577 152.369C497.134 154.906 493.82 156.331 490.365 156.331C486.91 156.331 483.596 154.906 481.153 152.369C478.71 149.831 477.337 146.39 477.337 142.802V123.734C477.337 123.048 477.599 122.391 478.066 121.907C478.533 121.422 479.165 121.15 479.825 121.15H479.818Z" fill="#FDA57D"/>
<path opacity="0.1" d="M477.382 132.373C485.781 135.633 495.028 135.661 503.445 132.45V129.125H477.382V132.373Z" fill="black"/>
<path d="M490.484 134.186C511.113 134.186 527.837 116.818 527.837 95.394C527.837 73.97 511.113 56.6024 490.484 56.6024C469.854 56.6024 453.131 73.97 453.131 95.394C453.131 116.818 469.854 134.186 490.484 134.186Z" fill="#FDA57D"/>
<path opacity="0.1" d="M463.879 60.1121C463.879 60.1121 479.618 93.2804 524.042 73.9965L513.703 57.1578L495.379 50.3236L463.879 60.1121Z" fill="black"/>
<path d="M463.879 59.626C463.879 59.626 479.618 92.7945 524.042 73.5105L513.703 56.6717L495.379 49.8374L463.879 59.626Z" fill="#72351C"/>
<path d="M463.737 57.3814C464.799 53.9696 466.633 50.872 469.085 48.3488C476.431 40.8049 488.479 39.2159 494.658 30.6075C494.994 31.2168 495.203 31.8924 495.272 32.5907C495.341 33.289 495.268 33.9946 495.058 34.6618C494.848 35.329 494.505 35.9432 494.053 36.4645C493.6 36.9859 493.047 37.4029 492.43 37.6886C498.372 37.6501 505.213 37.1101 508.555 32.05C509.382 34.0496 509.646 36.2519 509.316 38.401C508.986 40.5502 508.076 42.558 506.691 44.1912C511.935 44.438 517.535 48.1328 517.877 53.5786C518.1 57.204 515.916 60.6365 513.041 62.7192C510.167 64.8019 506.706 65.7352 503.289 66.5066C493.321 68.8207 457.231 78.3932 463.737 57.3814Z" fill="#72351C"/>
<path d="M527.837 95.7334H526.849L507.582 113.559C489.013 104.535 475.391 113.559 475.391 113.559L455.188 96.4816L453.153 96.7439C453.429 106.925 457.549 116.586 464.625 123.639C471.701 130.693 481.164 134.573 490.971 134.442C500.778 134.312 510.142 130.181 517.041 122.941C523.94 115.701 527.821 105.934 527.844 95.7488L527.837 95.7334ZM490.432 120.378C483.168 120.378 477.278 118.836 477.278 116.961C477.278 115.087 483.168 113.544 490.432 113.544C497.696 113.544 503.586 115.087 503.586 116.961C503.586 118.836 497.696 120.378 490.425 120.378H490.432Z" fill="#72351C"/>
<path d="M453.116 102.12C455.036 102.12 456.592 99.0916 456.592 95.3555C456.592 91.6194 455.036 88.5907 453.116 88.5907C451.196 88.5907 449.64 91.6194 449.64 95.3555C449.64 99.0916 451.196 102.12 453.116 102.12Z" fill="#FDA57D"/>
<path d="M527.83 102.12C529.75 102.12 531.306 99.0916 531.306 95.3555C531.306 91.6194 529.75 88.5907 527.83 88.5907C525.91 88.5907 524.354 91.6194 524.354 95.3555C524.354 99.0916 525.91 102.12 527.83 102.12Z" fill="#FDA57D"/>
<g opacity="0.5">
<path opacity="0.5" d="M86.0776 372.273C133.617 372.273 172.155 332.251 172.155 282.881C172.155 233.51 133.617 193.488 86.0776 193.488C38.5382 193.488 0 233.51 0 282.881C0 332.251 38.5382 372.273 86.0776 372.273Z" fill="url(#paint4_linear)"/>
</g>
<path d="M86.241 369.813C132.775 369.813 170.499 330.636 170.499 282.31C170.499 233.983 132.775 194.807 86.241 194.807C39.7067 194.807 1.98315 233.983 1.98315 282.31C1.98315 330.636 39.7067 369.813 86.241 369.813Z" fill="#D2D2D2"/>
<path d="M86.3153 370.16C102.778 370.186 118.884 365.181 132.626 355.766C129.521 338.148 117.704 337.138 117.704 337.138H52.5275C52.5275 337.138 41.3862 338.087 37.8953 354.301C52.07 364.655 68.9852 370.196 86.3153 370.16V370.16Z" fill="#EE224D"/>
<path d="M85.4241 322.706C107.887 322.706 126.097 303.795 126.097 280.466C126.097 257.138 107.887 238.227 85.4241 238.227C62.961 238.227 44.751 257.138 44.751 280.466C44.751 303.795 62.961 322.706 85.4241 322.706Z" fill="#333333"/>
<path opacity="0.1" d="M72.2993 315.648H98.3625V337.3C98.3625 340.888 96.9899 344.33 94.5467 346.867C92.1035 349.404 88.7898 350.83 85.3346 350.83V350.83C81.8794 350.83 78.5657 349.404 76.1225 346.867C73.6793 344.33 72.3067 340.888 72.3067 337.3V315.648H72.2993Z" fill="black"/>
<path d="M74.7875 314.645H95.8743C96.5342 314.645 97.1671 314.917 97.6337 315.402C98.1003 315.887 98.3625 316.544 98.3625 317.229V336.313C98.3625 339.901 96.9899 343.342 94.5467 345.88C92.1035 348.417 88.7898 349.842 85.3346 349.842C83.6232 349.843 81.9283 349.494 80.3468 348.815C78.7653 348.135 77.3283 347.139 76.1177 345.882C74.9072 344.626 73.9469 343.134 73.2917 341.492C72.6365 339.85 72.2993 338.09 72.2993 336.313V317.222C72.2993 316.536 72.5615 315.879 73.0281 315.394C73.4947 314.91 74.1276 314.637 74.7875 314.637V314.645Z" fill="#FDB797"/>
<path opacity="0.1" d="M72.3516 325.868C80.7511 329.129 89.9974 329.156 98.4147 325.946V322.598H72.3516V325.868Z" fill="black"/>
<path d="M85.4238 327.681C106.053 327.681 122.777 310.314 122.777 288.89C122.777 267.465 106.053 250.098 85.4238 250.098C64.7943 250.098 48.0708 267.465 48.0708 288.89C48.0708 310.314 64.7943 327.681 85.4238 327.681Z" fill="#FDB797"/>
<path opacity="0.1" d="M58.8259 253.6C58.8259 253.6 74.5649 286.768 118.989 267.484L108.65 250.646L90.3261 243.811L58.8259 253.6Z" fill="black"/>
<path d="M58.8259 253.114C58.8259 253.114 74.5649 286.282 118.989 266.998L108.65 250.16L90.3261 243.325L58.8259 253.114Z" fill="#333333"/>
<path d="M58.6849 250.861C59.746 247.45 61.5799 244.352 64.0327 241.829C71.3785 234.285 83.426 232.696 89.6057 224.088C89.9414 224.697 90.1505 225.372 90.2193 226.071C90.2881 226.769 90.2152 227.475 90.0052 228.142C89.7952 228.809 89.4529 229.423 89.0003 229.945C88.5476 230.466 87.9948 230.883 87.3774 231.169C93.3194 231.13 100.16 230.59 103.503 225.53C104.33 227.53 104.594 229.732 104.264 231.881C103.934 234.03 103.023 236.038 101.638 237.671C106.882 237.918 112.482 241.613 112.824 247.059C113.047 250.684 110.863 254.117 107.989 256.199C105.114 258.282 101.646 259.231 98.229 260.017C88.2613 262.316 52.1784 271.889 58.6849 250.861Z" fill="#333333"/>
<path d="M48.0562 295.616C49.9759 295.616 51.5322 292.587 51.5322 288.851C51.5322 285.115 49.9759 282.086 48.0562 282.086C46.1364 282.086 44.5801 285.115 44.5801 288.851C44.5801 292.587 46.1364 295.616 48.0562 295.616Z" fill="#FDB797"/>
<path d="M122.77 295.616C124.689 295.616 126.246 292.587 126.246 288.851C126.246 285.115 124.689 282.086 122.77 282.086C120.85 282.086 119.293 285.115 119.293 288.851C119.293 292.587 120.85 295.616 122.77 295.616Z" fill="#FDB797"/>
<g opacity="0.5">
<path opacity="0.5" d="M485.499 377.171C533.038 377.171 571.577 337.149 571.577 287.778C571.577 238.408 533.038 198.386 485.499 198.386C437.96 198.386 399.421 238.408 399.421 287.778C399.421 337.149 437.96 377.171 485.499 377.171Z" fill="url(#paint5_linear)"/>
</g>
<path d="M485.669 374.711C532.204 374.711 569.927 335.534 569.927 287.208C569.927 238.881 532.204 199.705 485.669 199.705C439.135 199.705 401.412 238.881 401.412 287.208C401.412 335.534 439.135 374.711 485.669 374.711Z" fill="#D2D2D2"/>
<path d="M532.025 295.831C532.025 324.943 511.889 339.267 485.736 339.267C459.584 339.267 437.339 324.943 437.339 295.831C437.339 266.72 458.537 243.125 484.682 243.125C510.827 243.125 532.025 266.697 532.025 295.831Z" fill="#333333"/>
<path d="M485.736 375.058C502.204 375.087 518.316 370.081 532.062 360.664C528.957 343.046 517.14 342.036 517.14 342.036H451.986C451.986 342.036 440.844 342.985 437.353 359.199C451.518 369.546 468.419 375.085 485.736 375.058Z" fill="#EE224D"/>
<path opacity="0.1" d="M471.728 320.523H497.791V342.175C497.794 343.956 497.459 345.72 496.803 347.367C496.148 349.013 495.186 350.508 493.973 351.768C492.76 353.027 491.319 354.025 489.734 354.704C488.148 355.384 486.449 355.732 484.734 355.728V355.728C481.279 355.728 477.965 354.302 475.522 351.765C473.079 349.228 471.706 345.786 471.706 342.198V320.523H471.728Z" fill="black"/>
<path d="M474.209 319.543H495.296C495.956 319.543 496.589 319.815 497.055 320.3C497.522 320.784 497.784 321.442 497.784 322.127V341.195C497.784 342.974 497.446 344.735 496.79 346.378C496.134 348.021 495.173 349.514 493.96 350.77C492.748 352.027 491.309 353.023 489.726 353.702C488.143 354.38 486.447 354.728 484.734 354.725V354.725C481.279 354.725 477.965 353.299 475.522 350.762C473.079 348.225 471.706 344.784 471.706 341.195V322.119C471.706 321.434 471.968 320.777 472.435 320.292C472.901 319.808 473.534 319.535 474.194 319.535L474.209 319.543Z" fill="#FDA57D"/>
<path opacity="0.1" d="M471.78 330.766C480.18 334.027 489.426 334.054 497.843 330.843V327.519H471.78V330.766Z" fill="black"/>
<path d="M484.853 332.571C505.482 332.571 522.206 315.204 522.206 293.78C522.206 272.356 505.482 254.988 484.853 254.988C464.223 254.988 447.5 272.356 447.5 293.78C447.5 315.204 464.223 332.571 484.853 332.571Z" fill="#FDA57D"/>
<path opacity="0.1" d="M441.802 296.317C441.802 296.317 465.065 293.386 482.654 269.968C482.654 269.968 505.917 296.564 522.124 293.633C522.124 293.633 531.52 283.382 522.124 273.138C512.728 262.894 505.442 249.959 492.993 251.663C480.544 253.368 465.266 254.101 458.693 260.202C452.119 266.304 441.802 296.317 441.802 296.317Z" fill="black"/>
<path d="M441.802 295.831C441.802 295.831 465.065 292.9 482.654 269.482C482.654 269.482 505.917 296.078 522.124 293.147C522.124 293.147 531.52 282.896 522.124 272.652C512.728 262.409 505.442 249.473 492.993 251.178C480.544 252.882 465.296 253.584 458.722 259.755C452.149 265.926 441.802 295.831 441.802 295.831Z" fill="#333333"/>
<path d="M447.485 300.514C449.405 300.514 450.961 297.485 450.961 293.749C450.961 290.013 449.405 286.984 447.485 286.984C445.565 286.984 444.009 290.013 444.009 293.749C444.009 297.485 445.565 300.514 447.485 300.514Z" fill="#FDA57D"/>
<path d="M522.198 300.514C524.118 300.514 525.674 297.485 525.674 293.749C525.674 290.013 524.118 286.984 522.198 286.984C520.278 286.984 518.722 290.013 518.722 293.749C518.722 297.485 520.278 300.514 522.198 300.514Z" fill="#FDA57D"/>
<defs>
<linearGradient id="paint0_linear" x1="86.694" y1="183.568" x2="86.694" y2="4.79019" gradientUnits="userSpaceOnUse">
<stop stop-color="#808080" stop-opacity="0.25"/>
<stop offset="0.54" stop-color="#808080" stop-opacity="0.12"/>
<stop offset="1" stop-color="#808080" stop-opacity="0.1"/>
</linearGradient>
<linearGradient id="paint1_linear" x1="66493.4" y1="87841.9" x2="66493.4" y2="46404.7" gradientUnits="userSpaceOnUse">
<stop stop-color="#808080" stop-opacity="0.25"/>
<stop offset="0.54" stop-color="#808080" stop-opacity="0.12"/>
<stop offset="1" stop-color="#808080" stop-opacity="0.1"/>
</linearGradient>
<linearGradient id="paint2_linear" x1="66474.4" y1="41530.5" x2="66474.4" y2="91.5742" gradientUnits="userSpaceOnUse">
<stop stop-color="#808080" stop-opacity="0.25"/>
<stop offset="0.54" stop-color="#808080" stop-opacity="0.12"/>
<stop offset="1" stop-color="#808080" stop-opacity="0.1"/>
</linearGradient>
<linearGradient id="paint3_linear" x1="114239" y1="41437.1" x2="114239" y2="0" gradientUnits="userSpaceOnUse">
<stop stop-color="#808080" stop-opacity="0.25"/>
<stop offset="0.54" stop-color="#808080" stop-opacity="0.12"/>
<stop offset="1" stop-color="#808080" stop-opacity="0.1"/>
</linearGradient>
<linearGradient id="paint4_linear" x1="19951.1" y1="86479" x2="19951.1" y2="45041.9" gradientUnits="userSpaceOnUse">
<stop stop-color="#808080" stop-opacity="0.25"/>
<stop offset="0.54" stop-color="#808080" stop-opacity="0.12"/>
<stop offset="1" stop-color="#808080" stop-opacity="0.1"/>
</linearGradient>
<linearGradient id="paint5_linear" x1="67889.4" y1="135439" x2="67889.4" y2="94001.9" gradientUnits="userSpaceOnUse">
<stop stop-color="#808080" stop-opacity="0.25"/>
<stop offset="0.54" stop-color="#808080" stop-opacity="0.12"/>
<stop offset="1" stop-color="#808080" stop-opacity="0.1"/>
</linearGradient>
</defs>
</svg>
