<svg width="469" height="150" viewBox="0 0 469 150" fill="none" xmlns="http://www.w3.org/2000/svg">
<g clip-path="url(#clip0)">
<path d="M88.4871 10.3171C75.3226 2.71634 58.516 7.21808 50.9141 20.385L3.73404 102.103C-8.44133 123.191 11.0693 148.749 34.6732 142.423C41.7699 140.522 47.7012 135.971 51.3747 129.608L98.5544 47.8898C106.138 34.7558 101.621 17.9003 88.4871 10.3171V10.3171Z" fill="#F4DC4D"/>
<path d="M54.1227 108.736C50.1886 94.0536 35.1218 85.3517 20.4356 89.287C-3.17671 95.6139 -7.27654 127.505 13.802 139.676C34.8317 151.817 60.4837 132.477 54.1227 108.736Z" fill="#A0ED83"/>
<path d="M146.32 102.103L99.1404 20.385C95.4672 14.0222 89.5356 9.47107 82.4389 7.56939C58.8278 1.24158 39.3298 26.8113 51.4998 47.8901L98.6798 129.608C106.278 142.77 123.084 147.279 136.253 139.676C149.387 132.092 153.904 115.237 146.32 102.103Z" fill="#86BFF2"/>
<path d="M54.1227 108.736C50.1886 94.0536 35.1218 85.3517 20.4356 89.287C-3.17671 95.6139 -7.27654 127.505 13.802 139.676C34.8317 151.817 60.4837 132.477 54.1227 108.736Z" fill="#A0ED83"/>
</g>
<path d="M215.344 34.96C214.736 33.84 213.856 32.992 212.704 32.416C211.584 31.808 210.256 31.504 208.72 31.504C206.064 31.504 203.936 32.384 202.336 34.144C200.736 35.872 199.936 38.192 199.936 41.104C199.936 44.208 200.768 46.64 202.432 48.4C204.128 50.128 206.448 50.992 209.392 50.992C211.408 50.992 213.104 50.48 214.48 49.456C215.888 48.432 216.912 46.96 217.552 45.04H207.136V38.992H224.992V46.624C224.384 48.672 223.344 50.576 221.872 52.336C220.432 54.096 218.592 55.52 216.352 56.608C214.112 57.696 211.584 58.24 208.768 58.24C205.44 58.24 202.464 57.52 199.84 56.08C197.248 54.608 195.216 52.576 193.744 49.984C192.304 47.392 191.584 44.432 191.584 41.104C191.584 37.776 192.304 34.816 193.744 32.224C195.216 29.6 197.248 27.568 199.84 26.128C202.432 24.656 205.392 23.92 208.72 23.92C212.752 23.92 216.144 24.896 218.896 26.848C221.68 28.8 223.52 31.504 224.416 34.96H215.344ZM241.731 58.384C239.107 58.384 236.739 57.824 234.627 56.704C232.547 55.584 230.899 53.984 229.683 51.904C228.499 49.824 227.907 47.392 227.907 44.608C227.907 41.856 228.515 39.44 229.73 37.36C230.947 35.248 232.611 33.632 234.723 32.512C236.835 31.392 239.203 30.832 241.827 30.832C244.451 30.832 246.819 31.392 248.931 32.512C251.043 33.632 252.707 35.248 253.923 37.36C255.139 39.44 255.747 41.856 255.747 44.608C255.747 47.36 255.123 49.792 253.875 51.904C252.659 53.984 250.979 55.584 248.835 56.704C246.723 57.824 244.355 58.384 241.731 58.384ZM241.731 51.28C243.299 51.28 244.627 50.704 245.715 49.552C246.835 48.4 247.395 46.752 247.395 44.608C247.395 42.464 246.851 40.816 245.763 39.664C244.707 38.512 243.395 37.936 241.827 37.936C240.227 37.936 238.899 38.512 237.843 39.664C236.787 40.784 236.259 42.432 236.259 44.608C236.259 46.752 236.771 48.4 237.795 49.552C238.851 50.704 240.163 51.28 241.731 51.28ZM272.293 58.384C269.669 58.384 267.301 57.824 265.189 56.704C263.109 55.584 261.461 53.984 260.245 51.904C259.061 49.824 258.469 47.392 258.469 44.608C258.469 41.856 259.077 39.44 260.293 37.36C261.509 35.248 263.173 33.632 265.285 32.512C267.397 31.392 269.765 30.832 272.389 30.832C275.013 30.832 277.381 31.392 279.493 32.512C281.605 33.632 283.269 35.248 284.485 37.36C285.701 39.44 286.309 41.856 286.309 44.608C286.309 47.36 285.685 49.792 284.437 51.904C283.221 53.984 281.541 55.584 279.397 56.704C277.285 57.824 274.917 58.384 272.293 58.384ZM272.293 51.28C273.861 51.28 275.189 50.704 276.277 49.552C277.397 48.4 277.957 46.752 277.957 44.608C277.957 42.464 277.413 40.816 276.325 39.664C275.269 38.512 273.957 37.936 272.389 37.936C270.789 37.936 269.461 38.512 268.405 39.664C267.349 40.784 266.821 42.432 266.821 44.608C266.821 46.752 267.333 48.4 268.357 49.552C269.413 50.704 270.725 51.28 272.293 51.28ZM300.84 30.832C302.728 30.832 304.376 31.216 305.784 31.984C307.224 32.752 308.328 33.76 309.096 35.008V31.216H317.304V57.952C317.304 60.416 316.808 62.64 315.816 64.624C314.856 66.64 313.368 68.24 311.352 69.424C309.368 70.608 306.888 71.2 303.912 71.2C299.944 71.2 296.728 70.256 294.264 68.368C291.8 66.512 290.392 63.984 290.04 60.784H298.152C298.408 61.808 299.016 62.608 299.976 63.184C300.936 63.792 302.12 64.096 303.528 64.096C305.224 64.096 306.568 63.6 307.56 62.608C308.584 61.648 309.096 60.096 309.096 57.952V54.16C308.296 55.408 307.192 56.432 305.784 57.232C304.376 58 302.728 58.384 300.84 58.384C298.632 58.384 296.632 57.824 294.84 56.704C293.048 55.552 291.624 53.936 290.568 51.856C289.544 49.744 289.032 47.312 289.032 44.56C289.032 41.808 289.544 39.392 290.568 37.312C291.624 35.232 293.048 33.632 294.84 32.512C296.632 31.392 298.632 30.832 300.84 30.832ZM309.096 44.608C309.096 42.56 308.52 40.944 307.368 39.76C306.248 38.576 304.872 37.984 303.24 37.984C301.608 37.984 300.216 38.576 299.064 39.76C297.944 40.912 297.384 42.512 297.384 44.56C297.384 46.608 297.944 48.24 299.064 49.456C300.216 50.64 301.608 51.232 303.24 51.232C304.872 51.232 306.248 50.64 307.368 49.456C308.52 48.272 309.096 46.656 309.096 44.608ZM331.45 22.48V58H323.242V22.48H331.45ZM362.646 44.176C362.646 44.944 362.598 45.744 362.502 46.576H343.926C344.054 48.24 344.582 49.52 345.51 50.416C346.47 51.28 347.638 51.712 349.014 51.712C351.062 51.712 352.486 50.848 353.286 49.12H362.022C361.574 50.88 360.758 52.464 359.574 53.872C358.422 55.28 356.966 56.384 355.206 57.184C353.446 57.984 351.478 58.384 349.302 58.384C346.678 58.384 344.342 57.824 342.294 56.704C340.246 55.584 338.646 53.984 337.494 51.904C336.342 49.824 335.766 47.392 335.766 44.608C335.766 41.824 336.326 39.392 337.446 37.312C338.598 35.232 340.198 33.632 342.246 32.512C344.294 31.392 346.646 30.832 349.302 30.832C351.894 30.832 354.198 31.376 356.214 32.464C358.23 33.552 359.798 35.104 360.918 37.12C362.07 39.136 362.646 41.488 362.646 44.176ZM354.246 42.016C354.246 40.608 353.766 39.488 352.806 38.656C351.846 37.824 350.646 37.408 349.206 37.408C347.83 37.408 346.662 37.808 345.702 38.608C344.774 39.408 344.198 40.544 343.974 42.016H354.246ZM398.124 52.048H385.548L383.532 58H374.94L387.132 24.304H396.636L408.828 58H400.14L398.124 52.048ZM396.012 45.712L391.836 33.376L387.708 45.712H396.012ZM410.907 44.56C410.907 41.808 411.419 39.392 412.443 37.312C413.499 35.232 414.923 33.632 416.715 32.512C418.507 31.392 420.507 30.832 422.715 30.832C424.475 30.832 426.075 31.2 427.515 31.936C428.987 32.672 430.139 33.664 430.971 34.912V22.48H439.179V58H430.971V54.16C430.203 55.44 429.099 56.464 427.659 57.232C426.251 58 424.603 58.384 422.715 58.384C420.507 58.384 418.507 57.824 416.715 56.704C414.923 55.552 413.499 53.936 412.443 51.856C411.419 49.744 410.907 47.312 410.907 44.56ZM430.971 44.608C430.971 42.56 430.395 40.944 429.243 39.76C428.123 38.576 426.747 37.984 425.115 37.984C423.483 37.984 422.091 38.576 420.939 39.76C419.819 40.912 419.259 42.512 419.259 44.56C419.259 46.608 419.819 48.24 420.939 49.456C422.091 50.64 423.483 51.232 425.115 51.232C426.747 51.232 428.123 50.64 429.243 49.456C430.395 48.272 430.971 46.656 430.971 44.608ZM456.013 58.384C453.677 58.384 451.597 57.984 449.773 57.184C447.949 56.384 446.509 55.296 445.453 53.92C444.397 52.512 443.805 50.944 443.677 49.216H451.789C451.885 50.144 452.317 50.896 453.085 51.472C453.853 52.048 454.797 52.336 455.917 52.336C456.941 52.336 457.725 52.144 458.269 51.76C458.845 51.344 459.133 50.816 459.133 50.176C459.133 49.408 458.733 48.848 457.933 48.496C457.133 48.112 455.837 47.696 454.045 47.248C452.125 46.8 450.525 46.336 449.245 45.856C447.965 45.344 446.861 44.56 445.933 43.504C445.005 42.416 444.541 40.96 444.541 39.136C444.541 37.6 444.957 36.208 445.789 34.96C446.653 33.68 447.901 32.672 449.533 31.936C451.197 31.2 453.165 30.832 455.437 30.832C458.797 30.832 461.437 31.664 463.357 33.328C465.309 34.992 466.429 37.2 466.717 39.952H459.133C459.005 39.024 458.589 38.288 457.885 37.744C457.213 37.2 456.317 36.928 455.197 36.928C454.237 36.928 453.501 37.12 452.989 37.504C452.477 37.856 452.221 38.352 452.221 38.992C452.221 39.76 452.621 40.336 453.421 40.72C454.253 41.104 455.533 41.488 457.261 41.872C459.245 42.384 460.861 42.896 462.109 43.408C463.357 43.888 464.445 44.688 465.373 45.808C466.333 46.896 466.829 48.368 466.861 50.224C466.861 51.792 466.413 53.2 465.517 54.448C464.653 55.664 463.389 56.624 461.725 57.328C460.093 58.032 458.189 58.384 456.013 58.384Z" fill="black"/>
<path d="M191.776 108.248C191.776 104.984 192.528 102.056 194.032 99.464C195.568 96.872 197.632 94.856 200.224 93.416C202.848 91.944 205.712 91.208 208.816 91.208C212.368 91.208 215.52 92.088 218.272 93.848C221.056 95.576 223.072 98.04 224.32 101.24H217.744C216.88 99.48 215.68 98.168 214.144 97.304C212.608 96.44 210.832 96.008 208.816 96.008C206.608 96.008 204.64 96.504 202.912 97.496C201.184 98.488 199.824 99.912 198.832 101.768C197.872 103.624 197.392 105.784 197.392 108.248C197.392 110.712 197.872 112.872 198.832 114.728C199.824 116.584 201.184 118.024 202.912 119.048C204.64 120.04 206.608 120.536 208.816 120.536C210.832 120.536 212.608 120.104 214.144 119.24C215.68 118.376 216.88 117.064 217.744 115.304H224.32C223.072 118.504 221.056 120.968 218.272 122.696C215.52 124.424 212.368 125.288 208.816 125.288C205.68 125.288 202.816 124.568 200.224 123.128C197.632 121.656 195.568 119.624 194.032 117.032C192.528 114.44 191.776 111.512 191.776 108.248ZM254.965 111.128C254.965 112.12 254.901 113.016 254.773 113.816H234.565C234.725 115.928 235.509 117.624 236.917 118.904C238.325 120.184 240.053 120.824 242.101 120.824C245.045 120.824 247.125 119.592 248.341 117.128H254.245C253.445 119.56 251.989 121.56 249.877 123.128C247.797 124.664 245.205 125.432 242.101 125.432C239.573 125.432 237.301 124.872 235.285 123.752C233.301 122.6 231.733 121 230.581 118.952C229.461 116.872 228.901 114.472 228.901 111.752C228.901 109.032 229.445 106.648 230.533 104.6C231.653 102.52 233.205 100.92 235.189 99.8C237.205 98.68 239.509 98.12 242.101 98.12C244.597 98.12 246.821 98.664 248.773 99.752C250.725 100.84 252.245 102.376 253.333 104.36C254.421 106.312 254.965 108.568 254.965 111.128ZM249.253 109.4C249.221 107.384 248.501 105.768 247.093 104.552C245.685 103.336 243.941 102.728 241.861 102.728C239.973 102.728 238.357 103.336 237.013 104.552C235.669 105.736 234.869 107.352 234.613 109.4H249.253ZM265.822 102.392C266.622 101.048 267.678 100.008 268.99 99.272C270.334 98.504 271.918 98.12 273.742 98.12V103.784H272.35C270.206 103.784 268.574 104.328 267.454 105.416C266.366 106.504 265.822 108.392 265.822 111.08V125H260.35V98.552H265.822V102.392ZM285.156 103.016V117.656C285.156 118.648 285.38 119.368 285.828 119.816C286.308 120.232 287.108 120.44 288.228 120.44H291.588V125H287.268C284.804 125 282.916 124.424 281.604 123.272C280.292 122.12 279.636 120.248 279.636 117.656V103.016H276.516V98.552H279.636V91.976H285.156V98.552H291.588V103.016H285.156ZM299.415 95.048C298.423 95.048 297.591 94.712 296.919 94.04C296.247 93.368 295.911 92.536 295.911 91.544C295.911 90.552 296.247 89.72 296.919 89.048C297.591 88.376 298.423 88.04 299.415 88.04C300.375 88.04 301.191 88.376 301.863 89.048C302.535 89.72 302.871 90.552 302.871 91.544C302.871 92.536 302.535 93.368 301.863 94.04C301.191 94.712 300.375 95.048 299.415 95.048ZM302.103 98.552V125H296.631V98.552H302.103ZM320.376 103.016H315.48V125H309.96V103.016H306.84V98.552H309.96V96.68C309.96 93.64 310.76 91.432 312.36 90.056C313.992 88.648 316.536 87.944 319.992 87.944V92.504C318.328 92.504 317.16 92.824 316.488 93.464C315.816 94.072 315.48 95.144 315.48 96.68V98.552H320.376V103.016ZM328.009 95.048C327.017 95.048 326.185 94.712 325.513 94.04C324.841 93.368 324.505 92.536 324.505 91.544C324.505 90.552 324.841 89.72 325.513 89.048C326.185 88.376 327.017 88.04 328.009 88.04C328.969 88.04 329.785 88.376 330.457 89.048C331.129 89.72 331.465 90.552 331.465 91.544C331.465 92.536 331.129 93.368 330.457 94.04C329.785 94.712 328.969 95.048 328.009 95.048ZM330.697 98.552V125H325.225V98.552H330.697ZM362.121 111.128C362.121 112.12 362.057 113.016 361.929 113.816H341.721C341.881 115.928 342.665 117.624 344.073 118.904C345.481 120.184 347.209 120.824 349.257 120.824C352.201 120.824 354.281 119.592 355.497 117.128H361.401C360.601 119.56 359.145 121.56 357.033 123.128C354.953 124.664 352.361 125.432 349.257 125.432C346.729 125.432 344.457 124.872 342.441 123.752C340.457 122.6 338.889 121 337.737 118.952C336.617 116.872 336.057 114.472 336.057 111.752C336.057 109.032 336.601 106.648 337.689 104.6C338.809 102.52 340.361 100.92 342.345 99.8C344.361 98.68 346.665 98.12 349.257 98.12C351.753 98.12 353.977 98.664 355.929 99.752C357.881 100.84 359.401 102.376 360.489 104.36C361.577 106.312 362.121 108.568 362.121 111.128ZM356.409 109.4C356.377 107.384 355.657 105.768 354.249 104.552C352.841 103.336 351.097 102.728 349.017 102.728C347.129 102.728 345.513 103.336 344.169 104.552C342.825 105.736 342.025 107.352 341.769 109.4H356.409ZM365.682 111.656C365.682 109 366.226 106.648 367.314 104.6C368.434 102.552 369.938 100.968 371.826 99.848C373.746 98.696 375.874 98.12 378.21 98.12C379.938 98.12 381.634 98.504 383.298 99.272C384.994 100.008 386.338 101 387.33 102.248V89.48H392.85V125H387.33V121.016C386.434 122.296 385.186 123.352 383.586 124.184C382.018 125.016 380.21 125.432 378.162 125.432C375.858 125.432 373.746 124.856 371.826 123.704C369.938 122.52 368.434 120.888 367.314 118.808C366.226 116.696 365.682 114.312 365.682 111.656ZM387.33 111.752C387.33 109.928 386.946 108.344 386.178 107C385.442 105.656 384.466 104.632 383.25 103.928C382.034 103.224 380.722 102.872 379.314 102.872C377.906 102.872 376.594 103.224 375.378 103.928C374.162 104.6 373.17 105.608 372.402 106.952C371.666 108.264 371.298 109.832 371.298 111.656C371.298 113.48 371.666 115.08 372.402 116.456C373.17 117.832 374.162 118.888 375.378 119.624C376.626 120.328 377.938 120.68 379.314 120.68C380.722 120.68 382.034 120.328 383.25 119.624C384.466 118.92 385.442 117.896 386.178 116.552C386.946 115.176 387.33 113.576 387.33 111.752Z" fill="#86BFF2"/>
<defs>
<clipPath id="clip0">
<rect width="150" height="150" fill="white"/>
</clipPath>
</defs>
</svg>
