<svg width="68" height="68" viewBox="0 0 68 68" fill="none" xmlns="http://www.w3.org/2000/svg">
<g clip-path="url(#clip0)">
<path d="M34.1711 59.5C52.592 59.5 66.8422 47.9747 66.8422 34.5C66.8422 21.0253 52.592 9.5 34.1711 9.5C15.7503 9.5 1.50006 21.0253 1.50006 34.5C1.50006 37.877 2.3776 41.1044 3.98215 44.0598C4.60397 45.2051 4.41888 46.6129 4.18914 47.6702C3.97595 48.6512 3.6207 49.7372 3.29355 50.7372C3.23998 50.901 3.18717 51.0624 3.13586 51.2207C2.75036 52.4099 2.44452 53.4352 2.34373 54.2617C2.2943 54.6671 2.30582 54.9437 2.34225 55.1197C2.3593 55.2021 2.37899 55.2483 2.39062 55.2706C2.40089 55.2902 2.40751 55.2965 2.41102 55.2997C2.57545 55.4512 3.1125 55.6785 4.35908 55.7315C5.51457 55.7806 6.92243 55.6736 8.45994 55.5334C8.67917 55.5134 8.90117 55.4928 9.12492 55.4719C10.4258 55.3508 11.7862 55.2241 13.0091 55.1952C14.3865 55.1627 15.8901 55.2377 17.0302 55.7776C22.0036 58.1327 27.872 59.5 34.1711 59.5Z" stroke="white" stroke-width="3"/>
<rect width="28" height="3" rx="1.5" transform="matrix(-1 0 0 1 48 28)" fill="white"/>
<rect width="28" height="3" rx="1.5" transform="matrix(-1 0 0 1 48 38)" fill="white"/>
</g>
<defs>
<clipPath id="clip0">
<rect width="68" height="68" fill="white"/>
</clipPath>
</defs>
</svg>
