<svg width="60" height="60" viewBox="0 0 60 60" fill="none" xmlns="http://www.w3.org/2000/svg">
<circle cx="30" cy="30" r="30" fill="#EE224D"/>
<path d="M36.75 12H23.25C17.0378 12 12 17.0378 12 23.25V36.75C12 42.9622 17.0378 48 23.25 48H36.75C42.9622 48 48 42.9622 48 36.75V23.25C48 17.0378 42.9622 12 36.75 12ZM44.625 36.75C44.625 41.0925 41.0925 44.625 36.75 44.625H23.25C18.9075 44.625 15.375 41.0925 15.375 36.75V23.25C15.375 18.9075 18.9075 15.375 23.25 15.375H36.75C41.0925 15.375 44.625 18.9075 44.625 23.25V36.75Z" fill="white"/>
<path d="M30 21C25.0297 21 21 25.0297 21 30C21 34.9703 25.0297 39 30 39C34.9703 39 39 34.9703 39 30C39 25.0297 34.9703 21 30 21ZM30 35.625C26.8995 35.625 24.375 33.1005 24.375 30C24.375 26.8973 26.8995 24.375 30 24.375C33.1005 24.375 35.625 26.8973 35.625 30C35.625 33.1005 33.1005 35.625 30 35.625Z" fill="white"/>
<path d="M39.6751 21.5245C40.3374 21.5245 40.8743 20.9876 40.8743 20.3252C40.8743 19.6629 40.3374 19.126 39.6751 19.126C39.0128 19.126 38.4758 19.6629 38.4758 20.3252C38.4758 20.9876 39.0128 21.5245 39.6751 21.5245Z" fill="white"/>
</svg>
