<svg width="50" height="50" viewBox="0 0 50 50" fill="none" xmlns="http://www.w3.org/2000/svg">
<circle cx="25" cy="25" r="25" fill="white"/>
<path d="M30.625 10H19.375C14.1981 10 10 14.1981 10 19.375V30.625C10 35.8019 14.1981 40 19.375 40H30.625C35.8019 40 40 35.8019 40 30.625V19.375C40 14.1981 35.8019 10 30.625 10ZM37.1875 30.625C37.1875 34.2437 34.2437 37.1875 30.625 37.1875H19.375C15.7563 37.1875 12.8125 34.2437 12.8125 30.625V19.375C12.8125 15.7563 15.7563 12.8125 19.375 12.8125H30.625C34.2437 12.8125 37.1875 15.7563 37.1875 19.375V30.625Z" fill="#EE224D"/>
<path d="M25 17.5C20.8581 17.5 17.5 20.8581 17.5 25C17.5 29.1419 20.8581 32.5 25 32.5C29.1419 32.5 32.5 29.1419 32.5 25C32.5 20.8581 29.1419 17.5 25 17.5ZM25 29.6875C22.4162 29.6875 20.3125 27.5838 20.3125 25C20.3125 22.4144 22.4162 20.3125 25 20.3125C27.5838 20.3125 29.6875 22.4144 29.6875 25C29.6875 27.5838 27.5838 29.6875 25 29.6875Z" fill="#EE224D"/>
<path d="M33.0625 17.9369C33.6145 17.9369 34.0619 17.4894 34.0619 16.9375C34.0619 16.3855 33.6145 15.9381 33.0625 15.9381C32.5106 15.9381 32.0632 16.3855 32.0632 16.9375C32.0632 17.4894 32.5106 17.9369 33.0625 17.9369Z" fill="#EE224D"/>
</svg>
