<svg width="26" height="26" viewBox="0 0 26 26" fill="none" xmlns="http://www.w3.org/2000/svg">
<g clip-path="url(#clip0)">
<path d="M20.6974 4.45237C19.1195 1.72928 16.3168 0.0656348 13.2001 0.00205664C13.067 -0.000685547 12.9331 -0.000685547 12.8 0.00205664C9.68338 0.0656348 6.88066 1.72928 5.30269 4.45237C3.68977 7.2358 3.64564 10.5792 5.18462 13.3961L11.632 25.197C11.6349 25.2023 11.6378 25.2075 11.6407 25.2127C11.9244 25.7057 12.4326 26 13.0002 26C13.5677 26 14.0759 25.7056 14.3595 25.2127C14.3625 25.2075 14.3654 25.2023 14.3683 25.197L20.8156 13.3961C22.3545 10.5792 22.3103 7.2358 20.6974 4.45237V4.45237ZM13.0001 11.7813C10.984 11.7813 9.34381 10.1411 9.34381 8.12503C9.34381 6.10896 10.984 4.46878 13.0001 4.46878C15.0161 4.46878 16.6563 6.10896 16.6563 8.12503C16.6563 10.1411 15.0162 11.7813 13.0001 11.7813Z" fill="#EE224D"/>
</g>
<defs>
<clipPath id="clip0">
<rect width="26" height="26" fill="white"/>
</clipPath>
</defs>
</svg>
