<svg width="26" height="26" viewBox="0 0 26 26" fill="none" xmlns="http://www.w3.org/2000/svg">
<g clip-path="url(#clip0)">
<path d="M25.878 8.93583L22.1128 6.27631V2.39158C22.0751 2.00676 21.7786 1.6979 21.3957 1.64453H4.90071C4.51778 1.69795 4.22127 2.00676 4.18352 2.39158V6.24639L0.268938 8.93577C0.113878 9.04834 0.0156718 9.22296 0 9.41388V23.6079C0.0509049 23.9975 0.357478 24.3041 0.747043 24.355H25.5493C25.878 24.355 25.9976 23.9665 25.9976 23.6079V9.41394C25.9976 9.23463 26.0274 9.05531 25.878 8.93583ZM22.1128 7.71062L24.6827 9.47365L22.1128 11.416V7.71062ZM5.37881 2.83982H20.9176V12.3424L13.1482 18.1993L5.37876 12.3424V2.83982H5.37881ZM4.18352 7.68077V11.446L1.61363 9.47371L4.18352 7.68077ZM1.19529 10.6989L9.56234 17.0339L1.19529 22.6816V10.6989ZM2.62967 23.1597L10.5783 17.8108L12.7 19.4245C12.8201 19.5173 12.9666 19.5696 13.1183 19.5739C13.2378 19.5739 13.2976 19.5141 13.4171 19.4245L15.6284 17.7212L23.6667 23.1597H2.62967ZM24.8023 22.4725L16.6145 16.9741L24.8023 10.6989V22.4725Z" fill="#EE224D"/>
<path d="M8.36706 6.72459H11.0564C11.3865 6.72459 11.6541 6.45702 11.6541 6.12694C11.6541 5.79686 11.3865 5.5293 11.0564 5.5293H8.36706C8.03697 5.5293 7.76941 5.79686 7.76941 6.12694C7.76941 6.45702 8.03697 6.72459 8.36706 6.72459Z" fill="#EE224D"/>
<path d="M8.36706 9.41404H17.9294C18.2595 9.41404 18.527 9.14648 18.527 8.8164C18.527 8.48631 18.2595 8.21875 17.9294 8.21875H8.36706C8.03697 8.21875 7.76941 8.48631 7.76941 8.8164C7.76941 9.14648 8.03697 9.41404 8.36706 9.41404Z" fill="#EE224D"/>
<path d="M18.527 11.5059C18.527 11.1758 18.2594 10.9082 17.9293 10.9082H8.36706C8.03697 10.9082 7.76941 11.1758 7.76941 11.5059C7.76941 11.8359 8.03697 12.1035 8.36706 12.1035H17.9294C18.2594 12.1035 18.527 11.8359 18.527 11.5059Z" fill="#EE224D"/>
</g>
<defs>
<clipPath id="clip0">
<rect width="26" height="26" fill="white"/>
</clipPath>
</defs>
</svg>
