<svg width="404" height="320" viewBox="0 0 404 320" fill="none" xmlns="http://www.w3.org/2000/svg">
<g id="undraw_opened_gi4n (1) 1" clip-path="url(#clip0)">
<path id="Vector" d="M111.886 162.617L-0.0144653 195.902L20.4867 264.519L132.388 231.234L111.886 162.617Z" fill="url(#paint0_linear)"/>
<path id="Vector_2" d="M109.974 165.04L1.86627 197.196L20.9994 261.234L129.107 229.078L109.974 165.04Z" fill="white"/>
<g id="Group" opacity="0.6">
<path id="Vector_3" opacity="0.6" d="M11.0708 210.814L24.8239 206.723L21.7896 196.568L8.03658 200.659L11.0708 210.814Z" fill="#F55F44"/>
<path id="Vector_4" opacity="0.6" d="M28.2551 227.217L81.0707 211.507L80.0872 208.215L27.2715 223.925L28.2551 227.217Z" fill="#F55F44"/>
<path id="Vector_5" opacity="0.6" d="M44.6923 230.094L83.2035 218.639L82.5473 216.443L44.0361 227.898L44.6923 230.094Z" fill="#F55F44"/>
</g>
<path id="Vector_6" d="M286.263 0.00189211L272.545 70.2825L387.16 92.5531L400.877 22.2725L286.263 0.00189211Z" fill="url(#paint1_linear)"/>
<path id="Vector_7" d="M287.326 2.02686L274.524 67.6178L385.253 89.1335L398.055 23.5426L287.326 2.02686Z" fill="white"/>
<g id="Group_2" opacity="0.6">
<path id="Vector_8" opacity="0.6" d="M289.109 18.3503L303.196 21.0874L305.226 10.6857L291.139 7.94859L289.109 18.3503Z" fill="#F55F44"/>
<path id="Vector_9" opacity="0.6" d="M296.713 40.8393L350.81 51.3507L351.468 47.9789L297.371 37.4675L296.713 40.8393Z" fill="#F55F44"/>
<path id="Vector_10" opacity="0.6" d="M309.94 50.9979L349.385 58.6625L349.824 56.4131L310.379 48.7486L309.94 50.9979Z" fill="#F55F44"/>
</g>
<path id="Vector_11" d="M357.538 138.767L291.705 167.261L338.172 274.146L404.006 245.652L357.538 138.767Z" fill="url(#paint2_linear)"/>
<path id="Vector_12" d="M356.464 140.787L295.023 167.379L339.916 270.641L401.356 244.049L356.464 140.787Z" fill="white"/>
<g id="Group_3" opacity="0.6">
<path id="Vector_13" opacity="0.6" d="M343.974 151.512L349.685 164.648L359.428 160.431L353.717 147.295L343.974 151.512Z" fill="#47E6B1"/>
<path id="Vector_14" opacity="0.6" d="M329.694 170.49L351.626 220.938L354.785 219.571L332.853 169.123L329.694 170.49Z" fill="#47E6B1"/>
<path id="Vector_15" opacity="0.6" d="M328.789 187.114L344.781 223.899L346.888 222.987L330.896 186.202L328.789 187.114Z" fill="#47E6B1"/>
</g>
<path id="Vector_16" d="M141.207 0.502162L31.1576 39.4507L55.1472 106.932L165.197 67.9835L141.207 0.502162Z" fill="url(#paint3_linear)"/>
<path id="Vector_17" d="M139.425 3.02704L33.1052 40.6554L55.4941 103.634L161.813 66.0056L139.425 3.02704Z" fill="white"/>
<g id="Group_4" opacity="0.6">
<path id="Vector_18" opacity="0.6" d="M42.9612 53.8116L56.4867 49.0247L52.9362 39.0373L39.4107 43.8242L42.9612 53.8116Z" fill="#DA1919"/>
<path id="Vector_19" opacity="0.6" d="M60.9627 69.3233L112.905 50.9402L111.754 47.7027L59.8118 66.0858L60.9627 69.3233Z" fill="#DA1919"/>
<path id="Vector_20" opacity="0.6" d="M77.5247 71.3585L115.399 57.9542L114.631 55.7944L76.7569 69.1987L77.5247 71.3585Z" fill="#DA1919"/>
</g>
<path id="Vector_21" d="M202.142 4.26379L66.1927 131.961V320H338.086V131.961L202.142 4.26379Z" fill="url(#paint4_linear)"/>
<path id="Vector_22" d="M336.708 315.875H67.5709V131.655L202.142 6.55542L336.708 131.655V315.875Z" fill="white"/>
<g id="list">
<path id="Vector_23" d="M295.83 32.2172H108.448V252.177H295.83V32.2172Z" fill="url(#paint5_linear)"/>
<path id="Vector_24" d="M293.464 34.0504H110.814V252.177H293.464V34.0504Z" fill="white"/>
<path id="Vector_25" d="M176.65 76.2073H138.529V82.6239H176.65V76.2073Z" fill="#47E6B1"/>
<path id="Vector_26" d="M265.75 93.1653H138.529V99.5818H265.75V93.1653Z" fill="#F5F5F5"/>
<path id="Vector_27" d="M265.75 104.161H138.529V110.577H265.75V104.161Z" fill="#F5F5F5"/>
<path id="Vector_28" d="M265.75 115.16H138.529V121.577H265.75V115.16Z" fill="#F5F5F5"/>
<path id="Vector_29" d="M265.75 126.156H138.529V132.572H265.75V126.156Z" fill="#F5F5F5"/>
<path id="Vector_30" d="M196.397 137.155H138.529V143.572H196.397V137.155Z" fill="#F5F5F5"/>
<path id="Vector_31" d="M265.75 137.155H207.881V143.572H265.75V137.155Z" fill="#DA1919"/>
</g>
<path id="Vector_32" d="M67.5709 131.656L202.142 223.765L67.5709 315.875V131.656Z" fill="#F5F5F5"/>
<path id="Vector_33" d="M336.708 131.656L202.142 223.765L336.708 315.875V131.656Z" fill="#F5F5F5"/>
<path id="Vector_34" d="M67.5709 315.87L196.857 215.506C198.361 214.324 200.22 213.682 202.135 213.682C204.049 213.682 205.908 214.324 207.413 215.506L336.708 315.87H67.5709Z" fill="url(#paint6_linear)"/>
<path id="Vector_35" d="M67.5709 315.87L196.857 219.89C198.382 218.758 200.233 218.147 202.135 218.147C204.036 218.147 205.887 218.758 207.413 219.89L336.708 315.87H67.5709Z" fill="white"/>
</g>
<defs>
<linearGradient id="paint0_linear" x1="76.4372" y1="247.876" x2="56.0198" y2="179.235" gradientUnits="userSpaceOnUse">
<stop stop-color="#808080" stop-opacity="0.25"/>
<stop offset="0.54" stop-color="#808080" stop-opacity="0.12"/>
<stop offset="1" stop-color="#808080" stop-opacity="0.1"/>
</linearGradient>
<linearGradient id="paint1_linear" x1="8713.16" y1="20395" x2="12150.4" y2="2705.3" gradientUnits="userSpaceOnUse">
<stop stop-color="#808080" stop-opacity="0.25"/>
<stop offset="0.54" stop-color="#808080" stop-opacity="0.12"/>
<stop offset="1" stop-color="#808080" stop-opacity="0.1"/>
</linearGradient>
<linearGradient id="paint2_linear" x1="-41713.3" y1="37086.4" x2="-25157.3" y2="29888.9" gradientUnits="userSpaceOnUse">
<stop stop-color="#808080" stop-opacity="0.25"/>
<stop offset="0.54" stop-color="#808080" stop-opacity="0.12"/>
<stop offset="1" stop-color="#808080" stop-opacity="0.1"/>
</linearGradient>
<linearGradient id="paint3_linear" x1="-1163.22" y1="17679.9" x2="-4858.79" y2="7238" gradientUnits="userSpaceOnUse">
<stop stop-color="#808080" stop-opacity="0.25"/>
<stop offset="0.54" stop-color="#808080" stop-opacity="0.12"/>
<stop offset="1" stop-color="#808080" stop-opacity="0.1"/>
</linearGradient>
<linearGradient id="paint4_linear" x1="118519" y1="218244" x2="118519" y2="2912.19" gradientUnits="userSpaceOnUse">
<stop stop-color="#808080" stop-opacity="0.25"/>
<stop offset="0.54" stop-color="#808080" stop-opacity="0.12"/>
<stop offset="1" stop-color="#808080" stop-opacity="0.1"/>
</linearGradient>
<linearGradient id="paint5_linear" x1="81743.3" y1="119847" x2="81743.3" y2="15339.2" gradientUnits="userSpaceOnUse">
<stop stop-color="#808080" stop-opacity="0.25"/>
<stop offset="0.54" stop-color="#808080" stop-opacity="0.12"/>
<stop offset="1" stop-color="#808080" stop-opacity="0.1"/>
</linearGradient>
<linearGradient id="paint6_linear" x1="161630" y1="80604.3" x2="161630" y2="58048.2" gradientUnits="userSpaceOnUse">
<stop stop-color="#808080" stop-opacity="0.25"/>
<stop offset="0.54" stop-color="#808080" stop-opacity="0.12"/>
<stop offset="1" stop-color="#808080" stop-opacity="0.1"/>
</linearGradient>
<clipPath id="clip0">
<rect width="404" height="320" fill="white"/>
</clipPath>
</defs>
</svg>
