<svg width="150" height="150" viewBox="0 0 150 150" fill="none" xmlns="http://www.w3.org/2000/svg">
<path fill-rule="evenodd" clip-rule="evenodd" d="M16.3306 74.5678H3.5428C3.81273 78.0911 6.24207 79.7512 9.21128 79.7512C11.1683 79.7512 13.0577 79.0397 14.9135 77.6168H15.3184V81.2418C13.3277 82.3598 11.1008 82.9019 9.07631 82.9019C4.18388 82.9019 0 79.8528 0 73.9241C0 67.9953 4.08265 64.9463 8.7389 64.9463C10.9995 64.9463 12.8553 65.6238 14.2724 66.9451C15.6895 68.2664 16.3981 70.2652 16.4318 72.8738C16.4318 73.4498 16.3981 74.0257 16.3306 74.5678V74.5678ZM3.7115 71.9591H12.9565C12.7203 69.2827 11.2357 67.8937 8.70516 67.8937C6.17459 67.8937 4.2851 69.3505 3.7115 71.9591V71.9591ZM34.0446 71.722V82.4276H30.9067V80.7336C29.692 82.0888 27.8025 82.9019 25.6094 82.9019C21.7292 82.9019 19.1986 80.5643 19.1986 77.4136C19.1986 74.229 21.8641 71.9591 25.8456 71.9591C27.7351 71.9591 29.2534 72.4334 30.4343 73.4159V72.0607C30.4343 69.3505 28.781 68.1647 26.2505 68.1647C24.6309 68.1647 23.0113 68.639 21.4255 69.5537H21.0543V66.0981C22.8979 65.3458 24.8678 64.9548 26.8578 64.9463C31.0754 64.9463 34.0446 67.0129 34.0446 71.722V71.722ZM30.7043 77.278C30.7043 75.889 29.2871 74.7372 26.7566 74.7372C24.226 74.7372 22.8089 75.889 22.8089 77.278C22.8089 78.7348 24.226 79.8189 26.7566 79.8189C29.2871 79.8189 30.7043 78.7348 30.7043 77.278ZM49.5654 68.4019H44.538V76.4988C44.538 78.125 45.5503 78.972 47.1698 78.972H49.4305V82.4276H46.5625C43.0197 82.4276 40.9615 80.6659 40.9615 77.1425V68.4019H37.115V65.4206H40.9615V60H44.538V65.4206H49.5654V68.4019V68.4019ZM76.5919 74.5678H63.8041C64.0741 78.0911 66.5034 79.7512 69.4726 79.7512C71.4296 79.7512 73.3191 79.0397 75.1748 77.6168H75.5797V81.2418C73.589 82.3598 71.3621 82.9019 69.3376 82.9019C64.4452 82.9019 60.2613 79.8528 60.2613 73.9241C60.2613 67.9953 64.344 64.9463 69.0002 64.9463C71.2609 64.9463 73.1166 65.6238 74.5337 66.9451C75.9509 68.2664 76.6594 70.2652 76.6932 72.8738C76.6932 73.4498 76.6594 74.0257 76.5919 74.5678V74.5678ZM63.9728 71.9591H73.2179C72.9817 69.2827 71.4971 67.8937 68.9665 67.8937C66.4359 67.8937 64.5464 69.3505 63.9728 71.9591V71.9591ZM94.3059 71.722V82.4276H91.168V80.7336C89.9534 82.0888 88.0639 82.9019 85.8707 82.9019C81.9905 82.9019 79.4599 80.5643 79.4599 77.4136C79.4599 74.229 82.1255 71.9591 86.1069 71.9591C87.9964 71.9591 89.5147 72.4334 90.6957 73.4159V72.0607C90.6957 69.3505 89.0423 68.1647 86.5118 68.1647C84.8922 68.1647 83.2726 68.639 81.6868 69.5537H81.3157V66.0981C83.1592 65.3458 85.1291 64.9548 87.1191 64.9463C91.3367 64.9463 94.3059 67.0129 94.3059 71.722V71.722ZM90.9656 77.278C90.9656 75.889 89.5485 74.7372 87.0179 74.7372C84.4873 74.7372 83.0702 75.889 83.0702 77.278C83.0702 78.7348 84.4873 79.8189 87.0179 79.8189C89.5485 79.8189 90.9656 78.7348 90.9656 77.278ZM98.1187 81.5129V77.9556H98.5236C100.042 79.1752 101.796 79.785 103.821 79.785C105.98 79.785 107.06 79.2091 107.06 78.0234C107.06 77.1764 106.419 76.465 105.171 75.9229L102.134 74.5339C99.637 73.4498 98.3886 71.7897 98.3886 69.5537C98.3886 67.9614 98.9622 66.8096 100.109 66.0643C101.29 65.3189 102.707 64.9463 104.428 64.9463C106.453 64.9463 108.173 65.4206 109.591 66.3353V69.486H109.219C107.701 68.4357 106.284 68.0631 104.664 68.0631C102.876 68.0631 101.999 68.6729 101.999 69.6554C101.999 70.4346 102.707 71.146 104.091 71.7558L106.891 73.0432C109.388 74.0935 110.637 75.7196 110.637 77.9556C110.637 79.6834 109.995 80.9708 108.713 81.75C107.431 82.5292 105.845 82.9019 103.99 82.9019C101.695 82.9019 99.6033 82.3259 98.1187 81.5129V81.5129ZM125.719 65.4206H129.531L119.713 89H115.799L119.713 79.6495L112.998 65.4206H116.946L121.602 75.8551L125.719 65.4206V65.4206ZM145.187 68.1647C147.245 68.1647 149 69.6893 149 71.993C149 74.2967 147.313 75.7874 145.187 75.7874C143.129 75.7874 141.408 74.2967 141.408 71.993C141.408 69.6893 143.129 68.1647 145.187 68.1647V68.1647Z" fill="black"/>
</svg>
