<svg width="46" height="46" viewBox="0 0 46 46" fill="none" xmlns="http://www.w3.org/2000/svg">
<g clip-path="url(#clip0)">
<path d="M44.748 33.7594L38.3286 27.3399C36.036 25.0473 32.1384 25.9644 31.2214 28.9448C30.5336 31.0083 28.2409 32.1546 26.1775 31.696C21.5922 30.5496 15.402 24.5887 14.2557 19.7742C13.5679 17.7107 14.9435 15.418 17.0069 14.7303C19.9874 13.8133 20.9044 9.91574 18.6118 7.62308L12.1923 1.20364C10.3582 -0.401215 7.60701 -0.401215 6.00216 1.20364L1.64611 5.55969C-2.70994 10.145 2.10464 22.2961 12.8801 33.0716C23.6556 43.847 35.8067 48.891 40.392 44.3056L44.748 39.9495C46.353 38.1154 46.353 35.3642 44.748 33.7594Z" fill="white"/>
</g>
<defs>
<clipPath id="clip0">
<rect width="46" height="46" fill="white"/>
</clipPath>
</defs>
</svg>
