<svg width="250" height="570" viewBox="0 0 250 570" fill="none" xmlns="http://www.w3.org/2000/svg">
<g id="rocket">
<g id="Group" opacity="0.7">
<path id="Vector" opacity="0.7" d="M249.553 263.042C249.624 241.58 244.485 220.42 234.577 201.38C229.873 192.439 225.583 186.881 222.245 183.472C220.986 182.137 219.341 181.228 217.541 180.873C215.74 180.517 213.874 180.733 212.202 181.49C210.866 181.962 209.659 182.74 208.678 183.763C204.212 188.387 200.178 194.501 196.654 201.01C186.231 220.495 180.821 242.267 180.912 264.364V277.63H172.402V123.475C172.402 91.1639 165.17 59.2846 151.005 30.9818C144.292 17.5835 138.17 9.2591 133.457 4.14115C132.315 2.8401 130.909 1.79768 129.332 1.08355C127.755 0.369411 126.044 0 124.313 0C122.582 0 120.871 0.369411 119.294 1.08355C117.717 1.79768 116.311 2.8401 115.169 4.14115C108.791 11.0737 103.039 20.2349 98.009 29.9776C83.1127 58.8618 75.5456 91.6396 75.5456 124.911V277.63H68.19V263.73C68.2812 241.633 62.8713 219.861 52.448 200.376C48.9243 193.875 44.8897 187.762 40.4235 183.128C39.1379 181.774 37.4554 180.864 35.6187 180.528C33.7821 180.193 31.8862 180.449 30.2049 181.261L30.5132 181.428C29.4346 181.905 28.4592 182.587 27.6414 183.437C24.338 186.846 20.0479 192.404 15.3086 201.345C5.401 220.385 0.262083 241.544 0.333 263.007V493.482H26.5843L23.7213 512.43V569.08H45.1804V512.43L42.3175 493.482H68.19V283.594H75.5456V492.54H96.5114L93.4987 512.421V569.08H114.967V512.43L111.954 492.549H140.205L137.192 512.43V569.08H158.66V512.43L155.647 492.549H172.385V283.594H180.894V493.8H187.792V493.482H210.599L207.736 512.43V569.08H229.204V512.43L226.341 493.482H249.553V263.042Z" fill="url(#paint0_linear)"/>
</g>
<path id="Vector_2" d="M49.4529 501.384H29.1301L32.7595 476.71H45.8235L49.4529 501.384Z" fill="#535461"/>
<path id="Vector_3" d="M223.663 501.384H203.34L206.969 476.71H220.033L223.663 501.384Z" fill="#535461"/>
<path id="Vector_4" d="M115.513 501.384H95.1812L98.8105 476.71H111.883L115.513 501.384Z" fill="#535461"/>
<path id="Vector_5" d="M156.881 501.384H136.558L140.187 476.71H153.251L156.881 501.384Z" fill="#535461"/>
<path id="Vector_6" d="M194.628 272.741H49.4529V278.546H194.628V272.741Z" fill="#535461"/>
<path id="Vector_7" d="M217.074 181.014C216.307 180.167 215.371 179.491 214.326 179.027C213.281 178.564 212.151 178.325 211.009 178.325C209.866 178.325 208.736 178.564 207.691 179.027C206.647 179.491 205.711 180.167 204.944 181.014C200.715 185.516 196.901 191.47 193.562 197.804C183.682 216.851 178.571 238.01 178.666 259.466V482.938H242.911V258.541C242.992 237.673 238.128 217.083 228.719 198.456C224.262 189.753 220.201 184.335 217.074 181.014Z" fill="#E0E0E0"/>
<path id="Vector_8" d="M32.8476 181.014C33.6148 180.167 34.5508 179.491 35.5954 179.027C36.64 178.564 37.77 178.325 38.9127 178.325C40.0554 178.325 41.1854 178.564 42.23 179.027C43.2746 179.491 44.2106 180.167 44.9778 181.014C49.2062 185.516 53.0206 191.47 56.3592 197.804C66.239 216.851 71.3506 238.01 71.2555 259.466V482.938H6.99269V258.541C6.91195 237.673 11.7752 217.083 21.1843 198.456C25.6329 189.753 29.6939 184.335 32.8476 181.014Z" fill="#E0E0E0"/>
<path id="Vector_9" d="M7.354 263.307L22.5938 263.377V282.175H7.354V263.307Z" fill="#535461"/>
<path id="Vector_10" d="M55.9893 263.307L71.2291 263.377V282.175H55.9893V263.307Z" fill="#535461"/>
<path id="Vector_11" d="M178.657 263.307L193.905 263.377V282.175H178.657V263.307Z" fill="#535461"/>
<path id="Vector_12" d="M227.292 263.307L242.541 263.377V282.175H227.292V263.307Z" fill="#535461"/>
<g id="Group_2" opacity="0.1">
<path id="Vector_13" opacity="0.1" d="M56.3328 197.513C53.0029 191.18 49.1797 185.225 44.9513 180.724C43.7564 179.404 42.1626 178.511 40.413 178.182C38.6634 177.853 36.8541 178.105 35.2612 178.9C36.1791 179.358 37.0083 179.975 37.7102 180.724C41.9386 185.225 45.753 191.18 49.0916 197.513C58.9714 216.56 64.083 237.719 63.9879 259.175V482.63H71.2467V259.202C71.3406 237.735 66.2228 216.566 56.3328 197.513V197.513Z" fill="black"/>
</g>
<g id="Group_3" opacity="0.1">
<path id="Vector_14" opacity="0.1" d="M199.341 198.13C202.671 191.796 206.494 185.842 210.722 181.34C211.514 180.488 212.47 179.805 213.532 179.332C211.962 178.644 210.215 178.468 208.539 178.829C206.863 179.189 205.343 180.068 204.195 181.34C199.966 185.842 196.152 191.796 192.813 198.13C182.933 217.177 177.822 238.336 177.917 259.792V483.246H184.453V259.827C184.35 238.36 189.458 217.188 199.341 198.13V198.13Z" fill="black"/>
</g>
<path id="Vector_15" d="M133.008 5.80596C131.946 4.54411 130.621 3.52968 129.126 2.83375C127.631 2.13782 126.002 1.77722 124.353 1.77722C122.704 1.77722 121.074 2.13782 119.579 2.83375C118.084 3.52968 116.759 4.54411 115.698 5.80596C109.663 12.5535 104.246 21.4769 99.4536 30.9729C85.3589 59.1084 78.1882 91.0405 78.1882 123.422V482.022H169.883V121.977C169.883 90.512 163.038 59.4343 149.622 31.9419C143.27 18.8959 137.474 10.7918 133.008 5.80596Z" fill="#EEEEEE"/>
<path id="Vector_16" d="M137.632 45.6396H109.17C103.818 45.6396 99.48 49.9779 99.48 55.3294V57.8752C99.48 63.2267 103.818 67.5649 109.17 67.5649H137.632C142.984 67.5649 147.323 63.2267 147.323 57.8752V55.3294C147.323 49.9779 142.984 45.6396 137.632 45.6396Z" fill="#EE224D"/>
<g id="Group_4" opacity="0.1">
<path id="Vector_17" opacity="0.1" d="M169.39 135.684H78.6553V139.208H169.39V135.684Z" fill="black"/>
</g>
<path id="Vector_18" d="M49.4529 501.384H29.1301V556.545H49.4529V501.384Z" fill="#F28E31"/>
<path id="Vector_19" d="M115.504 501.384H95.1812V556.545H115.504V501.384Z" fill="#F28E31"/>
<path id="Vector_20" d="M156.881 501.384H136.558V556.545H156.881V501.384Z" fill="#F28E31"/>
<path id="Vector_21" d="M223.663 501.384H203.34V556.545H223.663V501.384Z" fill="#F28E31"/>
</g>
<defs>
<linearGradient id="paint0_linear" x1="124.947" y1="569.08" x2="124.947" y2="0.0274059" gradientUnits="userSpaceOnUse">
<stop stop-color="#808080" stop-opacity="0.25"/>
<stop offset="0.54" stop-color="#808080" stop-opacity="0.12"/>
<stop offset="1" stop-color="#808080" stop-opacity="0.1"/>
</linearGradient>
</defs>
</svg>
