<svg width="502" height="448" viewBox="0 0 502 448" fill="none" xmlns="http://www.w3.org/2000/svg">
<path d="M87.0094 447.889L72.7114 448L241.065 101.954L252.553 107.642L87.0094 447.889Z" fill="url(#paint0_linear)"/>
<path d="M416.352 447.889L428.125 448L262.297 101.954L250.808 107.642L416.352 447.889Z" fill="url(#paint1_linear)"/>
<path d="M258.853 68.9903H246.056V448H258.853V68.9903Z" fill="url(#paint2_linear)"/>
<path d="M87.0094 444.978L72.7114 445.089L241.065 101.704L252.553 107.345L87.0094 444.978Z" fill="#D6D6D6"/>
<path d="M416.352 444.978L428.125 445.089L262.297 101.704L250.808 107.345L416.352 444.978Z" fill="#D6D6D6"/>
<path d="M258.853 68.9903H246.056V445.089H258.853V68.9903Z" fill="#D6D6D6"/>
<path d="M251 38.425C246.68 38.425 242.538 36.7075 239.483 33.6504C236.429 30.5932 234.713 26.4469 234.713 22.1235V16.3015C234.713 11.9781 236.429 7.83172 239.483 4.7746C242.538 1.71747 246.68 0 251 0C255.32 0 259.462 1.71747 262.517 4.7746C265.571 7.83172 267.287 11.9781 267.287 16.3015V22.1235C267.287 26.4469 265.571 30.5932 262.517 33.6504C259.462 36.7075 255.32 38.425 251 38.425V38.425ZM251 4.07537C247.76 4.07537 244.653 5.36348 242.362 7.65632C240.071 9.94916 238.784 13.0589 238.784 16.3015V22.1235C238.784 25.366 240.071 28.4758 242.362 30.7686C244.653 33.0615 247.76 34.3496 251 34.3496C254.24 34.3496 257.347 33.0615 259.638 30.7686C261.929 28.4758 263.216 25.366 263.216 22.1235V16.3015C263.216 13.0589 261.929 9.94916 259.638 7.65632C257.347 5.36348 254.24 4.07537 251 4.07537V4.07537Z" fill="#BDBDBD"/>
<path d="M502 13.6816H0V248.307H502V13.6816Z" fill="url(#paint3_linear)"/>
<path d="M497.056 18.0481H4.94434V240.447H497.056V18.0481Z" fill="#D6D6D6"/>
<path d="M487.167 25.0345H13.6697V227.639H487.167V25.0345Z" fill="white"/>
<path d="M378.21 32.3119H377.774V177.966H378.21C387.766 177.966 397.229 176.082 406.058 172.422C414.887 168.761 422.909 163.397 429.666 156.634C436.423 149.87 441.784 141.841 445.441 133.005C449.098 124.168 450.98 114.698 450.98 105.133C450.98 95.5684 449.098 86.0976 445.441 77.2611C441.784 68.4246 436.423 60.3956 429.666 53.6324C422.909 46.8693 414.887 41.5045 406.058 37.8443C397.229 34.1841 387.766 32.3002 378.21 32.3002V32.3119Z" fill="#2196F3"/>
<path d="M377.774 32.3235C358.628 32.4381 340.299 40.1011 326.761 53.6511C313.223 67.201 305.567 85.5458 305.452 104.708H377.774V32.3235Z" fill="#69F0AE"/>
<path d="M301.508 105.482C301.508 105.634 301.508 105.785 301.508 105.942C301.509 126.017 309.446 145.276 323.586 159.515C337.726 173.753 356.92 181.813 376.977 181.936V105.482H301.508Z" fill="url(#paint4_linear)"/>
<path d="M303.695 106.46C303.695 106.606 303.695 106.751 303.695 106.897C303.695 126.135 311.3 144.593 324.851 158.238C338.401 171.883 356.796 179.607 376.017 179.724V106.46H303.695Z" fill="white"/>
<path d="M167.76 39.2982H27.3394V49.2421H167.76V39.2982Z" fill="#BDBDBD"/>
<path d="M251.872 55.5706H27.3394V65.5145H251.872V55.5706Z" fill="#E0E0E0"/>
<path d="M251.872 71.8431H27.3394V81.787H251.872V71.8431Z" fill="#E0E0E0"/>
<path d="M251.872 88.1212H27.3394V98.0651H251.872V88.1212Z" fill="#E0E0E0"/>
<path d="M419.981 200.567H404.276V216.286H419.981V200.567Z" fill="#2196F3"/>
<path d="M477.569 204.06H426.38V213.375H477.569V204.06Z" fill="#E0E0E0"/>
<path d="M330.983 200.567H315.277V216.286H330.983V200.567Z" fill="white"/>
<path d="M388.57 204.06H337.381V213.375H388.57V204.06Z" fill="#E0E0E0"/>
<path d="M244.892 200.567H229.187V216.286H244.892V200.567Z" fill="#69F0AE"/>
<path d="M302.48 204.06H251.291V213.375H302.48V204.06Z" fill="#E0E0E0"/>
<path d="M123.063 119.816H118.113V198.82H123.063V119.816Z" fill="#E0E0E0"/>
<path d="M135.784 119.816H130.834V198.82H135.784V119.816Z" fill="#E0E0E0"/>
<path d="M148.512 119.816H143.562V198.82H148.512V119.816Z" fill="#E0E0E0"/>
<path d="M161.233 119.816H156.283V198.82H161.233V119.816Z" fill="#E0E0E0"/>
<path d="M120.521 176.301C125.597 176.301 129.712 172.182 129.712 167.102C129.712 162.022 125.597 157.903 120.521 157.903C115.445 157.903 111.33 162.022 111.33 167.102C111.33 172.182 115.445 176.301 120.521 176.301Z" fill="url(#paint5_linear)"/>
<path d="M133.242 153.659C138.318 153.659 142.433 149.541 142.433 144.46C142.433 139.38 138.318 135.262 133.242 135.262C128.166 135.262 124.052 139.38 124.052 144.46C124.052 149.541 128.166 153.659 133.242 153.659Z" fill="url(#paint6_linear)"/>
<path d="M145.97 164.983C151.046 164.983 155.161 160.864 155.161 155.784C155.161 150.704 151.046 146.585 145.97 146.585C140.894 146.585 136.779 150.704 136.779 155.784C136.779 160.864 140.894 164.983 145.97 164.983Z" fill="url(#paint7_linear)"/>
<path d="M158.691 133.381C163.767 133.381 167.882 129.263 167.882 124.182C167.882 119.102 163.767 114.984 158.691 114.984C153.615 114.984 149.5 119.102 149.5 124.182C149.5 129.263 153.615 133.381 158.691 133.381Z" fill="url(#paint8_linear)"/>
<path d="M120.521 174.886C124.816 174.886 128.298 171.401 128.298 167.102C128.298 162.803 124.816 159.318 120.521 159.318C116.225 159.318 112.743 162.803 112.743 167.102C112.743 171.401 116.225 174.886 120.521 174.886Z" fill="white"/>
<path d="M133.242 152.244C137.538 152.244 141.02 148.759 141.02 144.46C141.02 140.161 137.538 136.676 133.242 136.676C128.947 136.676 125.465 140.161 125.465 144.46C125.465 148.759 128.947 152.244 133.242 152.244Z" fill="#69F0AE"/>
<path d="M145.97 163.568C150.265 163.568 153.747 160.083 153.747 155.784C153.747 151.485 150.265 148 145.97 148C141.674 148 138.192 151.485 138.192 155.784C138.192 160.083 141.674 163.568 145.97 163.568Z" fill="#2196F3"/>
<path d="M158.692 131.966C162.987 131.966 166.469 128.481 166.469 124.183C166.469 119.884 162.987 116.399 158.692 116.399C154.396 116.399 150.914 119.884 150.914 124.183C150.914 128.481 154.396 131.966 158.692 131.966Z" fill="white"/>
<defs>
<linearGradient id="paint0_linear" x1="162.635" y1="448" x2="162.635" y2="101.954" gradientUnits="userSpaceOnUse">
<stop stop-color="#808080" stop-opacity="0.25"/>
<stop offset="0.54" stop-color="#808080" stop-opacity="0.12"/>
<stop offset="1" stop-color="#808080" stop-opacity="0.1"/>
</linearGradient>
<linearGradient id="paint1_linear" x1="103731" y1="101.954" x2="103731" y2="60701.5" gradientUnits="userSpaceOnUse">
<stop stop-color="#808080" stop-opacity="0.25"/>
<stop offset="0.54" stop-color="#808080" stop-opacity="0.12"/>
<stop offset="1" stop-color="#808080" stop-opacity="0.1"/>
</linearGradient>
<linearGradient id="paint2_linear" x1="5800.04" y1="68.9903" x2="5800.04" y2="44981.6" gradientUnits="userSpaceOnUse">
<stop stop-color="#808080" stop-opacity="0.25"/>
<stop offset="0.54" stop-color="#808080" stop-opacity="0.12"/>
<stop offset="1" stop-color="#808080" stop-opacity="0.1"/>
</linearGradient>
<linearGradient id="paint3_linear" x1="216613" y1="100081" x2="216613" y2="5527.37" gradientUnits="userSpaceOnUse">
<stop stop-color="#808080" stop-opacity="0.25"/>
<stop offset="0.54" stop-color="#808080" stop-opacity="0.12"/>
<stop offset="1" stop-color="#808080" stop-opacity="0.1"/>
</linearGradient>
<linearGradient id="paint4_linear" x1="57030.6" y1="28986" x2="57030.6" y2="18946" gradientUnits="userSpaceOnUse">
<stop stop-color="#808080" stop-opacity="0.25"/>
<stop offset="0.54" stop-color="#808080" stop-opacity="0.12"/>
<stop offset="1" stop-color="#808080" stop-opacity="0.1"/>
</linearGradient>
<linearGradient id="paint5_linear" x1="6254.68" y1="-7355.09" x2="5673.82" y2="-7355.09" gradientUnits="userSpaceOnUse">
<stop stop-color="#808080" stop-opacity="0.25"/>
<stop offset="0.54" stop-color="#808080" stop-opacity="0.12"/>
<stop offset="1" stop-color="#808080" stop-opacity="0.1"/>
</linearGradient>
<linearGradient id="paint6_linear" x1="6634.05" y1="-8083.29" x2="6053.38" y2="-8083.29" gradientUnits="userSpaceOnUse">
<stop stop-color="#808080" stop-opacity="0.25"/>
<stop offset="0.54" stop-color="#808080" stop-opacity="0.12"/>
<stop offset="1" stop-color="#808080" stop-opacity="0.1"/>
</linearGradient>
<linearGradient id="paint7_linear" x1="7047.37" y1="-7738.21" x2="6466.7" y2="-7738.21" gradientUnits="userSpaceOnUse">
<stop stop-color="#808080" stop-opacity="0.25"/>
<stop offset="0.54" stop-color="#808080" stop-opacity="0.12"/>
<stop offset="1" stop-color="#808080" stop-opacity="0.1"/>
</linearGradient>
<linearGradient id="paint8_linear" x1="7417.98" y1="-8749.55" x2="6837.12" y2="-8749.55" gradientUnits="userSpaceOnUse">
<stop stop-color="#808080" stop-opacity="0.25"/>
<stop offset="0.54" stop-color="#808080" stop-opacity="0.12"/>
<stop offset="1" stop-color="#808080" stop-opacity="0.1"/>
</linearGradient>
</defs>
</svg>
