<svg width="376" height="312" viewBox="0 0 376 312" fill="none" xmlns="http://www.w3.org/2000/svg">
<path d="M234.308 306.844H140.901L144.068 265.615H231.142L234.308 306.844Z" fill="#E6E6E6"/>
<path d="M240.64 302.087H136.151V311.602H240.64V302.087Z" fill="#E6E6E6"/>
<path d="M366.501 0H9.49895C6.97967 0 4.56358 1.00242 2.78218 2.78675C1.00078 4.57107 0 6.99113 0 9.51455V227.556H376V9.51455C376 6.99113 374.999 4.57107 373.218 2.78675C371.436 1.00242 369.02 0 366.501 0V0Z" fill="#B5B5B5"/>
<path d="M0 227.556V263.235C0 264.485 0.245695 265.722 0.723062 266.877C1.20043 268.031 1.90012 269.08 2.78218 269.963C3.66424 270.847 4.7114 271.548 5.86386 272.026C7.01633 272.504 8.25153 272.75 9.49895 272.75H366.501C367.748 272.75 368.984 272.504 370.136 272.026C371.289 271.548 372.336 270.847 373.218 269.963C374.1 269.08 374.8 268.031 375.277 266.877C375.754 265.722 376 264.485 376 263.235V227.556H0Z" fill="#E6E6E6"/>
<path d="M357.794 19.8218H18.9978V210.113H357.794V19.8218Z" fill="#E6E6E6"/>
<path d="M188.396 259.272C193.642 259.272 197.895 255.012 197.895 249.757C197.895 244.502 193.642 240.242 188.396 240.242C183.15 240.242 178.897 244.502 178.897 249.757C178.897 255.012 183.15 259.272 188.396 259.272Z" fill="#3F3D56"/>
<path d="M29.5617 27.859C30.5573 27.859 31.3643 27.0506 31.3643 26.0534C31.3643 25.0562 30.5573 24.2478 29.5617 24.2478C28.5661 24.2478 27.759 25.0562 27.759 26.0534C27.759 27.0506 28.5661 27.859 29.5617 27.859Z" fill="white"/>
<path d="M36.4042 27.859C37.3998 27.859 38.2069 27.0506 38.2069 26.0534C38.2069 25.0562 37.3998 24.2478 36.4042 24.2478C35.4086 24.2478 34.6016 25.0562 34.6016 26.0534C34.6016 27.0506 35.4086 27.859 36.4042 27.859Z" fill="white"/>
<path d="M43.2467 27.859C44.2423 27.859 45.0494 27.0506 45.0494 26.0534C45.0494 25.0562 44.2423 24.2478 43.2467 24.2478C42.2512 24.2478 41.4441 25.0562 41.4441 26.0534C41.4441 27.0506 42.2512 27.859 43.2467 27.859Z" fill="white"/>
<path d="M348.029 32.1892H27.759V192.002H348.029V32.1892Z" fill="white"/>
<path d="M117.094 55.675H47.0947V116.913H117.094V55.675Z" fill="#E6E6E6"/>
<path d="M223.002 55.8596H153.213V116.913H223.002V55.8596Z" fill="#E6E6E6"/>
<path d="M328.694 55.2607H258.22V116.913H328.694V55.2607Z" fill="#E6E6E6"/>
<path d="M115.558 143.643H47.0947V149.978H115.558V143.643Z" fill="#E6E6E6"/>
<path d="M81.3969 154.796H47.0947V161.13H81.3969V154.796Z" fill="#F50057"/>
<path d="M222.818 143.643H154.354V149.978H222.818V143.643Z" fill="#E6E6E6"/>
<path d="M188.656 154.796H154.354V161.13H188.656V154.796Z" fill="#F50057"/>
<path d="M327.396 143.643H258.933V149.978H327.396V143.643Z" fill="#E6E6E6"/>
<path d="M293.235 154.796H258.933V161.13H293.235V154.796Z" fill="#F50057"/>
<path d="M175.626 133.494C177.411 133.494 178.858 132.045 178.858 130.257C178.858 128.469 177.411 127.02 175.626 127.02C173.841 127.02 172.394 128.469 172.394 130.257C172.394 132.045 173.841 133.494 175.626 133.494Z" fill="#F50057"/>
<path d="M187.894 133.494C189.679 133.494 191.126 132.045 191.126 130.257C191.126 128.469 189.679 127.02 187.894 127.02C186.109 127.02 184.662 128.469 184.662 130.257C184.662 132.045 186.109 133.494 187.894 133.494Z" fill="#E6E6E6"/>
<path d="M200.162 133.494C201.947 133.494 203.394 132.045 203.394 130.257C203.394 128.469 201.947 127.02 200.162 127.02C198.377 127.02 196.93 128.469 196.93 130.257C196.93 132.045 198.377 133.494 200.162 133.494Z" fill="#E6E6E6"/>
<path d="M69.826 133.494C71.611 133.494 73.0581 132.045 73.0581 130.257C73.0581 128.469 71.611 127.02 69.826 127.02C68.041 127.02 66.594 128.469 66.594 130.257C66.594 132.045 68.041 133.494 69.826 133.494Z" fill="#F50057"/>
<path d="M82.0941 133.494C83.8791 133.494 85.3261 132.045 85.3261 130.257C85.3261 128.469 83.8791 127.02 82.0941 127.02C80.3091 127.02 78.8621 128.469 78.8621 130.257C78.8621 132.045 80.3091 133.494 82.0941 133.494Z" fill="#F50057"/>
<path d="M94.3622 133.494C96.1472 133.494 97.5942 132.045 97.5942 130.257C97.5942 128.469 96.1472 127.02 94.3622 127.02C92.5772 127.02 91.1301 128.469 91.1301 130.257C91.1301 132.045 92.5772 133.494 94.3622 133.494Z" fill="#E6E6E6"/>
<path d="M284.035 133.494C285.82 133.494 287.267 132.045 287.267 130.257C287.267 128.469 285.82 127.02 284.035 127.02C282.25 127.02 280.803 128.469 280.803 130.257C280.803 132.045 282.25 133.494 284.035 133.494Z" fill="#F50057"/>
<path d="M296.303 133.494C298.088 133.494 299.535 132.045 299.535 130.257C299.535 128.469 298.088 127.02 296.303 127.02C294.518 127.02 293.071 128.469 293.071 130.257C293.071 132.045 294.518 133.494 296.303 133.494Z" fill="#F50057"/>
<path d="M308.571 133.494C310.356 133.494 311.803 132.045 311.803 130.257C311.803 128.469 310.356 127.02 308.571 127.02C306.786 127.02 305.339 128.469 305.339 130.257C305.339 132.045 306.786 133.494 308.571 133.494Z" fill="#F50057"/>
<path d="M293.457 68.1394C289.913 68.1394 286.449 69.192 283.502 71.1641C280.556 73.1362 278.259 75.9391 276.903 79.2186C275.547 82.498 275.192 86.1066 275.883 89.5881C276.575 93.0695 278.281 96.2674 280.787 98.7774C283.293 101.287 286.486 102.997 289.961 103.689C293.437 104.382 297.04 104.026 300.314 102.668C303.588 101.309 306.386 99.0091 308.355 96.0577C310.324 93.1063 311.375 89.6364 311.375 86.0867C311.361 81.3311 309.469 76.7742 306.111 73.4114C302.754 70.0487 298.205 68.1533 293.457 68.1394V68.1394ZM293.457 73.5236C294.52 73.5236 295.559 73.8394 296.443 74.431C297.327 75.0226 298.016 75.8635 298.423 76.8474C298.83 77.8312 298.936 78.9138 298.729 79.9582C298.522 81.0026 298.01 81.962 297.258 82.715C296.506 83.468 295.548 83.9808 294.506 84.1885C293.463 84.3963 292.382 84.2897 291.4 83.8821C290.418 83.4746 289.578 82.7845 288.988 81.8991C288.397 81.0137 288.082 79.9727 288.082 78.9078C288.086 77.4813 288.654 76.1146 289.661 75.1059C290.668 74.0972 292.033 73.5284 293.457 73.5236ZM293.457 99.4437C291.334 99.434 289.244 98.9055 287.371 97.9041C285.498 96.9027 283.896 95.4586 282.706 93.6971C282.792 90.1076 289.873 88.1317 293.457 88.1317C297.041 88.1317 304.122 90.1076 304.208 93.6971C303.016 95.4573 301.415 96.9003 299.542 97.9016C297.668 98.9028 295.58 99.4321 293.457 99.4437V99.4437Z" fill="#F50057"/>
<path d="M188.108 68.439C184.564 68.439 181.1 69.4915 178.153 71.4636C175.207 73.4357 172.91 76.2387 171.554 79.5181C170.198 82.7976 169.843 86.4062 170.534 89.8876C171.226 93.3691 172.932 96.567 175.438 99.0769C177.944 101.587 181.137 103.296 184.612 103.989C188.088 104.681 191.691 104.326 194.965 102.967C198.239 101.609 201.037 99.3087 203.006 96.3573C204.975 93.4059 206.026 89.9359 206.026 86.3863C206.012 81.6306 204.12 77.0738 200.763 73.711C197.405 70.3482 192.856 68.4529 188.108 68.439V68.439ZM188.108 73.8232C189.171 73.8232 190.211 74.1389 191.095 74.7306C191.978 75.3222 192.667 76.1631 193.074 77.1469C193.481 78.1307 193.588 79.2133 193.38 80.2578C193.173 81.3022 192.661 82.2616 191.909 83.0146C191.157 83.7676 190.2 84.2803 189.157 84.4881C188.114 84.6958 187.033 84.5892 186.051 84.1817C185.069 83.7742 184.229 83.0841 183.639 82.1987C183.048 81.3132 182.733 80.2723 182.733 79.2074C182.738 77.7808 183.305 76.4141 184.312 75.4054C185.319 74.3967 186.684 73.8279 188.108 73.8232V73.8232ZM188.108 99.7432C185.985 99.7335 183.896 99.2051 182.022 98.2036C180.149 97.2022 178.548 95.7582 177.357 93.9966C177.444 90.4072 184.525 88.4312 188.108 88.4312C191.692 88.4312 198.773 90.4072 198.859 93.9966C197.667 95.7568 196.066 97.1999 194.193 98.2011C192.32 99.2024 190.231 99.7317 188.108 99.7432V99.7432Z" fill="#F50057"/>
<path d="M82.0942 68.3469C78.5504 68.3469 75.0861 69.3995 72.1395 71.3716C69.1929 73.3437 66.8964 76.1466 65.5402 79.4261C64.184 82.7055 63.8292 86.3141 64.5206 89.7956C65.2119 93.277 66.9184 96.4749 69.4243 98.9849C71.9302 101.495 75.1228 103.204 78.5986 103.897C82.0743 104.589 85.677 104.234 88.951 102.875C92.2251 101.517 95.0235 99.2167 96.9924 96.2652C98.9612 93.3138 100.012 89.8439 100.012 86.2942C99.9982 81.5386 98.1059 76.9817 94.7487 73.6189C91.3914 70.2562 86.842 68.3608 82.0942 68.3469ZM82.0942 73.7311C83.1573 73.7311 84.1966 74.0469 85.0806 74.6385C85.9646 75.2301 86.6535 76.071 87.0604 77.0549C87.4672 78.0387 87.5737 79.1213 87.3663 80.1657C87.1589 81.2101 86.6469 82.1695 85.8951 82.9225C85.1434 83.6755 84.1856 84.1883 83.1429 84.3961C82.1001 84.6038 81.0193 84.4972 80.0371 84.0897C79.0549 83.6821 78.2154 82.992 77.6247 82.1066C77.0341 81.2212 76.7188 80.1802 76.7188 79.1153C76.7236 77.6888 77.2914 76.3221 78.2985 75.3134C79.3055 74.3047 80.67 73.7359 82.0942 73.7311V73.7311ZM82.0942 99.6512C79.9707 99.6415 77.8817 99.113 76.0082 98.1116C74.1348 97.1102 72.5336 95.6661 71.3434 93.9046C71.4296 90.3151 78.5106 88.3392 82.0942 88.3392C85.6778 88.3392 92.7588 90.3151 92.8449 93.9046C91.6534 95.6648 90.0519 97.1079 88.1788 98.1091C86.3057 99.1103 84.2173 99.6396 82.0942 99.6512V99.6512Z" fill="#F50057"/>
</svg>
