<svg width="286" height="307" viewBox="0 0 286 307" fill="none" xmlns="http://www.w3.org/2000/svg">
<g clip-path="url(#clip0)">
<path d="M52.7578 52.2188L64.2213 40.1881C64.2213 40.1881 76.8312 21.2828 86.002 26.4388C95.1728 31.5948 72.819 43.6255 72.819 43.6255L61.3554 62.5308L52.7578 52.2188Z" fill="#FDA57D"/>
<path d="M16.6479 285.385C16.6479 285.385 8.0503 301.998 14.3552 303.144C20.6602 304.29 51.6117 306.008 52.1848 304.29C52.758 302.571 57.3434 296.842 53.9044 294.551C50.4653 292.259 36.7091 290.541 36.7091 290.541L32.1237 285.957L16.6479 285.385Z" fill="#2F2E41"/>
<path d="M12.0624 123.257C12.0624 123.257 -6.27916 146.173 8.62339 169.661L12.0624 209.19C12.0624 209.19 5.7575 263.615 13.782 281.947L14.9283 288.249H34.9895L29.8309 240.126C29.8309 240.126 30.4041 234.397 32.1236 233.252C33.8431 232.106 61.9287 170.234 61.9287 170.234C61.9287 170.234 57.3433 161.641 59.0629 159.922C60.7824 158.203 57.3433 123.83 55.6238 122.684C53.9043 121.538 12.0624 123.257 12.0624 123.257Z" fill="#2F2E41"/>
<path d="M44.7335 280.229L47.0261 293.405L24.6725 292.259L27.5384 277.937L44.7335 280.229Z" fill="#FDA57D"/>
<path d="M40.7213 46.4902C50.218 46.4902 57.9165 38.7955 57.9165 29.3036C57.9165 19.8117 50.218 12.1169 40.7213 12.1169C31.2246 12.1169 23.526 19.8117 23.526 29.3036C23.526 38.7955 31.2246 46.4902 40.7213 46.4902Z" fill="#FDA57D"/>
<path d="M25.2455 32.168L23.526 52.7919L41.8676 61.3853C41.8676 61.3853 38.7152 42.1935 41.0079 37.0375L25.2455 32.168Z" fill="#FDA57D"/>
<path d="M44.1603 60.2394L42.4408 53.3648L18.9406 44.7715C18.9406 44.7715 16.6479 44.7715 17.221 48.7817C17.7942 52.7919 17.7942 52.219 17.7942 52.219C17.7942 52.219 9.76974 55.6564 9.19658 61.3852C8.62343 67.1141 -0.5474 68.8328 0.0257742 77.4261C0.598949 86.0194 3.46483 90.6025 3.46483 90.6025C3.46483 90.6025 0.598947 97.4772 5.18435 101.487C5.18435 101.487 9.76976 109.508 7.47705 115.237C5.18435 120.966 2.31849 130.705 8.62341 128.986C14.9283 127.267 58.4897 124.403 58.4897 124.403C58.4897 124.403 64.7946 100.915 57.9165 92.3212C57.9165 92.3212 57.9165 87.1652 52.7579 76.8532C47.5994 66.5412 44.1603 60.2394 44.1603 60.2394Z" fill="#575A89"/>
<path d="M13.782 124.976C13.782 124.976 21.2333 156.485 30.4041 159.922C30.4041 159.922 32.1236 182.838 41.8676 181.692C51.6116 180.546 41.8676 159.922 41.8676 159.922L30.9772 120.393L13.782 124.976Z" fill="#FDA57D"/>
<path d="M43.0139 61.9581C43.0139 61.9581 51.6116 48.2088 53.9043 50.5003C56.197 52.7918 67.6605 59.6665 67.0873 64.2496C66.5141 68.8327 61.3555 68.8327 61.3555 68.8327L49.3189 77.999L43.0139 61.9581Z" fill="#575A89"/>
<path d="M55.0507 164.505L61.9288 169.447L66.5142 218.357C66.5142 218.357 49.8921 284.812 45.3067 285.385C40.7213 285.957 21.8065 285.957 22.3797 284.239C22.9529 282.52 25.8187 275.645 25.8187 273.927C25.8187 272.208 31.7967 258.464 31.7967 258.464L39.575 226.377L37.8554 201.17L55.0507 164.505Z" fill="#2F2E41"/>
<path d="M46.453 288.822C46.453 288.822 22.3796 281.374 21.2333 283.093C20.0869 284.812 12.4406 302.134 23.1419 304.071C33.8432 306.009 72.2459 309.446 72.2459 304.29C72.2459 299.134 71.0996 295.697 67.6605 295.697C64.2215 295.697 48.7457 288.249 47.5994 286.53C46.453 284.812 46.453 288.822 46.453 288.822Z" fill="#2F2E41"/>
<path d="M24.4165 30.4331C23.7006 28.9606 25.2876 27.358 26.7127 28.1649L26.743 28.1823C27.2425 28.4856 27.6416 28.9293 27.8903 29.4579C28.139 29.9866 28.2264 30.5767 28.1416 31.1547C30.2085 29.0934 28.6852 24.9595 30.9185 23.0794C31.9522 22.2092 33.6302 22.0178 34.1613 20.7756C34.4704 20.0524 34.2602 19.1953 34.5327 18.4575C34.9374 17.3621 36.2302 16.9046 37.3857 16.7324C41.0196 16.1908 44.6946 17.1124 48.253 18.0269C49.5614 18.3632 50.9372 18.7369 51.8902 19.6939C52.894 20.7019 53.2433 22.1666 53.8588 23.4489C54.4743 24.7312 58.5112 24.6153 59.9225 24.4338C60.4132 23.0409 56.7896 22.9359 56.4938 21.489C55.6854 17.5343 58.5008 13.329 57.1196 9.53606C56.2874 7.25053 54.1132 5.7376 51.9243 4.67497C45.8436 1.75328 38.9021 1.16124 32.414 3.01092C31.7536 3.15663 31.1365 3.45487 30.6121 3.88176C29.779 4.65905 29.6246 5.90703 29.0698 6.90197C27.8058 9.16892 24.808 9.7077 22.7865 11.3365C19.7251 13.8034 19.3799 18.2576 19.2808 22.1869C19.2309 24.1656 19.1956 26.2217 20.0065 28.0276C20.8174 29.8335 22.739 31.3049 24.6829 30.9267C24.5909 30.7773 24.5026 30.6102 24.4165 30.4331Z" fill="#2F2E41"/>
<path d="M27.407 67.5407C25.1882 66.0016 22.5215 65.241 19.8242 65.378C17.1269 65.515 14.5511 66.5419 12.4998 68.2979C8.54949 71.6531 4.29994 76.4603 4.61109 81.4363C5.18427 90.6025 8.62332 128.413 13.2087 128.986C17.7941 129.559 34.4162 124.976 34.4162 122.111C34.4162 119.247 30.404 115.81 30.404 115.81L35.2756 86.5949C36.4794 79.3755 33.6071 71.9996 27.6642 67.7235C27.5791 67.6623 27.4933 67.6014 27.407 67.5407Z" fill="#575A89"/>
<g opacity="0.5">
<path opacity="0.5" d="M118.798 70.974C135.098 70.974 148.311 57.7671 148.311 41.4755C148.311 25.184 135.098 11.9771 118.798 11.9771C102.498 11.9771 89.2847 25.184 89.2847 41.4755C89.2847 57.7671 102.498 70.974 118.798 70.974Z" fill="url(#paint0_linear)"/>
</g>
<path d="M118.855 70.1637C134.811 70.1637 147.746 57.2352 147.746 41.287C147.746 25.3389 134.811 12.4104 118.855 12.4104C102.899 12.4104 89.9642 25.3389 89.9642 41.287C89.9642 57.2352 102.899 70.1637 118.855 70.1637Z" fill="#EE224D"/>
<path d="M134.749 44.1328C134.749 53.7383 127.844 58.4654 118.879 58.4654C109.913 58.4654 102.283 53.7383 102.283 44.1328C102.283 34.5273 109.551 26.7405 118.516 26.7405C127.481 26.7405 134.749 34.5273 134.749 44.1328Z" fill="#333333"/>
<path d="M118.879 70.2775C124.524 70.2865 130.047 68.6345 134.759 65.5275C133.695 59.7124 129.644 59.3809 129.644 59.3809H107.305C107.305 59.3809 103.482 59.6946 102.288 65.044C107.145 68.4587 112.94 70.2869 118.879 70.2775V70.2775Z" fill="#CCCCCC"/>
<path opacity="0.1" d="M114.075 52.2878H123.01V59.6816C123.01 60.7999 122.566 61.8723 121.775 62.6631C120.984 63.4538 119.911 63.898 118.792 63.898H118.294C117.175 63.898 116.102 63.4538 115.311 62.6631C114.519 61.8723 114.075 60.7999 114.075 59.6816V52.2878H114.075Z" fill="black"/>
<path d="M114.88 51.957H122.206C122.419 51.957 122.624 52.0418 122.775 52.1926C122.926 52.3435 123.01 52.5481 123.01 52.7615V59.3508C123.01 60.4691 122.566 61.5415 121.775 62.3323C120.984 63.123 119.911 63.5672 118.792 63.5672H118.293C117.175 63.5672 116.102 63.123 115.311 62.3323C114.519 61.5415 114.075 60.4691 114.075 59.3508V52.7614C114.075 52.5481 114.16 52.3435 114.311 52.1926C114.462 52.0418 114.666 51.957 114.88 51.957V51.957Z" fill="#FDA57D"/>
<path opacity="0.1" d="M114.091 55.6598C116.971 56.7353 120.141 56.744 123.027 55.6845V54.5874H114.091V55.6598Z" fill="black"/>
<path d="M118.576 56.258C125.649 56.258 131.383 50.5268 131.383 43.457C131.383 36.3872 125.649 30.656 118.576 30.656C111.502 30.656 105.768 36.3872 105.768 43.457C105.768 50.5268 111.502 56.258 118.576 56.258Z" fill="#FDA57D"/>
<path opacity="0.1" d="M103.814 44.2937C103.814 44.2937 111.789 43.3275 117.831 35.5976C117.831 35.5976 125.807 44.3743 131.365 43.408C131.365 43.408 134.588 40.0262 131.365 36.6443C128.143 33.2625 125.646 28.9949 121.376 29.5586C117.106 30.1222 111.87 30.3638 109.614 32.3768C107.358 34.3898 103.814 44.2937 103.814 44.2937Z" fill="black"/>
<path d="M103.814 44.1326C103.814 44.1326 111.789 43.1664 117.831 35.4364C117.831 35.4364 125.807 44.2131 131.365 43.2469C131.365 43.2469 134.588 39.8651 131.365 36.4832C128.143 33.1014 125.646 28.8338 121.376 29.3974C117.106 29.9611 111.87 30.2026 109.614 32.2156C107.358 34.2286 103.814 44.1326 103.814 44.1326Z" fill="#333333"/>
<path d="M105.763 45.6776C106.421 45.6776 106.955 44.678 106.955 43.4449C106.955 42.2118 106.421 41.2122 105.763 41.2122C105.105 41.2122 104.572 42.2118 104.572 43.4449C104.572 44.678 105.105 45.6776 105.763 45.6776Z" fill="#FDA57D"/>
<path d="M131.381 45.6776C132.039 45.6776 132.573 44.678 132.573 43.4449C132.573 42.2118 132.039 41.2122 131.381 41.2122C130.723 41.2122 130.19 42.2118 130.19 43.4449C130.19 44.678 130.723 45.6776 131.381 45.6776Z" fill="#FDA57D"/>
<g opacity="0.5">
<path opacity="0.5" d="M243.787 73.0783C260.087 73.0783 273.301 59.8714 273.301 43.5798C273.301 27.2882 260.087 14.0813 243.787 14.0813C227.488 14.0813 214.274 27.2882 214.274 43.5798C214.274 59.8714 227.488 73.0783 243.787 73.0783Z" fill="url(#paint1_linear)"/>
</g>
<path d="M243.845 72.2677C259.801 72.2677 272.736 59.3392 272.736 43.3911C272.736 27.4429 259.801 14.5144 243.845 14.5144C227.889 14.5144 214.954 27.4429 214.954 43.3911C214.954 59.3392 227.889 72.2677 243.845 72.2677Z" fill="#EE224D"/>
<path d="M243.868 72.3817C249.513 72.3908 255.036 70.7388 259.749 67.6317C258.684 61.8167 254.633 61.4851 254.633 61.4851H232.295C232.295 61.4851 228.471 61.7989 227.277 67.1482C232.134 70.5629 237.93 72.3911 243.868 72.3817V72.3817Z" fill="#CCCCCC"/>
<path d="M243.565 56.7207C251.267 56.7207 257.51 50.4804 257.51 42.7826C257.51 35.0848 251.267 28.8445 243.565 28.8445C235.863 28.8445 229.62 35.0848 229.62 42.7826C229.62 50.4804 235.863 56.7207 243.565 56.7207Z" fill="#72351C"/>
<path opacity="0.1" d="M239.064 54.3918H248V61.7856C248 62.9039 247.555 63.9763 246.764 64.7671C245.973 65.5578 244.9 66.002 243.781 66.002H243.283C242.164 66.002 241.091 65.5578 240.3 64.7671C239.509 63.9763 239.064 62.9039 239.064 61.7856V54.3918Z" fill="black"/>
<path d="M239.869 54.061H247.195C247.408 54.061 247.613 54.1458 247.764 54.2966C247.915 54.4475 248 54.6521 248 54.8655V61.4548C248 62.573 247.555 63.6455 246.764 64.4362C245.973 65.227 244.9 65.6712 243.781 65.6712H243.283C242.164 65.6712 241.091 65.227 240.3 64.4362C239.509 63.6455 239.064 62.573 239.064 61.4548V54.8655C239.064 54.6521 239.149 54.4475 239.3 54.2966C239.451 54.1458 239.656 54.061 239.869 54.061Z" fill="#FDA57D"/>
<path opacity="0.1" d="M239.081 57.7641C241.961 58.8395 245.131 58.8483 248.016 57.7887V56.6917H239.081V57.7641Z" fill="black"/>
<path d="M243.565 58.3622C250.639 58.3622 256.373 52.631 256.373 45.5612C256.373 38.4915 250.639 32.7603 243.565 32.7603C236.492 32.7603 230.758 38.4915 230.758 45.5612C230.758 52.631 236.492 58.3622 243.565 58.3622Z" fill="#FDA57D"/>
<path opacity="0.1" d="M234.442 33.9171C234.442 33.9171 239.84 44.8678 255.066 38.5067L251.521 32.9508L245.238 30.6963L234.442 33.9171Z" fill="black"/>
<path d="M234.442 33.7562C234.442 33.7562 239.84 44.7069 255.066 38.3458L251.521 32.79L245.238 30.5354L234.442 33.7562Z" fill="#72351C"/>
<path d="M234.395 33.0164C234.758 31.8903 235.387 30.8679 236.228 30.0351C238.748 27.5461 242.877 27.0206 244.996 24.1826C245.111 24.3834 245.183 24.6061 245.207 24.8364C245.231 25.0667 245.206 25.2994 245.135 25.5196C245.063 25.7398 244.946 25.9426 244.792 26.1149C244.637 26.2871 244.448 26.4251 244.236 26.5199C246.263 26.5067 248.618 26.3292 249.765 24.6589C250.049 25.3188 250.139 26.0457 250.026 26.7549C249.913 27.4642 249.6 28.1267 249.125 28.6655C250.924 28.7471 252.843 29.9674 252.96 31.7635C253.037 32.96 252.286 34.0929 251.303 34.7792C250.28 35.4133 249.144 35.8412 247.957 36.0386C244.537 36.7922 232.163 39.9509 234.395 33.0164Z" fill="#72351C"/>
<path d="M256.372 45.6731H256.033L249.427 51.5511C243.062 48.5718 238.39 51.5511 238.39 51.5511L231.462 45.9147L230.763 46.0024C230.858 49.3621 232.271 52.5498 234.697 54.8771C237.123 57.2045 240.368 58.4847 243.73 58.4415C247.092 58.3983 250.303 57.035 252.668 54.646C255.034 52.2571 256.364 49.0341 256.372 45.6731V45.6731ZM243.546 53.8056C241.054 53.8056 239.034 53.3009 239.034 52.6783C239.034 52.0558 241.054 51.5511 243.546 51.5511C246.037 51.5511 248.057 52.0558 248.057 52.6783C248.057 53.3009 246.037 53.8056 243.546 53.8056V53.8056Z" fill="#72351C"/>
<path d="M230.753 47.7816C231.411 47.7816 231.944 46.782 231.944 45.5489C231.944 44.3158 231.411 43.3162 230.753 43.3162C230.095 43.3162 229.561 44.3158 229.561 45.5489C229.561 46.782 230.095 47.7816 230.753 47.7816Z" fill="#FDA57D"/>
<path d="M256.371 47.7816C257.029 47.7816 257.562 46.782 257.562 45.5489C257.562 44.3158 257.029 43.3162 256.371 43.3162C255.713 43.3162 255.179 44.3158 255.179 45.5489C255.179 46.782 255.713 47.7816 256.371 47.7816Z" fill="#FDA57D"/>
<g opacity="0.5">
<path opacity="0.5" d="M181.296 121.474C197.596 121.474 210.81 108.267 210.81 91.9756C210.81 75.684 197.596 62.4771 181.296 62.4771C164.997 62.4771 151.783 75.684 151.783 91.9756C151.783 108.267 164.997 121.474 181.296 121.474Z" fill="url(#paint2_linear)"/>
</g>
<path d="M181.296 120.691C197.252 120.691 210.187 107.763 210.187 91.8146C210.187 75.8665 197.252 62.938 181.296 62.938C165.34 62.938 152.405 75.8665 152.405 91.8146C152.405 107.763 165.34 120.691 181.296 120.691Z" fill="#EE224D"/>
<path d="M170.021 92.0718C170.021 92.0718 166.744 108.201 164.957 107.308C164.957 107.308 182.199 122.193 197.423 107.308C197.423 107.308 194.742 95.9418 190.87 92.0718H170.021Z" fill="#333333"/>
<path d="M181.377 120.778C187.022 120.787 192.545 119.135 197.257 116.028C196.193 110.213 192.142 109.881 192.142 109.881H169.803C169.803 109.881 165.98 110.195 164.786 115.544C169.643 118.959 175.439 120.787 181.377 120.778V120.778Z" fill="#CCCCCC"/>
<path d="M181.074 103.979C188.147 103.979 193.881 98.2482 193.881 91.1784C193.881 84.1086 188.147 78.3774 181.074 78.3774C174.001 78.3774 168.267 84.1086 168.267 91.1784C168.267 98.2482 174.001 103.979 181.074 103.979Z" fill="#333333"/>
<path opacity="0.1" d="M176.573 102.788H185.509V110.182C185.509 111.3 185.064 112.372 184.273 113.163C183.482 113.954 182.409 114.398 181.29 114.398H180.792C179.673 114.398 178.6 113.954 177.809 113.163C177.018 112.372 176.573 111.3 176.573 110.182V102.788V102.788Z" fill="black"/>
<path d="M177.378 102.457H184.704C184.917 102.457 185.122 102.542 185.273 102.693C185.424 102.843 185.509 103.048 185.509 103.261V109.851C185.509 110.969 185.064 112.042 184.273 112.832C183.482 113.623 182.409 114.067 181.29 114.067H180.792C179.673 114.067 178.6 113.623 177.809 112.832C177.018 112.042 176.573 110.969 176.573 109.851V103.261C176.573 103.048 176.658 102.843 176.809 102.693C176.96 102.542 177.165 102.457 177.378 102.457H177.378Z" fill="#FDA57D"/>
<path opacity="0.1" d="M176.59 106.16C179.469 107.236 182.639 107.244 185.525 106.185V105.088H176.59V106.16Z" fill="black"/>
<path d="M181.074 106.758C188.147 106.758 193.881 101.027 193.881 93.957C193.881 86.8872 188.147 81.156 181.074 81.156C174.001 81.156 168.267 86.8872 168.267 93.957C168.267 101.027 174.001 106.758 181.074 106.758Z" fill="#FDA57D"/>
<path d="M168.829 89.0948H193.253C193.253 89.0948 191.168 79.2378 181.934 79.8662C172.701 80.4947 168.829 89.0948 168.829 89.0948Z" fill="#333333"/>
<path d="M168.531 95.6442C169.189 95.6442 169.723 94.6446 169.723 93.4114C169.723 92.1783 169.189 91.1787 168.531 91.1787C167.873 91.1787 167.34 92.1783 167.34 93.4114C167.34 94.6446 167.873 95.6442 168.531 95.6442Z" fill="#FDA57D"/>
<path d="M193.551 95.6442C194.209 95.6442 194.742 94.6446 194.742 93.4114C194.742 92.1783 194.209 91.1787 193.551 91.1787C192.893 91.1787 192.359 92.1783 192.359 93.4114C192.359 94.6446 192.893 95.6442 193.551 95.6442Z" fill="#FDA57D"/>
<path opacity="0.1" d="M168.829 89.4254H193.253C193.253 89.4254 191.168 79.5683 181.934 80.1968C172.701 80.8253 168.829 89.4254 168.829 89.4254Z" fill="black"/>
<path d="M181.296 65.089C186.617 65.089 191.818 66.6659 196.241 69.6202C200.665 72.5746 204.113 76.7737 206.149 81.6866C208.185 86.5995 208.718 92.0055 207.68 97.221C206.642 102.437 204.08 107.227 200.318 110.987C196.556 114.748 191.762 117.308 186.544 118.346C181.326 119.383 175.917 118.851 171.002 116.816C166.087 114.781 161.885 111.335 158.93 106.913C155.974 102.492 154.396 97.2933 154.396 91.9757C154.396 88.4448 155.092 84.9486 156.444 81.6866C157.796 78.4245 159.777 75.4606 162.275 72.9639C164.773 70.4672 167.738 68.4868 171.002 67.1356C174.266 65.7844 177.764 65.089 181.296 65.089V65.089ZM181.296 58.4492C174.662 58.4492 168.177 60.4155 162.661 64.0994C157.145 67.7834 152.845 73.0195 150.306 79.1457C147.768 85.2718 147.103 92.0129 148.398 98.5164C149.692 105.02 152.887 110.994 157.578 115.682C162.269 120.371 168.246 123.564 174.752 124.858C181.259 126.152 188.004 125.488 194.133 122.95C200.262 120.413 205.501 116.115 209.187 110.602C212.872 105.089 214.84 98.6066 214.84 91.9757C214.83 83.087 211.292 74.5652 205.004 68.28C198.716 61.9947 190.189 58.4593 181.296 58.4492V58.4492Z" fill="white"/>
<path d="M184.193 50.6116H176.33V58.8844H184.193V50.6116Z" fill="white"/>
<path d="M198.216 53.9633L193.953 61.0544L200.693 65.1022L204.956 58.011L198.216 53.9633Z" fill="white"/>
<path d="M214.965 67.5117L207.726 71.5225L211.538 78.3963L218.777 74.3855L214.965 67.5117Z" fill="white"/>
<path d="M212.008 105.164L207.841 111.829L214.86 116.213L219.027 109.548L212.008 105.164Z" fill="white"/>
<path d="M147.627 67.5117L143.815 74.3855L151.055 78.3962L154.867 71.5225L147.627 67.5117Z" fill="white"/>
<path d="M150.585 105.164L143.566 109.548L147.733 116.213L154.752 111.829L150.585 105.164Z" fill="white"/>
<path d="M164.376 53.9632L157.636 58.011L161.899 65.1022L168.639 61.0544L164.376 53.9632Z" fill="white"/>
<path d="M184.193 125.067H176.33V133.34H184.193V125.067Z" fill="white"/>
<path d="M200.693 118.849L193.953 122.897L198.216 129.988L204.956 125.94L200.693 118.849Z" fill="white"/>
<path d="M161.899 118.849L157.636 125.94L164.376 129.988L168.639 122.897L161.899 118.849Z" fill="white"/>
<path d="M148.602 88.6665H139.084V95.6984H148.602V88.6665Z" fill="white"/>
<path d="M213.99 95.6985H223.509V88.6666H213.99V95.6985Z" fill="white"/>
<path d="M243.787 16.6928C249.108 16.6927 254.309 18.2696 258.732 21.224C263.156 24.1783 266.604 28.3774 268.64 33.2903C270.676 38.2032 271.209 43.6092 270.171 48.8247C269.133 54.0403 266.571 58.831 262.809 62.5912C259.047 66.3513 254.253 68.9121 249.035 69.9495C243.817 70.9869 238.408 70.4545 233.493 68.4195C228.578 66.3845 224.376 62.9384 221.421 58.5169C218.465 54.0954 216.887 48.8971 216.887 43.5794C216.887 36.4487 219.721 29.6099 224.766 24.5677C229.811 19.5255 236.653 16.6928 243.787 16.6928V16.6928ZM243.787 10.053C237.153 10.053 230.668 12.0193 225.152 15.7032C219.635 19.3871 215.336 24.6233 212.797 30.7494C210.259 36.8756 209.594 43.6166 210.889 50.1201C212.183 56.6236 215.378 62.5975 220.069 67.2862C224.76 71.975 230.737 75.1681 237.243 76.4617C243.75 77.7553 250.495 77.0914 256.624 74.5538C262.753 72.0163 267.992 67.7191 271.678 62.2057C275.363 56.6924 277.331 50.2103 277.331 43.5794C277.321 34.6908 273.783 26.169 267.495 19.8838C261.206 13.5985 252.68 10.063 243.787 10.053V10.053Z" fill="white"/>
<path d="M246.684 2.21558H238.821V10.4884H246.684V2.21558Z" fill="white"/>
<path d="M260.708 5.56725L256.445 12.6584L263.185 16.7062L267.448 9.61503L260.708 5.56725Z" fill="white"/>
<path d="M277.456 19.1155L270.217 23.1262L274.029 30L281.268 25.9893L277.456 19.1155Z" fill="white"/>
<path d="M274.499 56.7679L270.332 63.4329L277.351 67.8168L281.518 61.1518L274.499 56.7679Z" fill="white"/>
<path d="M210.119 19.1154L206.306 25.9893L213.546 30L217.358 23.1262L210.119 19.1154Z" fill="white"/>
<path d="M213.076 56.7682L206.057 61.1521L210.224 67.8171L217.243 63.4331L213.076 56.7682Z" fill="white"/>
<path d="M226.867 5.56722L220.127 9.61499L224.39 16.7062L231.13 12.6584L226.867 5.56722Z" fill="white"/>
<path d="M246.684 76.6709H238.821V84.9437H246.684V76.6709Z" fill="white"/>
<path d="M263.186 70.4527L256.446 74.5005L260.709 81.5917L267.449 77.5439L263.186 70.4527Z" fill="white"/>
<path d="M224.39 70.453L220.127 77.5442L226.867 81.592L231.13 74.5008L224.39 70.453Z" fill="white"/>
<path d="M211.093 40.2705H201.575V47.3024H211.093V40.2705Z" fill="white"/>
<path d="M276.481 47.3025H286V40.2706H276.481V47.3025Z" fill="white"/>
<path d="M118.788 14.6244C119.104 14.6244 119.421 14.6299 119.739 14.6409C126.786 14.8857 133.456 17.8868 138.312 22.9981C143.167 28.1095 145.821 34.9222 145.701 41.9695C145.58 49.0169 142.696 55.7353 137.669 60.6783C132.642 65.6214 125.874 68.3936 118.822 68.3983C118.506 68.3983 118.19 68.3928 117.872 68.3818C110.824 68.137 104.155 65.1359 99.2989 60.0246C94.4432 54.9133 91.7897 48.1006 91.9099 41.0532C92.03 34.0058 94.9141 27.2874 99.9412 22.3444C104.968 17.4014 111.736 14.6291 118.788 14.6244V14.6244ZM118.79 7.98462V14.6244L118.79 7.98462C109.996 7.98871 101.555 11.4445 95.2849 17.6077C89.015 23.771 85.4174 32.1489 85.2669 40.9373C85.1163 49.7257 88.4249 58.2217 94.48 64.5959C100.535 70.9701 108.853 74.7127 117.642 75.0176C118.034 75.0312 118.431 75.0381 118.822 75.0381C127.616 75.0337 136.057 71.5777 142.326 65.4143C148.596 59.2509 152.193 50.8731 152.344 42.0848C152.494 33.2965 149.185 24.8006 143.13 18.4265C137.075 12.0525 128.758 8.31007 119.969 8.00512C119.577 7.99151 119.18 7.98462 118.79 7.98462V7.98462Z" fill="white"/>
<path d="M115.278 -2.2972e-05L114.991 8.26782L122.849 8.54049L123.136 0.272646L115.278 -2.2972e-05Z" fill="white"/>
<path d="M137.035 4.10901L132.529 11.0481L139.124 15.3272L143.631 8.3881L137.035 4.10901Z" fill="white"/>
<path d="M153.303 18.2298L145.929 21.9871L149.5 28.9889L156.874 25.2316L153.303 18.2298Z" fill="white"/>
<path d="M149.04 55.757L144.644 62.2734L151.507 66.8981L155.903 60.3817L149.04 55.757Z" fill="white"/>
<path d="M86.0057 15.8946L81.9573 22.6321L89.0529 26.8914L93.1013 20.154L86.0057 15.8946Z" fill="white"/>
<path d="M87.6547 53.6268L80.4874 57.7646L84.4204 64.5701L91.5876 60.4322L87.6547 53.6268Z" fill="white"/>
<path d="M103.215 2.93521L96.3384 6.74683L100.353 13.9816L107.229 10.17L103.215 2.93521Z" fill="white"/>
<path d="M112.693 74.4104L112.406 82.6782L120.265 82.9509L120.552 74.6831L112.693 74.4104Z" fill="white"/>
<path d="M137.258 69.0414L130.381 72.853L134.396 80.0878L141.272 76.2762L137.258 69.0414Z" fill="white"/>
<path d="M98.4869 67.6962L93.9803 74.6353L100.576 78.9143L105.082 71.9752L98.4869 67.6962Z" fill="white"/>
<path d="M86.2457 37.0706L76.7329 36.7405L76.4888 43.7682L86.0016 44.0982L86.2457 37.0706Z" fill="white"/>
<path d="M151.35 46.3657L160.863 46.6958L161.107 39.6681L151.594 39.3381L151.35 46.3657Z" fill="white"/>
</g>
<defs>
<linearGradient id="paint0_linear" x1="118.798" y1="70.974" x2="118.798" y2="11.9771" gradientUnits="userSpaceOnUse">
<stop stop-color="#808080" stop-opacity="0.25"/>
<stop offset="0.53514" stop-color="#808080" stop-opacity="0.12"/>
<stop offset="1" stop-color="#808080" stop-opacity="0.1"/>
</linearGradient>
<linearGradient id="paint1_linear" x1="37038.8" y1="11052.7" x2="37038.8" y2="2141.06" gradientUnits="userSpaceOnUse">
<stop stop-color="#808080" stop-opacity="0.25"/>
<stop offset="0.53514" stop-color="#808080" stop-opacity="0.12"/>
<stop offset="1" stop-color="#808080" stop-opacity="0.1"/>
</linearGradient>
<linearGradient id="paint2_linear" x1="27536.9" y1="18411.4" x2="27536.9" y2="9499.76" gradientUnits="userSpaceOnUse">
<stop stop-color="#808080" stop-opacity="0.25"/>
<stop offset="0.53514" stop-color="#808080" stop-opacity="0.12"/>
<stop offset="1" stop-color="#808080" stop-opacity="0.1"/>
</linearGradient>
<clipPath id="clip0">
<rect width="286" height="307" fill="white"/>
</clipPath>
</defs>
</svg>
