<svg width="546" height="349" viewBox="0 0 546 349" fill="none" xmlns="http://www.w3.org/2000/svg">
<path d="M545.402 0.308838H0.232666V349H545.402V0.308838Z" fill="#E6E6E6"/>
<path d="M529.814 44.0435H15.8218V328.371H529.814V44.0435Z" fill="white"/>
<path d="M545.17 0H0V23.1303H545.17V0Z" fill="#EE224D"/>
<path d="M17.211 16.1124C19.5818 16.1124 21.5037 14.193 21.5037 11.8254C21.5037 9.4577 19.5818 7.53833 17.211 7.53833C14.8402 7.53833 12.9183 9.4577 12.9183 11.8254C12.9183 14.193 14.8402 16.1124 17.211 16.1124Z" fill="white"/>
<path d="M33.5053 16.1124C35.8761 16.1124 37.798 14.193 37.798 11.8254C37.798 9.4577 35.8761 7.53833 33.5053 7.53833C31.1345 7.53833 29.2126 9.4577 29.2126 11.8254C29.2126 14.193 31.1345 16.1124 33.5053 16.1124Z" fill="white"/>
<path d="M49.799 16.1124C52.1697 16.1124 54.0916 14.193 54.0916 11.8254C54.0916 9.4577 52.1697 7.53833 49.799 7.53833C47.4282 7.53833 45.5063 9.4577 45.5063 11.8254C45.5063 14.193 47.4282 16.1124 49.799 16.1124Z" fill="white"/>
<path d="M350.434 87.6958H59.5526V251.101H350.434V87.6958Z" fill="#EE224D"/>
<path d="M501.793 87.6958H391.022V149.923H501.793V87.6958Z" fill="#E6E6E6"/>
<path d="M501.793 169.61H391.022V231.837H501.793V169.61Z" fill="#E6E6E6"/>
<path d="M501.793 251.524H391.022V313.751H501.793V251.524Z" fill="#E6E6E6"/>
<path d="M259.956 278.547H59.5526V292.058H259.956V278.547Z" fill="#E6E6E6"/>
<path d="M243.045 169.399L179.625 132.832V205.965L243.045 169.399L179.625 132.832V205.965L243.045 169.399Z" fill="white"/>
</svg>
