<svg width="663" height="398" viewBox="0 0 663 398" fill="none" xmlns="http://www.w3.org/2000/svg">
<g clip-path="url(#clip0)">
<path d="M663 310.583C663.014 313.249 661.965 315.811 660.085 317.706C658.204 319.6 655.646 320.673 652.972 320.687H211.77C210.446 320.68 209.136 320.413 207.916 319.902C206.696 319.39 205.588 318.644 204.657 317.706C203.726 316.768 202.989 315.656 202.489 314.434C201.989 313.212 201.735 311.904 201.742 310.584V10.1032C201.728 7.43758 202.776 4.87563 204.657 2.98092C206.537 1.08621 209.096 0.0139398 211.769 0H652.972C654.296 0.00686549 655.605 0.273633 656.826 0.785066C658.046 1.2965 659.153 2.04258 660.085 2.98072C661.016 3.91886 661.752 5.03069 662.253 6.25271C662.753 7.47474 663.007 8.78303 663 10.1029V10.1032V310.583Z" fill="#E6E6E6"/>
<path d="M657.795 305.663C657.795 308.254 656.763 310.739 654.926 312.571C653.088 314.403 650.596 315.432 647.997 315.432H217.046C214.448 315.432 211.956 314.403 210.118 312.571C208.281 310.739 207.248 308.254 207.248 305.663V15.1613C207.248 12.5704 208.281 10.0857 210.118 8.25361C211.956 6.42156 214.448 5.39233 217.046 5.39233H648.017C650.612 5.39754 653.099 6.42907 654.933 8.26055C656.766 10.092 657.795 12.5738 657.795 15.1613V305.663Z" fill="white"/>
<path d="M230.281 18.0049H635.223C636.765 18.0049 638.244 18.6158 639.335 19.7032C640.426 20.7907 641.038 22.2655 641.038 23.8034V295.894C641.038 297.432 640.426 298.907 639.335 299.994C638.244 301.082 636.765 301.693 635.223 301.693H230.281C228.739 301.693 227.259 301.082 226.169 299.994C225.078 298.907 224.465 297.432 224.465 295.894V23.8034C224.465 22.2655 225.078 20.7907 226.169 19.7032C227.259 18.6158 228.739 18.0049 230.281 18.0049V18.0049Z" fill="#E6E6E6"/>
<path d="M235.407 24.5305H629.657C631.199 24.5305 632.678 25.1414 633.769 26.2289C634.86 27.3163 635.472 28.7912 635.472 30.329V287.9C635.472 289.438 634.86 290.913 633.769 292.001C632.678 293.088 631.199 293.699 629.657 293.699H235.407C233.864 293.699 232.385 293.088 231.294 292.001C230.204 290.913 229.591 289.438 229.591 287.9V30.329C229.591 28.7912 230.204 27.3163 231.294 26.2289C232.385 25.1414 233.864 24.5305 235.407 24.5305V24.5305Z" fill="white"/>
<path d="M513.774 203.461C512.222 203.459 510.688 203.134 509.271 202.504C508.941 202.358 508.626 202.18 508.332 201.972L479.679 181.863C478.226 180.843 477.041 179.49 476.222 177.917C475.403 176.345 474.975 174.599 474.975 172.827V145.403C474.975 143.631 475.403 141.885 476.222 140.313C477.04 138.74 478.226 137.387 479.679 136.367L508.332 116.258C508.626 116.05 508.941 115.872 509.271 115.726C510.958 114.978 512.807 114.662 514.648 114.807C516.49 114.953 518.265 115.554 519.814 116.558C521.363 117.561 522.636 118.934 523.517 120.553C524.398 122.172 524.86 123.984 524.86 125.826V192.404C524.86 195.336 523.692 198.147 521.613 200.22C519.534 202.293 516.714 203.457 513.774 203.457L513.774 203.461Z" fill="#3F3D56"/>
<path d="M449.65 208.852H369.737C353.433 208.839 340.221 198.331 340.204 185.365V132.864C340.221 119.898 353.433 109.391 369.737 109.377H449.859C466.046 109.393 479.164 119.825 479.183 132.699V185.365C479.166 198.331 465.954 208.839 449.65 208.852Z" fill="#3F3D56"/>
<path d="M592.002 277.136C605.128 277.136 615.769 266.527 615.769 253.44C615.769 240.352 605.128 229.743 592.002 229.743C578.876 229.743 568.235 240.352 568.235 253.44C568.235 266.527 578.876 277.136 592.002 277.136Z" fill="#E6E6E6"/>
<path d="M604.347 253.015L585.402 242.109C585.327 242.066 585.242 242.043 585.156 242.043C585.07 242.043 584.985 242.066 584.91 242.109C584.835 242.152 584.773 242.214 584.73 242.289C584.687 242.363 584.664 242.448 584.664 242.534V264.345C584.664 264.431 584.687 264.516 584.73 264.59C584.773 264.665 584.835 264.727 584.91 264.77C584.985 264.813 585.07 264.835 585.156 264.835C585.242 264.835 585.327 264.813 585.402 264.77L604.347 253.864C604.421 253.821 604.483 253.759 604.527 253.685C604.57 253.61 604.593 253.526 604.593 253.439C604.593 253.353 604.57 253.269 604.527 253.194C604.483 253.12 604.421 253.058 604.347 253.015L585.402 242.109C585.327 242.066 585.242 242.043 585.156 242.043C585.07 242.043 584.985 242.066 584.91 242.109C584.835 242.152 584.773 242.214 584.73 242.289C584.687 242.363 584.664 242.448 584.664 242.534V264.345C584.664 264.431 584.687 264.516 584.73 264.59C584.773 264.665 584.835 264.727 584.91 264.77C584.985 264.813 585.07 264.835 585.156 264.835C585.242 264.835 585.327 264.813 585.402 264.77L604.347 253.864C604.421 253.821 604.483 253.759 604.527 253.685C604.57 253.61 604.593 253.526 604.593 253.439C604.593 253.353 604.57 253.269 604.527 253.194C604.483 253.12 604.421 253.058 604.347 253.015V253.015Z" fill="white"/>
<path d="M561.143 346.619C561.157 349.285 560.109 351.847 558.228 353.742C556.348 355.636 553.789 356.709 551.116 356.722H109.913C108.589 356.716 107.28 356.449 106.059 355.937C104.839 355.426 103.732 354.68 102.801 353.742C101.869 352.804 101.133 351.692 100.632 350.47C100.132 349.248 99.8783 347.939 99.8851 346.62V46.139C99.8712 43.4735 100.92 40.9115 102.8 39.0168C104.681 37.1221 107.239 36.0498 109.913 36.0359H551.116C552.439 36.0428 553.749 36.3095 554.969 36.821C556.19 37.3324 557.297 38.0785 558.228 39.0166C559.159 39.9548 559.896 41.0666 560.396 42.2886C560.896 43.5106 561.15 44.8189 561.143 46.1388V46.1391V346.619Z" fill="#E6E6E6"/>
<path d="M555.939 341.699C555.939 344.29 554.907 346.775 553.069 348.607C551.232 350.439 548.74 351.468 546.141 351.468H115.19C112.591 351.468 110.099 350.439 108.262 348.607C106.424 346.775 105.392 344.29 105.392 341.699V51.1972C105.392 48.6063 106.424 46.1215 108.262 44.2895C110.099 42.4575 112.591 41.4282 115.19 41.4282H546.161C548.756 41.4334 551.243 42.465 553.076 44.2964C554.909 46.1279 555.939 48.6097 555.939 51.1972V341.699Z" fill="white"/>
<path d="M128.425 54.0408H533.366C534.909 54.0408 536.388 54.6517 537.479 55.7391C538.569 56.8265 539.182 58.3014 539.182 59.8393V331.93C539.182 333.468 538.569 334.943 537.479 336.03C536.388 337.117 534.909 337.728 533.366 337.728H128.425C126.882 337.728 125.403 337.117 124.312 336.03C123.222 334.943 122.609 333.468 122.609 331.93V59.8393C122.609 58.3014 123.222 56.8265 124.312 55.7391C125.403 54.6517 126.882 54.0408 128.425 54.0408Z" fill="#E6E6E6"/>
<path d="M133.55 60.5667H527.8C529.343 60.5667 530.822 61.1776 531.913 62.265C533.003 63.3524 533.616 64.8273 533.616 66.3652V323.937C533.616 325.474 533.003 326.949 531.913 328.037C530.822 329.124 529.343 329.735 527.8 329.735H133.55C132.008 329.735 130.529 329.124 129.438 328.037C128.347 326.949 127.735 325.474 127.735 323.937V66.3652C127.735 64.8273 128.347 63.3524 129.438 62.265C130.529 61.1776 132.008 60.5667 133.55 60.5667V60.5667Z" fill="white"/>
<path d="M411.918 239.496C410.366 239.495 408.832 239.169 407.414 238.54C407.085 238.394 406.77 238.215 406.475 238.008L377.823 217.899C376.37 216.879 375.184 215.525 374.365 213.953C373.547 212.38 373.119 210.635 373.119 208.863V181.438C373.119 179.667 373.547 177.921 374.365 176.348C375.184 174.776 376.37 173.423 377.823 172.403L406.475 152.294C406.77 152.086 407.084 151.908 407.414 151.762C409.102 151.014 410.951 150.698 412.792 150.843C414.633 150.988 416.409 151.59 417.958 152.593C419.507 153.597 420.779 154.97 421.66 156.589C422.542 158.207 423.003 160.02 423.003 161.861V228.44C423.003 231.371 421.835 234.183 419.756 236.256C417.677 238.328 414.858 239.493 411.918 239.493L411.918 239.496Z" fill="#3F3D56"/>
<path d="M347.794 244.888H267.88C251.577 244.875 238.364 234.367 238.347 221.401V168.901C238.364 155.935 251.577 145.427 267.88 145.414H348.002C364.19 145.429 377.308 155.861 377.327 168.735V221.401C377.31 234.367 364.097 244.875 347.794 244.888Z" fill="#3F3D56"/>
<path d="M490.146 313.172C503.272 313.172 513.913 302.563 513.913 289.475C513.913 276.388 503.272 265.779 490.146 265.779C477.02 265.779 466.379 276.388 466.379 289.475C466.379 302.563 477.02 313.172 490.146 313.172Z" fill="#E6E6E6"/>
<path d="M502.49 289.051L483.546 278.145C483.471 278.102 483.386 278.079 483.3 278.079C483.213 278.079 483.128 278.102 483.054 278.145C482.979 278.188 482.917 278.25 482.874 278.325C482.83 278.399 482.808 278.484 482.808 278.57V300.381C482.808 300.467 482.83 300.552 482.874 300.626C482.917 300.701 482.979 300.763 483.054 300.806C483.128 300.849 483.213 300.871 483.3 300.871C483.386 300.871 483.471 300.849 483.546 300.806L502.49 289.9C502.565 289.857 502.627 289.795 502.67 289.721C502.714 289.646 502.736 289.561 502.736 289.475C502.736 289.389 502.714 289.305 502.67 289.23C502.627 289.156 502.565 289.094 502.49 289.051L483.546 278.145C483.471 278.102 483.386 278.079 483.3 278.079C483.213 278.079 483.128 278.102 483.054 278.145C482.979 278.188 482.917 278.25 482.874 278.325C482.83 278.399 482.808 278.484 482.808 278.57V300.381C482.808 300.467 482.83 300.552 482.874 300.626C482.917 300.701 482.979 300.763 483.054 300.806C483.128 300.849 483.213 300.871 483.3 300.871C483.386 300.871 483.471 300.849 483.546 300.806L502.49 289.9C502.565 289.857 502.627 289.795 502.67 289.721C502.714 289.646 502.736 289.561 502.736 289.475C502.736 289.389 502.714 289.305 502.67 289.23C502.627 289.156 502.565 289.094 502.49 289.051Z" fill="white"/>
<path d="M461.259 387.897C461.272 390.563 460.224 393.125 458.343 395.019C456.463 396.914 453.904 397.986 451.231 398H10.0281C8.70432 397.993 7.39487 397.727 6.17449 397.215C4.95412 396.704 3.84673 395.958 2.91555 395.019C1.98437 394.081 1.24764 392.969 0.747415 391.747C0.247193 390.525 -0.00672034 389.217 0.000168513 387.897V87.4166C-0.0138107 84.7511 1.03481 82.1891 2.91536 80.2944C4.79591 78.3997 7.35433 77.3274 10.0278 77.3135H451.231C452.554 77.3203 453.864 77.5871 455.084 78.0985C456.305 78.61 457.412 79.3561 458.343 80.2942C459.274 81.2323 460.011 82.3442 460.511 83.5662C461.011 84.7882 461.265 86.0965 461.259 87.4164V87.4166V387.897Z" fill="#E6E6E6"/>
<path d="M456.054 382.976C456.054 385.567 455.022 388.052 453.184 389.884C451.347 391.716 448.855 392.745 446.256 392.745H15.3049C12.7063 392.745 10.2142 391.716 8.37674 389.884C6.53927 388.052 5.50699 385.567 5.50699 382.976V92.4746C5.50699 89.8837 6.53927 87.3989 8.37674 85.5668C10.2142 83.7348 12.7063 82.7056 15.3049 82.7056H446.276C448.871 82.7108 451.358 83.7423 453.191 85.5738C455.024 87.4053 456.054 89.8871 456.054 92.4746V382.976Z" fill="white"/>
<path d="M28.5396 95.3181H433.481C435.024 95.3181 436.503 95.929 437.594 97.0165C438.684 98.1039 439.297 99.5788 439.297 101.117V373.207C439.297 374.745 438.684 376.22 437.594 377.307C436.503 378.395 435.024 379.006 433.481 379.006H28.5396C26.9972 379.006 25.5179 378.395 24.4273 377.307C23.3366 376.22 22.7239 374.745 22.7239 373.207V101.117C22.7239 99.5788 23.3366 98.1039 24.4273 97.0165C25.5179 95.929 26.9972 95.3181 28.5396 95.3181V95.3181Z" fill="#E6E6E6"/>
<path d="M33.6654 101.844H427.915C428.679 101.844 429.435 101.994 430.141 102.285C430.846 102.577 431.488 103.004 432.028 103.542C432.568 104.081 432.996 104.72 433.288 105.423C433.581 106.127 433.731 106.881 433.731 107.642V365.214C433.731 365.975 433.581 366.729 433.288 367.433C432.996 368.136 432.568 368.776 432.028 369.314C431.488 369.853 430.846 370.28 430.141 370.571C429.435 370.862 428.679 371.012 427.915 371.012H33.6654C32.123 371.012 30.6437 370.402 29.5531 369.314C28.4624 368.227 27.8497 366.752 27.8497 365.214V107.642C27.8497 106.105 28.4624 104.63 29.5531 103.542C30.6437 102.455 32.123 101.844 33.6654 101.844V101.844Z" fill="white"/>
<path d="M312.033 280.774C310.481 280.773 308.947 280.447 307.529 279.817C307.2 279.671 306.885 279.493 306.59 279.285L277.938 259.176C276.485 258.156 275.299 256.803 274.48 255.231C273.662 253.658 273.234 251.912 273.234 250.141V222.716C273.234 220.944 273.662 219.198 274.48 217.626C275.299 216.053 276.485 214.7 277.938 213.68L306.59 193.571C306.885 193.363 307.199 193.185 307.529 193.039C309.217 192.291 311.066 191.975 312.907 192.121C314.748 192.266 316.524 192.867 318.073 193.871C319.622 194.874 320.894 196.248 321.776 197.866C322.657 199.485 323.118 201.297 323.118 203.139V269.718C323.118 272.649 321.95 275.46 319.871 277.533C317.792 279.606 314.973 280.77 312.033 280.77L312.033 280.774Z" fill="#EE224D"/>
<path d="M247.909 286.165H167.996C151.692 286.152 138.479 275.644 138.462 262.678V210.178C138.479 197.212 151.692 186.704 167.996 186.691H248.117C264.305 186.706 277.423 197.139 277.442 210.012V262.678C277.425 275.644 264.212 286.152 247.909 286.165Z" fill="#EE224D"/>
<path d="M390.261 354.45C403.387 354.45 414.028 343.84 414.028 330.753C414.028 317.666 403.387 307.056 390.261 307.056C377.135 307.056 366.494 317.666 366.494 330.753C366.494 343.84 377.135 354.45 390.261 354.45Z" fill="#3F3D56"/>
<path d="M402.605 330.328L383.661 319.423C383.586 319.38 383.501 319.357 383.415 319.357C383.328 319.357 383.243 319.38 383.169 319.423C383.094 319.466 383.032 319.528 382.989 319.602C382.945 319.677 382.923 319.761 382.923 319.847V341.658C382.923 341.744 382.945 341.829 382.989 341.904C383.032 341.978 383.094 342.04 383.169 342.083C383.243 342.126 383.328 342.149 383.415 342.149C383.501 342.149 383.586 342.126 383.661 342.083L402.605 331.178C402.68 331.135 402.742 331.073 402.785 330.998C402.828 330.924 402.851 330.839 402.851 330.753C402.851 330.667 402.828 330.582 402.785 330.508C402.742 330.433 402.68 330.371 402.605 330.328L383.661 319.423C383.586 319.38 383.501 319.357 383.415 319.357C383.328 319.357 383.243 319.38 383.169 319.423C383.094 319.466 383.032 319.528 382.989 319.602C382.945 319.677 382.923 319.761 382.923 319.847V341.658C382.923 341.745 382.945 341.829 382.989 341.904C383.032 341.978 383.094 342.04 383.169 342.083C383.243 342.126 383.328 342.149 383.415 342.149C383.501 342.149 383.586 342.126 383.661 342.083L402.605 331.178C402.68 331.135 402.742 331.073 402.785 330.998C402.828 330.924 402.851 330.839 402.851 330.753C402.851 330.667 402.828 330.582 402.785 330.508C402.742 330.433 402.68 330.371 402.605 330.328V330.328Z" fill="white"/>
</g>
<defs>
<clipPath id="clip0">
<rect width="663" height="398" fill="white"/>
</clipPath>
</defs>
</svg>
