<svg width="46" height="46" viewBox="0 0 46 46" fill="none" xmlns="http://www.w3.org/2000/svg">
<path d="M24.5638 25.9888C24.0377 26.5152 23.1845 26.5152 22.6581 25.9888L16.534 19.8647C16.2813 19.612 16.1392 19.2691 16.1392 18.9119C16.1392 18.5542 16.2813 18.2117 16.534 17.9587L17.6226 16.8704L14.4251 13.6729L11.8056 16.2924C10.924 17.174 10.9244 18.6083 11.8056 19.4899L23.0329 30.7179C23.4572 31.1422 24.025 31.3756 24.6318 31.3756C25.2386 31.3756 25.8065 31.1418 26.2308 30.7175L28.8503 28.0984L25.6528 24.9005L24.5638 25.9888Z" fill="white"/>
<path d="M44.067 16.2357C44.067 11.9152 42.374 7.84273 39.2989 4.76804C36.2242 1.69334 32.1518 0 27.8316 0H18.2116C18.2116 0 18.2116 0 18.2113 0C13.8914 0 9.81894 1.69334 6.7446 4.76768C3.66991 7.84238 1.97656 11.9152 1.97656 16.2354V23.797C1.97656 27.1426 2.99713 30.3612 4.92807 33.1046C6.63159 35.5248 8.92261 37.415 11.5937 38.6139V42.9572C11.5937 45.203 12.8512 45.9996 13.9279 46C14.6972 46 15.4668 45.6203 16.2157 44.8717L21.0543 40.0324H27.8319C32.1521 40.0324 36.2246 38.3391 39.2993 35.2644C42.374 32.1897 44.0673 28.1172 44.0673 23.797L44.067 16.2357ZM31.7092 29.0515L28.1365 32.6238C27.203 33.5573 25.9585 34.0708 24.6319 34.0708C23.3053 34.0708 22.0609 33.557 21.1273 32.6238L9.89966 21.3958C7.96767 19.4631 7.96767 16.3189 9.89966 14.3866L13.4724 10.8142C13.725 10.5612 14.0676 10.4194 14.4252 10.4194C14.7825 10.4194 15.1253 10.5612 15.378 10.8142L20.4816 15.9178C20.7343 16.1705 20.876 16.5134 20.876 16.8706C20.876 17.2279 20.7343 17.5708 20.4812 17.8235L19.3929 18.9118L23.6114 23.1302L24.7 22.0415C25.2264 21.5155 26.0796 21.5155 26.6057 22.0419L31.7092 27.1454C31.9623 27.3981 32.104 27.741 32.104 28.0983C32.104 28.4559 31.9623 28.7988 31.7092 29.0515ZM22.0012 13.0831C22.0012 12.3391 22.6045 11.7355 23.3488 11.7355C28.0183 11.7355 31.8173 15.5342 31.8173 20.2033C31.8173 20.9476 31.214 21.5509 30.4697 21.5509C29.7256 21.5509 29.122 20.9476 29.122 20.2033C29.122 17.0205 26.5323 14.4308 23.3488 14.4308C22.6045 14.4308 22.0012 13.8275 22.0012 13.0831ZM36.2432 21.5516C35.4988 21.5516 34.8955 20.948 34.8955 20.204C34.8959 17.1194 33.6946 14.2199 31.5137 12.0387C29.3326 9.85789 26.433 8.65659 23.3485 8.65659C22.6045 8.65659 22.0008 8.0533 22.0008 7.30893C22.0008 6.56491 22.6045 5.96127 23.3485 5.96127C27.1528 5.96127 30.7294 7.44299 33.4194 10.133C36.1098 12.8231 37.5912 16.3996 37.5908 20.204C37.5908 20.948 36.9875 21.5516 36.2432 21.5516Z" fill="white"/>
</svg>
