<svg width="60" height="60" viewBox="0 0 60 60" fill="none" xmlns="http://www.w3.org/2000/svg">
<circle cx="30" cy="30" r="30" fill="#EE224D"/>
<path d="M46.162 21.5638C45.7731 20.1179 44.6331 18.9782 43.1874 18.5888C40.5464 17.8662 29.982 17.8662 29.982 17.8662C29.982 17.8662 19.418 17.8662 16.777 18.5614C15.3591 18.9504 14.1914 20.1181 13.8024 21.5638C13.1074 24.2046 13.1074 29.6814 13.1074 29.6814C13.1074 29.6814 13.1074 35.1857 13.8024 37.799C14.1918 39.2446 15.3313 40.3844 16.7772 40.7737C19.4458 41.4966 29.9824 41.4966 29.9824 41.4966C29.9824 41.4966 40.5464 41.4966 43.1874 40.8013C44.6333 40.4122 45.7731 39.2724 46.1624 37.8268C46.8572 35.1857 46.8572 29.7092 46.8572 29.7092C46.8572 29.7092 46.885 24.2046 46.162 21.5638V21.5638ZM26.6185 34.741V24.6218L35.4034 29.6814L26.6185 34.741Z" fill="white"/>
</svg>
