<svg width="50" height="50" viewBox="0 0 50 50" fill="none" xmlns="http://www.w3.org/2000/svg">
<circle cx="25" cy="25" r="25" fill="white"/>
<path d="M38.4683 17.9703C38.1442 16.7654 37.1942 15.8156 35.9895 15.4912C33.7887 14.889 24.985 14.889 24.985 14.889C24.985 14.889 16.1817 14.889 13.9808 15.4683C12.7993 15.7924 11.8261 16.7656 11.502 17.9703C10.9229 20.171 10.9229 24.735 10.9229 24.735C10.9229 24.735 10.9229 29.3219 11.502 31.4996C11.8265 32.7043 12.7761 33.6541 13.981 33.9786C16.2049 34.5809 24.9854 34.5809 24.9854 34.5809C24.9854 34.5809 33.7887 34.5809 35.9895 34.0016C37.1944 33.6773 38.1442 32.7275 38.4687 31.5228C39.0477 29.3219 39.0477 24.7581 39.0477 24.7581C39.0477 24.7581 39.0709 20.171 38.4683 17.9703V17.9703ZM22.1821 28.9513V20.5186L29.5028 24.735L22.1821 28.9513Z" fill="#EE224D"/>
</svg>
